ISO-10303-21;
HEADER;
/* Generated by software containing ST-Developer
 * from STEP Tools, Inc. (www.steptools.com) 
 */

FILE_DESCRIPTION(
/* description */ ('STEP AP242'),
/* implementation_level */ '2;1');

FILE_NAME(
/* name */ 'Kreissegment 50Grad_neu.step',
/* time_stamp */ '2025-09-26T22:00:46+02:00',
/* author */ (''),
/* organization */ (''),
/* preprocessor_version */ 'ST-DEVELOPER v20.1',
/* originating_system */ 'Autodesk Translation Framework v14.17.0.0',
/* authorisation */ '');

FILE_SCHEMA (('AUTOMOTIVE_DESIGN { 1 0 10303 214 3 1 1 }'));
ENDSEC;

DATA;
#10=MECHANICAL_DESIGN_GEOMETRIC_PRESENTATION_REPRESENTATION('',(#13),#422);
#11=SHAPE_REPRESENTATION_RELATIONSHIP('SRR','None',#428,#12);
#12=ADVANCED_BREP_SHAPE_REPRESENTATION('',(#14),#421);
#13=STYLED_ITEM('',(#438),#14);
#14=MANIFOLD_SOLID_BREP('K\X\F6rper1',#230);
#15=FACE_BOUND('',#68,.T.);
#16=FACE_BOUND('',#69,.T.);
#17=FACE_BOUND('',#70,.T.);
#18=FACE_BOUND('',#71,.T.);
#19=FACE_BOUND('',#72,.T.);
#20=CIRCLE('',#248,0.002117);
#21=CIRCLE('',#249,0.002117);
#22=CIRCLE('',#252,0.002117);
#23=CIRCLE('',#253,0.002117);
#24=CIRCLE('',#256,0.002117);
#25=CIRCLE('',#257,0.002117);
#26=CIRCLE('',#260,0.002117);
#27=CIRCLE('',#261,0.002117);
#28=CIRCLE('',#264,0.002117);
#29=CIRCLE('',#265,0.002117);
#30=CYLINDRICAL_SURFACE('',#247,0.002117);
#31=CYLINDRICAL_SURFACE('',#251,0.002117);
#32=CYLINDRICAL_SURFACE('',#255,0.002117);
#33=CYLINDRICAL_SURFACE('',#259,0.002117);
#34=CYLINDRICAL_SURFACE('',#263,0.002117);
#35=B_SPLINE_SURFACE_WITH_KNOTS('',3,1,((#352,#353),(#354,#355),(#356,#357),
(#358,#359),(#360,#361)),.UNSPECIFIED.,.F.,.F.,.F.,(4,1,4),(2,2),(0.992781385589131,
1.15999579865245,1.32721021171577),(0.,2.15999999999991),.UNSPECIFIED.);
#36=FACE_OUTER_BOUND('',#52,.T.);
#37=FACE_OUTER_BOUND('',#53,.T.);
#38=FACE_OUTER_BOUND('',#54,.T.);
#39=FACE_OUTER_BOUND('',#55,.T.);
#40=FACE_OUTER_BOUND('',#56,.T.);
#41=FACE_OUTER_BOUND('',#57,.T.);
#42=FACE_OUTER_BOUND('',#58,.T.);
#43=FACE_OUTER_BOUND('',#59,.T.);
#44=FACE_OUTER_BOUND('',#60,.T.);
#45=FACE_OUTER_BOUND('',#61,.T.);
#46=FACE_OUTER_BOUND('',#62,.T.);
#47=FACE_OUTER_BOUND('',#63,.T.);
#48=FACE_OUTER_BOUND('',#64,.T.);
#49=FACE_OUTER_BOUND('',#65,.T.);
#50=FACE_OUTER_BOUND('',#66,.T.);
#51=FACE_OUTER_BOUND('',#67,.T.);
#52=EDGE_LOOP('',(#150,#151,#152,#153));
#53=EDGE_LOOP('',(#154,#155,#156,#157));
#54=EDGE_LOOP('',(#158,#159,#160,#161));
#55=EDGE_LOOP('',(#162,#163,#164,#165));
#56=EDGE_LOOP('',(#166,#167,#168,#169));
#57=EDGE_LOOP('',(#170));
#58=EDGE_LOOP('',(#171,#172,#173,#174));
#59=EDGE_LOOP('',(#175));
#60=EDGE_LOOP('',(#176,#177,#178,#179));
#61=EDGE_LOOP('',(#180));
#62=EDGE_LOOP('',(#181,#182,#183,#184));
#63=EDGE_LOOP('',(#185));
#64=EDGE_LOOP('',(#186,#187,#188,#189));
#65=EDGE_LOOP('',(#190));
#66=EDGE_LOOP('',(#191,#192,#193,#194));
#67=EDGE_LOOP('',(#195,#196,#197,#198));
#68=EDGE_LOOP('',(#199));
#69=EDGE_LOOP('',(#200));
#70=EDGE_LOOP('',(#201));
#71=EDGE_LOOP('',(#202));
#72=EDGE_LOOP('',(#203));
#73=B_SPLINE_CURVE_WITH_KNOTS('',3,(#342,#343,#344,#345,#346,#347,#348),
 .UNSPECIFIED.,.F.,.F.,(4,3,4),(-21.7479386534316,-10.8739693267158,0.),
 .UNSPECIFIED.);
#74=B_SPLINE_CURVE_WITH_KNOTS('',3,(#365,#366,#367,#368,#369,#370,#371),
 .UNSPECIFIED.,.F.,.F.,(4,3,4),(-21.7273729930063,-10.8636864965031,0.),
 .UNSPECIFIED.);
#75=LINE('',#340,#90);
#76=LINE('',#350,#91);
#77=LINE('',#351,#92);
#78=LINE('',#363,#93);
#79=LINE('',#372,#94);
#80=LINE('',#375,#95);
#81=LINE('',#376,#96);
#82=LINE('',#379,#97);
#83=LINE('',#380,#98);
#84=LINE('',#385,#99);
#85=LINE('',#392,#100);
#86=LINE('',#399,#101);
#87=LINE('',#406,#102);
#88=LINE('',#413,#103);
#89=LINE('',#417,#104);
#90=VECTOR('',#273,0.01);
#91=VECTOR('',#274,0.01);
#92=VECTOR('',#275,0.01);
#93=VECTOR('',#276,1.);
#94=VECTOR('',#277,1.);
#95=VECTOR('',#280,1.);
#96=VECTOR('',#281,0.01);
#97=VECTOR('',#284,0.01);
#98=VECTOR('',#285,0.01);
#99=VECTOR('',#290,0.002);
#100=VECTOR('',#299,0.002);
#101=VECTOR('',#308,0.002);
#102=VECTOR('',#317,0.002);
#103=VECTOR('',#326,0.002);
#104=VECTOR('',#333,1.);
#105=VERTEX_POINT('',#338);
#106=VERTEX_POINT('',#339);
#107=VERTEX_POINT('',#341);
#108=VERTEX_POINT('',#349);
#109=VERTEX_POINT('',#362);
#110=VERTEX_POINT('',#364);
#111=VERTEX_POINT('',#374);
#112=VERTEX_POINT('',#378);
#113=VERTEX_POINT('',#382);
#114=VERTEX_POINT('',#384);
#115=VERTEX_POINT('',#389);
#116=VERTEX_POINT('',#391);
#117=VERTEX_POINT('',#396);
#118=VERTEX_POINT('',#398);
#119=VERTEX_POINT('',#403);
#120=VERTEX_POINT('',#405);
#121=VERTEX_POINT('',#410);
#122=VERTEX_POINT('',#412);
#123=EDGE_CURVE('',#105,#106,#75,.T.);
#124=EDGE_CURVE('',#107,#105,#73,.T.);
#125=EDGE_CURVE('',#108,#107,#76,.T.);
#126=EDGE_CURVE('',#106,#108,#77,.T.);
#127=EDGE_CURVE('',#105,#109,#78,.T.);
#128=EDGE_CURVE('',#109,#110,#74,.T.);
#129=EDGE_CURVE('',#107,#110,#79,.T.);
#130=EDGE_CURVE('',#111,#106,#80,.T.);
#131=EDGE_CURVE('',#111,#109,#81,.T.);
#132=EDGE_CURVE('',#112,#111,#82,.T.);
#133=EDGE_CURVE('',#110,#112,#83,.T.);
#134=EDGE_CURVE('',#113,#113,#20,.T.);
#135=EDGE_CURVE('',#113,#114,#84,.T.);
#136=EDGE_CURVE('',#114,#114,#21,.F.);
#137=EDGE_CURVE('',#115,#115,#22,.T.);
#138=EDGE_CURVE('',#115,#116,#85,.T.);
#139=EDGE_CURVE('',#116,#116,#23,.F.);
#140=EDGE_CURVE('',#117,#117,#24,.T.);
#141=EDGE_CURVE('',#117,#118,#86,.T.);
#142=EDGE_CURVE('',#118,#118,#25,.F.);
#143=EDGE_CURVE('',#119,#119,#26,.T.);
#144=EDGE_CURVE('',#119,#120,#87,.T.);
#145=EDGE_CURVE('',#120,#120,#27,.F.);
#146=EDGE_CURVE('',#121,#121,#28,.T.);
#147=EDGE_CURVE('',#121,#122,#88,.T.);
#148=EDGE_CURVE('',#122,#122,#29,.F.);
#149=EDGE_CURVE('',#108,#112,#89,.T.);
#150=ORIENTED_EDGE('',*,*,#123,.F.);
#151=ORIENTED_EDGE('',*,*,#124,.F.);
#152=ORIENTED_EDGE('',*,*,#125,.F.);
#153=ORIENTED_EDGE('',*,*,#126,.F.);
#154=ORIENTED_EDGE('',*,*,#124,.T.);
#155=ORIENTED_EDGE('',*,*,#127,.T.);
#156=ORIENTED_EDGE('',*,*,#128,.T.);
#157=ORIENTED_EDGE('',*,*,#129,.F.);
#158=ORIENTED_EDGE('',*,*,#123,.T.);
#159=ORIENTED_EDGE('',*,*,#130,.F.);
#160=ORIENTED_EDGE('',*,*,#131,.T.);
#161=ORIENTED_EDGE('',*,*,#127,.F.);
#162=ORIENTED_EDGE('',*,*,#128,.F.);
#163=ORIENTED_EDGE('',*,*,#131,.F.);
#164=ORIENTED_EDGE('',*,*,#132,.F.);
#165=ORIENTED_EDGE('',*,*,#133,.F.);
#166=ORIENTED_EDGE('',*,*,#134,.F.);
#167=ORIENTED_EDGE('',*,*,#135,.T.);
#168=ORIENTED_EDGE('',*,*,#136,.T.);
#169=ORIENTED_EDGE('',*,*,#135,.F.);
#170=ORIENTED_EDGE('',*,*,#136,.F.);
#171=ORIENTED_EDGE('',*,*,#137,.F.);
#172=ORIENTED_EDGE('',*,*,#138,.T.);
#173=ORIENTED_EDGE('',*,*,#139,.T.);
#174=ORIENTED_EDGE('',*,*,#138,.F.);
#175=ORIENTED_EDGE('',*,*,#139,.F.);
#176=ORIENTED_EDGE('',*,*,#140,.F.);
#177=ORIENTED_EDGE('',*,*,#141,.T.);
#178=ORIENTED_EDGE('',*,*,#142,.T.);
#179=ORIENTED_EDGE('',*,*,#141,.F.);
#180=ORIENTED_EDGE('',*,*,#142,.F.);
#181=ORIENTED_EDGE('',*,*,#143,.F.);
#182=ORIENTED_EDGE('',*,*,#144,.T.);
#183=ORIENTED_EDGE('',*,*,#145,.T.);
#184=ORIENTED_EDGE('',*,*,#144,.F.);
#185=ORIENTED_EDGE('',*,*,#145,.F.);
#186=ORIENTED_EDGE('',*,*,#146,.F.);
#187=ORIENTED_EDGE('',*,*,#147,.T.);
#188=ORIENTED_EDGE('',*,*,#148,.T.);
#189=ORIENTED_EDGE('',*,*,#147,.F.);
#190=ORIENTED_EDGE('',*,*,#148,.F.);
#191=ORIENTED_EDGE('',*,*,#125,.T.);
#192=ORIENTED_EDGE('',*,*,#129,.T.);
#193=ORIENTED_EDGE('',*,*,#133,.T.);
#194=ORIENTED_EDGE('',*,*,#149,.F.);
#195=ORIENTED_EDGE('',*,*,#126,.T.);
#196=ORIENTED_EDGE('',*,*,#149,.T.);
#197=ORIENTED_EDGE('',*,*,#132,.T.);
#198=ORIENTED_EDGE('',*,*,#130,.T.);
#199=ORIENTED_EDGE('',*,*,#134,.T.);
#200=ORIENTED_EDGE('',*,*,#137,.T.);
#201=ORIENTED_EDGE('',*,*,#140,.T.);
#202=ORIENTED_EDGE('',*,*,#143,.T.);
#203=ORIENTED_EDGE('',*,*,#146,.T.);
#204=PLANE('',#244);
#205=PLANE('',#245);
#206=PLANE('',#246);
#207=PLANE('',#250);
#208=PLANE('',#254);
#209=PLANE('',#258);
#210=PLANE('',#262);
#211=PLANE('',#266);
#212=PLANE('',#267);
#213=PLANE('',#268);
#214=ADVANCED_FACE('',(#36),#204,.F.);
#215=ADVANCED_FACE('',(#37),#35,.T.);
#216=ADVANCED_FACE('',(#38),#205,.F.);
#217=ADVANCED_FACE('',(#39),#206,.T.);
#218=ADVANCED_FACE('',(#40),#30,.F.);
#219=ADVANCED_FACE('',(#41),#207,.F.);
#220=ADVANCED_FACE('',(#42),#31,.F.);
#221=ADVANCED_FACE('',(#43),#208,.F.);
#222=ADVANCED_FACE('',(#44),#32,.F.);
#223=ADVANCED_FACE('',(#45),#209,.F.);
#224=ADVANCED_FACE('',(#46),#33,.F.);
#225=ADVANCED_FACE('',(#47),#210,.F.);
#226=ADVANCED_FACE('',(#48),#34,.F.);
#227=ADVANCED_FACE('',(#49),#211,.F.);
#228=ADVANCED_FACE('',(#50),#212,.T.);
#229=ADVANCED_FACE('',(#51,#15,#16,#17,#18,#19),#213,.T.);
#230=CLOSED_SHELL('',(#214,#215,#216,#217,#218,#219,#220,#221,#222,#223,
#224,#225,#226,#227,#228,#229));
#231=DERIVED_UNIT_ELEMENT(#233,1.);
#232=DERIVED_UNIT_ELEMENT(#423,-3.);
#233=(
MASS_UNIT()
NAMED_UNIT(*)
SI_UNIT(.KILO.,.GRAM.)
);
#234=DERIVED_UNIT((#231,#232));
#235=MEASURE_REPRESENTATION_ITEM('density measure',
POSITIVE_RATIO_MEASURE(7850.),#234);
#236=PROPERTY_DEFINITION_REPRESENTATION(#241,#238);
#237=PROPERTY_DEFINITION_REPRESENTATION(#242,#239);
#238=REPRESENTATION('material name',(#240),#421);
#239=REPRESENTATION('density',(#235),#421);
#240=DESCRIPTIVE_REPRESENTATION_ITEM('Stahl','Stahl');
#241=PROPERTY_DEFINITION('material property','material name',#430);
#242=PROPERTY_DEFINITION('material property','density of part',#430);
#243=AXIS2_PLACEMENT_3D('',#336,#269,#270);
#244=AXIS2_PLACEMENT_3D('',#337,#271,#272);
#245=AXIS2_PLACEMENT_3D('',#373,#278,#279);
#246=AXIS2_PLACEMENT_3D('',#377,#282,#283);
#247=AXIS2_PLACEMENT_3D('',#381,#286,#287);
#248=AXIS2_PLACEMENT_3D('',#383,#288,#289);
#249=AXIS2_PLACEMENT_3D('',#386,#291,#292);
#250=AXIS2_PLACEMENT_3D('',#387,#293,#294);
#251=AXIS2_PLACEMENT_3D('',#388,#295,#296);
#252=AXIS2_PLACEMENT_3D('',#390,#297,#298);
#253=AXIS2_PLACEMENT_3D('',#393,#300,#301);
#254=AXIS2_PLACEMENT_3D('',#394,#302,#303);
#255=AXIS2_PLACEMENT_3D('',#395,#304,#305);
#256=AXIS2_PLACEMENT_3D('',#397,#306,#307);
#257=AXIS2_PLACEMENT_3D('',#400,#309,#310);
#258=AXIS2_PLACEMENT_3D('',#401,#311,#312);
#259=AXIS2_PLACEMENT_3D('',#402,#313,#314);
#260=AXIS2_PLACEMENT_3D('',#404,#315,#316);
#261=AXIS2_PLACEMENT_3D('',#407,#318,#319);
#262=AXIS2_PLACEMENT_3D('',#408,#320,#321);
#263=AXIS2_PLACEMENT_3D('',#409,#322,#323);
#264=AXIS2_PLACEMENT_3D('',#411,#324,#325);
#265=AXIS2_PLACEMENT_3D('',#414,#327,#328);
#266=AXIS2_PLACEMENT_3D('',#415,#329,#330);
#267=AXIS2_PLACEMENT_3D('',#416,#331,#332);
#268=AXIS2_PLACEMENT_3D('',#418,#334,#335);
#269=DIRECTION('axis',(0.,0.,1.));
#270=DIRECTION('refdir',(1.,0.,0.));
#271=DIRECTION('center_axis',(-0.5,-0.866025403784439,0.));
#272=DIRECTION('ref_axis',(0.866025403784439,-0.5,0.));
#273=DIRECTION('',(0.,0.,1.));
#274=DIRECTION('',(0.,0.,-1.));
#275=DIRECTION('',(-0.866025403784439,0.5,0.));
#276=DIRECTION('',(-0.5,-0.866025403784439,0.));
#277=DIRECTION('',(-0.5,-0.866025403784439,0.));
#278=DIRECTION('center_axis',(-0.866025403784439,0.5,0.));
#279=DIRECTION('ref_axis',(-0.5,-0.866025403784439,0.));
#280=DIRECTION('',(0.5,0.866025403784439,0.));
#281=DIRECTION('',(0.,0.,-1.));
#282=DIRECTION('center_axis',(-0.5,-0.866025403784439,0.));
#283=DIRECTION('ref_axis',(0.866025403784439,-0.5,0.));
#284=DIRECTION('',(0.866025403784439,-0.5,0.));
#285=DIRECTION('',(0.,0.,1.));
#286=DIRECTION('center_axis',(2.46519032881566E-32,0.,-1.));
#287=DIRECTION('ref_axis',(1.,0.,2.46519032881566E-32));
#288=DIRECTION('center_axis',(0.,0.,-1.));
#289=DIRECTION('ref_axis',(1.,0.,2.46519032881566E-32));
#290=DIRECTION('',(2.46519032881566E-32,0.,-1.));
#291=DIRECTION('center_axis',(-2.46519032881566E-32,0.,1.));
#292=DIRECTION('ref_axis',(1.,0.,2.46519032881566E-32));
#293=DIRECTION('center_axis',(2.46519032881566E-32,0.,-1.));
#294=DIRECTION('ref_axis',(1.,0.,2.46519032881566E-32));
#295=DIRECTION('center_axis',(2.46519032881566E-32,0.,-1.));
#296=DIRECTION('ref_axis',(1.,0.,2.46519032881566E-32));
#297=DIRECTION('center_axis',(0.,0.,-1.));
#298=DIRECTION('ref_axis',(1.,0.,2.46519032881566E-32));
#299=DIRECTION('',(2.46519032881566E-32,0.,-1.));
#300=DIRECTION('center_axis',(-2.46519032881566E-32,0.,1.));
#301=DIRECTION('ref_axis',(1.,0.,2.46519032881566E-32));
#302=DIRECTION('center_axis',(2.46519032881566E-32,0.,-1.));
#303=DIRECTION('ref_axis',(1.,0.,2.46519032881566E-32));
#304=DIRECTION('center_axis',(2.46519032881566E-32,0.,-1.));
#305=DIRECTION('ref_axis',(1.,0.,2.46519032881566E-32));
#306=DIRECTION('center_axis',(0.,0.,-1.));
#307=DIRECTION('ref_axis',(1.,0.,2.46519032881566E-32));
#308=DIRECTION('',(2.46519032881566E-32,0.,-1.));
#309=DIRECTION('center_axis',(-2.46519032881566E-32,0.,1.));
#310=DIRECTION('ref_axis',(1.,0.,2.46519032881566E-32));
#311=DIRECTION('center_axis',(2.46519032881566E-32,0.,-1.));
#312=DIRECTION('ref_axis',(1.,0.,2.46519032881566E-32));
#313=DIRECTION('center_axis',(2.46519032881566E-32,0.,-1.));
#314=DIRECTION('ref_axis',(1.,0.,2.46519032881566E-32));
#315=DIRECTION('center_axis',(0.,0.,-1.));
#316=DIRECTION('ref_axis',(1.,0.,2.46519032881566E-32));
#317=DIRECTION('',(2.46519032881566E-32,0.,-1.));
#318=DIRECTION('center_axis',(-2.46519032881566E-32,0.,1.));
#319=DIRECTION('ref_axis',(1.,0.,2.46519032881566E-32));
#320=DIRECTION('center_axis',(2.46519032881566E-32,0.,-1.));
#321=DIRECTION('ref_axis',(1.,0.,2.46519032881566E-32));
#322=DIRECTION('center_axis',(2.46519032881566E-32,0.,-1.));
#323=DIRECTION('ref_axis',(1.,0.,2.46519032881566E-32));
#324=DIRECTION('center_axis',(0.,0.,-1.));
#325=DIRECTION('ref_axis',(1.,0.,2.46519032881566E-32));
#326=DIRECTION('',(2.46519032881566E-32,0.,-1.));
#327=DIRECTION('center_axis',(-2.46519032881566E-32,0.,1.));
#328=DIRECTION('ref_axis',(1.,0.,2.46519032881566E-32));
#329=DIRECTION('center_axis',(2.46519032881566E-32,0.,-1.));
#330=DIRECTION('ref_axis',(1.,0.,2.46519032881566E-32));
#331=DIRECTION('center_axis',(-0.866025403784439,0.5,0.));
#332=DIRECTION('ref_axis',(-0.5,-0.866025403784439,0.));
#333=DIRECTION('',(-0.5,-0.866025403784439,0.));
#334=DIRECTION('center_axis',(0.,0.,1.));
#335=DIRECTION('ref_axis',(1.,0.,0.));
#336=CARTESIAN_POINT('',(0.,0.,0.));
#337=CARTESIAN_POINT('Origin',(-0.0148737575679987,-0.355509618943233,0.322831200827231));
#338=CARTESIAN_POINT('',(-0.1595,-0.272009618943233,-0.051237719843729));
#339=CARTESIAN_POINT('',(-0.1595,-0.272009618943233,0.013));
#340=CARTESIAN_POINT('',(-0.1595,-0.272009618943233,0.148606170452683));
#341=CARTESIAN_POINT('',(-0.3425,-0.166354519681532,1.77635683940025E-17));
#342=CARTESIAN_POINT('Ctrl Pts',(-0.3425,-0.166354519681532,-4.44089209850063E-16));
#343=CARTESIAN_POINT('Ctrl Pts',(-0.314506290024177,-0.182516695671689,
-0.0117381223424831));
#344=CARTESIAN_POINT('Ctrl Pts',(-0.284982423095194,-0.199562308190656,
-0.0219682232495551));
#345=CARTESIAN_POINT('Ctrl Pts',(-0.254340024090193,-0.217253705504809,
-0.0305477131706371));
#346=CARTESIAN_POINT('Ctrl Pts',(-0.223697625085192,-0.234945102818963,
-0.0391272030917192));
#347=CARTESIAN_POINT('Ctrl Pts',(-0.191936694004172,-0.253282284928303,
-0.0460560820268114));
#348=CARTESIAN_POINT('Ctrl Pts',(-0.1595,-0.272009618943233,-0.0512377198437294));
#349=CARTESIAN_POINT('',(-0.3425,-0.166354519681532,0.013));
#350=CARTESIAN_POINT('',(-0.3425,-0.166354519681532,0.161415600413616));
#351=CARTESIAN_POINT('',(-0.132936878783999,-0.287345844127808,0.013));
#352=CARTESIAN_POINT('Ctrl Pts',(-0.341,-0.163756443470179,-4.44089209850063E-16));
#353=CARTESIAN_POINT('Ctrl Pts',(-0.3518,-0.182462592191922,-4.44089209850063E-16));
#354=CARTESIAN_POINT('Ctrl Pts',(-0.313006290024177,-0.179918619460336,
-0.0117381223424831));
#355=CARTESIAN_POINT('Ctrl Pts',(-0.323806290024177,-0.198624768182079,
-0.0117381223424831));
#356=CARTESIAN_POINT('Ctrl Pts',(-0.253958556166212,-0.21400984449827,-0.0321983241566271));
#357=CARTESIAN_POINT('Ctrl Pts',(-0.264758556166212,-0.232715993220013,
-0.0321983241566271));
#358=CARTESIAN_POINT('Ctrl Pts',(-0.190436694004172,-0.25068420871695,-0.0460560820268114));
#359=CARTESIAN_POINT('Ctrl Pts',(-0.201236694004172,-0.269390357438693,
-0.0460560820268114));
#360=CARTESIAN_POINT('Ctrl Pts',(-0.158,-0.26941154273188,-0.0512377198437294));
#361=CARTESIAN_POINT('Ctrl Pts',(-0.1688,-0.288117691453623,-0.0512377198437294));
#362=CARTESIAN_POINT('',(-0.1655,-0.282401923788647,-0.051237719843729));
#363=CARTESIAN_POINT('',(-0.158,-0.26941154273188,-0.051237719843729));
#364=CARTESIAN_POINT('',(-0.3485,-0.176746824526946,0.));
#365=CARTESIAN_POINT('Ctrl Pts',(-0.1655,-0.282401923788647,-0.0512377198437294));
#366=CARTESIAN_POINT('Ctrl Pts',(-0.197936694004172,-0.263674589773716,
-0.0460560820268114));
#367=CARTESIAN_POINT('Ctrl Pts',(-0.229697625085193,-0.245337407664377,
-0.0391272030917192));
#368=CARTESIAN_POINT('Ctrl Pts',(-0.260340024090194,-0.227646010350223,
-0.0305477131706371));
#369=CARTESIAN_POINT('Ctrl Pts',(-0.290982423095195,-0.209954613036069,
-0.0219682232495551));
#370=CARTESIAN_POINT('Ctrl Pts',(-0.320506290024177,-0.192909000517103,
-0.0117381223424831));
#371=CARTESIAN_POINT('Ctrl Pts',(-0.3485,-0.176746824526946,-4.44089209850063E-16));
#372=CARTESIAN_POINT('',(-0.341,-0.163756443470179,0.));
#373=CARTESIAN_POINT('Origin',(-0.158,-0.26941154273188,-0.0256188599218645));
#374=CARTESIAN_POINT('',(-0.1655,-0.282401923788647,0.013));
#375=CARTESIAN_POINT('',(-0.158,-0.26941154273188,0.013));
#376=CARTESIAN_POINT('',(-0.1655,-0.282401923788647,0.148606170452683));
#377=CARTESIAN_POINT('Origin',(-0.0208737575679986,-0.365901923788647,0.322831200827231));
#378=CARTESIAN_POINT('',(-0.3485,-0.176746824526946,0.013));
#379=CARTESIAN_POINT('',(-0.138936878783999,-0.297738148973221,0.013));
#380=CARTESIAN_POINT('',(-0.3485,-0.176746824526945,0.161415600413616));
#381=CARTESIAN_POINT('Origin',(-0.215356813289844,-0.246688875984543,0.000500000000000005));
#382=CARTESIAN_POINT('',(-0.217473813289844,-0.246688875984543,0.013));
#383=CARTESIAN_POINT('Origin',(-0.215356813289844,-0.246688875984543,0.013));
#384=CARTESIAN_POINT('',(-0.217473813289844,-0.246688875984543,-0.012));
#385=CARTESIAN_POINT('',(-0.217473813289844,-0.246688875984543,0.000500000000000005));
#386=CARTESIAN_POINT('Origin',(-0.215356813289844,-0.246688875984543,-0.012));
#387=CARTESIAN_POINT('Origin',(-0.215356813289844,-0.246688875984543,-0.012));
#388=CARTESIAN_POINT('Origin',(-0.293299099630443,-0.201688875984543,0.000500000000000005));
#389=CARTESIAN_POINT('',(-0.295416099630443,-0.201688875984543,0.013));
#390=CARTESIAN_POINT('Origin',(-0.293299099630443,-0.201688875984543,0.013));
#391=CARTESIAN_POINT('',(-0.295416099630443,-0.201688875984543,-0.012));
#392=CARTESIAN_POINT('',(-0.295416099630443,-0.201688875984543,0.000500000000000005));
#393=CARTESIAN_POINT('Origin',(-0.293299099630443,-0.201688875984543,-0.012));
#394=CARTESIAN_POINT('Origin',(-0.293299099630443,-0.201688875984543,-0.012));
#395=CARTESIAN_POINT('Origin',(-0.254327956460143,-0.224188875984543,0.000500000000000005));
#396=CARTESIAN_POINT('',(-0.256444956460143,-0.224188875984543,0.013));
#397=CARTESIAN_POINT('Origin',(-0.254327956460143,-0.224188875984543,0.013));
#398=CARTESIAN_POINT('',(-0.256444956460143,-0.224188875984543,-0.012));
#399=CARTESIAN_POINT('',(-0.256444956460143,-0.224188875984543,0.000500000000000005));
#400=CARTESIAN_POINT('Origin',(-0.254327956460143,-0.224188875984543,-0.012));
#401=CARTESIAN_POINT('Origin',(-0.254327956460143,-0.224188875984543,-0.012));
#402=CARTESIAN_POINT('Origin',(-0.176385670119544,-0.269188875984543,0.000500000000000005));
#403=CARTESIAN_POINT('',(-0.178502670119544,-0.269188875984543,0.013));
#404=CARTESIAN_POINT('Origin',(-0.176385670119544,-0.269188875984543,0.013));
#405=CARTESIAN_POINT('',(-0.178502670119544,-0.269188875984543,-0.012));
#406=CARTESIAN_POINT('',(-0.178502670119544,-0.269188875984543,0.000500000000000005));
#407=CARTESIAN_POINT('Origin',(-0.176385670119544,-0.269188875984543,-0.012));
#408=CARTESIAN_POINT('Origin',(-0.176385670119544,-0.269188875984543,-0.012));
#409=CARTESIAN_POINT('Origin',(-0.332270242800743,-0.179188875984543,0.00800000000000001));
#410=CARTESIAN_POINT('',(-0.334387242800743,-0.179188875984543,0.013));
#411=CARTESIAN_POINT('Origin',(-0.332270242800743,-0.179188875984543,0.013));
#412=CARTESIAN_POINT('',(-0.334387242800743,-0.179188875984543,0.003));
#413=CARTESIAN_POINT('',(-0.334387242800743,-0.179188875984543,0.00800000000000001));
#414=CARTESIAN_POINT('Origin',(-0.332270242800743,-0.179188875984543,0.003));
#415=CARTESIAN_POINT('Origin',(-0.332270242800743,-0.179188875984543,0.003));
#416=CARTESIAN_POINT('Origin',(-0.341,-0.163756443470179,0.));
#417=CARTESIAN_POINT('',(-0.341,-0.163756443470179,0.013));
#418=CARTESIAN_POINT('Origin',(-0.2495,-0.216583993101029,0.013));
#419=UNCERTAINTY_MEASURE_WITH_UNIT(LENGTH_MEASURE(1.E-5),#423,
'DISTANCE_ACCURACY_VALUE',
'Maximum model space distance between geometric entities at asserted c
onnectivities');
#420=UNCERTAINTY_MEASURE_WITH_UNIT(LENGTH_MEASURE(1.E-5),#423,
'DISTANCE_ACCURACY_VALUE',
'Maximum model space distance between geometric entities at asserted c
onnectivities');
#421=(
GEOMETRIC_REPRESENTATION_CONTEXT(3)
GLOBAL_UNCERTAINTY_ASSIGNED_CONTEXT((#419))
GLOBAL_UNIT_ASSIGNED_CONTEXT((#423,#424,#425))
REPRESENTATION_CONTEXT('','3D')
);
#422=(
GEOMETRIC_REPRESENTATION_CONTEXT(3)
GLOBAL_UNCERTAINTY_ASSIGNED_CONTEXT((#420))
GLOBAL_UNIT_ASSIGNED_CONTEXT((#423,#424,#425))
REPRESENTATION_CONTEXT('','3D')
);
#423=(
LENGTH_UNIT()
NAMED_UNIT(*)
SI_UNIT($,.METRE.)
);
#424=(
NAMED_UNIT(*)
PLANE_ANGLE_UNIT()
SI_UNIT($,.RADIAN.)
);
#425=(
NAMED_UNIT(*)
SI_UNIT($,.STERADIAN.)
SOLID_ANGLE_UNIT()
);
#426=SHAPE_DEFINITION_REPRESENTATION(#427,#428);
#427=PRODUCT_DEFINITION_SHAPE('',$,#430);
#428=SHAPE_REPRESENTATION('',(#243),#421);
#429=PRODUCT_DEFINITION_CONTEXT('part definition',#434,'design');
#430=PRODUCT_DEFINITION('Kreissegment 50Grad',
'Kreissegment 50Grad_neu v8',#431,#429);
#431=PRODUCT_DEFINITION_FORMATION('',$,#436);
#432=PRODUCT_RELATED_PRODUCT_CATEGORY('Kreissegment 50Grad_neu v8',
'Kreissegment 50Grad_neu v8',(#436));
#433=APPLICATION_PROTOCOL_DEFINITION('international standard',
'automotive_design',2009,#434);
#434=APPLICATION_CONTEXT(
'Core Data for Automotive Mechanical Design Process');
#435=PRODUCT_CONTEXT('part definition',#434,'mechanical');
#436=PRODUCT('Kreissegment 50Grad','Kreissegment 50Grad_neu v8',
'STEP AP242',(#435));
#437=PRESENTATION_STYLE_ASSIGNMENT((#439));
#438=PRESENTATION_STYLE_ASSIGNMENT((#440));
#439=SURFACE_STYLE_USAGE(.BOTH.,#441);
#440=SURFACE_STYLE_USAGE(.BOTH.,#442);
#441=SURFACE_SIDE_STYLE('',(#443));
#442=SURFACE_SIDE_STYLE('',(#444));
#443=SURFACE_STYLE_FILL_AREA(#445);
#444=SURFACE_STYLE_FILL_AREA(#446);
#445=FILL_AREA_STYLE('Stahl - satiniert',(#447));
#446=FILL_AREA_STYLE('Opaque(59,97,180)',(#448));
#447=FILL_AREA_STYLE_COLOUR('Stahl - satiniert',#449);
#448=FILL_AREA_STYLE_COLOUR('Opaque(59,97,180)',#450);
#449=COLOUR_RGB('Stahl - satiniert',0.627450980392157,0.627450980392157,
0.627450980392157);
#450=COLOUR_RGB('Opaque(59,97,180)',0.231372549019608,0.380392156862745,
0.705882352941177);
ENDSEC;
END-ISO-10303-21;
