ISO-10303-21;
HEADER;
/* Generated by software containing ST-Developer
 * from STEP Tools, Inc. (www.steptools.com) 
 */

FILE_DESCRIPTION(
/* description */ (''),
/* implementation_level */ '2;1');

FILE_NAME(
/* name */ 'Segment_48.step',
/* time_stamp */ '2026-07-29T01:18:16+02:00',
/* author */ (''),
/* organization */ (''),
/* preprocessor_version */ 'ST-DEVELOPER v20.1',
/* originating_system */ 'Autodesk Translation Framework v15.8.0.0',
/* authorisation */ '');

FILE_SCHEMA (('AUTOMOTIVE_DESIGN { 1 0 10303 214 3 1 1 }'));
ENDSEC;

DATA;
#10=MECHANICAL_DESIGN_GEOMETRIC_PRESENTATION_REPRESENTATION('',(#17),#426);
#11=ITEM_DEFINED_TRANSFORMATION($,$,#248,#276);
#12=(
REPRESENTATION_RELATIONSHIP($,$,#437,#436)
REPRESENTATION_RELATIONSHIP_WITH_TRANSFORMATION(#11)
SHAPE_REPRESENTATION_RELATIONSHIP()
);
#13=CONTEXT_DEPENDENT_SHAPE_REPRESENTATION(#12,#435);
#14=NEXT_ASSEMBLY_USAGE_OCCURRENCE('VNS Segmentkontur:1',
'VNS Segmentkontur:1','VNS Segmentkontur:1',#439,#440,
'VNS Segmentkontur:1');
#15=SHAPE_REPRESENTATION_RELATIONSHIP('SRR','None',#437,#16);
#16=ADVANCED_BREP_SHAPE_REPRESENTATION('',(#18),#425);
#17=STYLED_ITEM('',(#450),#18);
#18=MANIFOLD_SOLID_BREP('Body1',#234);
#19=ELLIPSE('',#272,648.090688272354,375.558251516792);
#20=ELLIPSE('',#273,648.090688272354,375.558251516792);
#21=(
BOUNDED_SURFACE()
B_SPLINE_SURFACE(1,2,((#410,#411,#412),(#413,#414,#415)),.UNSPECIFIED.,
 .F.,.F.,.F.)
B_SPLINE_SURFACE_WITH_KNOTS((2,2),(3,3),(0.,0.0185159271952957),(-1.25711489767853,
-0.837280204714667),.UNSPECIFIED.)
GEOMETRIC_REPRESENTATION_ITEM()
RATIONAL_B_SPLINE_SURFACE(((1.,0.978048141327467,1.),(1.,0.978048141327467,
1.)))
REPRESENTATION_ITEM('')
SURFACE()
);
#22=FACE_BOUND('',#65,.T.);
#23=FACE_BOUND('',#66,.T.);
#24=FACE_BOUND('',#67,.T.);
#25=FACE_BOUND('',#68,.T.);
#26=FACE_BOUND('',#69,.T.);
#27=PLANE('',#252);
#28=PLANE('',#256);
#29=PLANE('',#260);
#30=PLANE('',#264);
#31=PLANE('',#268);
#32=PLANE('',#269);
#33=PLANE('',#270);
#34=PLANE('',#271);
#35=PLANE('',#274);
#36=PLANE('',#275);
#37=FACE_OUTER_BOUND('',#53,.T.);
#38=FACE_OUTER_BOUND('',#54,.T.);
#39=FACE_OUTER_BOUND('',#55,.T.);
#40=FACE_OUTER_BOUND('',#56,.T.);
#41=FACE_OUTER_BOUND('',#57,.T.);
#42=FACE_OUTER_BOUND('',#58,.T.);
#43=FACE_OUTER_BOUND('',#59,.T.);
#44=FACE_OUTER_BOUND('',#60,.T.);
#45=FACE_OUTER_BOUND('',#61,.T.);
#46=FACE_OUTER_BOUND('',#62,.T.);
#47=FACE_OUTER_BOUND('',#63,.T.);
#48=FACE_OUTER_BOUND('',#64,.T.);
#49=FACE_OUTER_BOUND('',#70,.T.);
#50=FACE_OUTER_BOUND('',#71,.T.);
#51=FACE_OUTER_BOUND('',#72,.T.);
#52=FACE_OUTER_BOUND('',#73,.T.);
#53=EDGE_LOOP('',(#159,#160,#161,#162));
#54=EDGE_LOOP('',(#163));
#55=EDGE_LOOP('',(#164,#165,#166,#167));
#56=EDGE_LOOP('',(#168));
#57=EDGE_LOOP('',(#169,#170,#171,#172));
#58=EDGE_LOOP('',(#173));
#59=EDGE_LOOP('',(#174,#175,#176,#177));
#60=EDGE_LOOP('',(#178));
#61=EDGE_LOOP('',(#179,#180,#181,#182));
#62=EDGE_LOOP('',(#183));
#63=EDGE_LOOP('',(#184,#185,#186,#187));
#64=EDGE_LOOP('',(#188,#189,#190,#191));
#65=EDGE_LOOP('',(#192));
#66=EDGE_LOOP('',(#193));
#67=EDGE_LOOP('',(#194));
#68=EDGE_LOOP('',(#195));
#69=EDGE_LOOP('',(#196));
#70=EDGE_LOOP('',(#197,#198,#199,#200));
#71=EDGE_LOOP('',(#201,#202,#203,#204));
#72=EDGE_LOOP('',(#205,#206,#207,#208));
#73=EDGE_LOOP('',(#209,#210,#211,#212));
#74=LINE('',#358,#89);
#75=LINE('',#365,#90);
#76=LINE('',#372,#91);
#77=LINE('',#379,#92);
#78=LINE('',#386,#93);
#79=LINE('',#392,#94);
#80=LINE('',#394,#95);
#81=LINE('',#396,#96);
#82=LINE('',#397,#97);
#83=LINE('',#400,#98);
#84=LINE('',#402,#99);
#85=LINE('',#403,#100);
#86=LINE('',#406,#101);
#87=LINE('',#408,#102);
#88=LINE('',#409,#103);
#89=VECTOR('',#285,2.117);
#90=VECTOR('',#294,2.117);
#91=VECTOR('',#303,2.117);
#92=VECTOR('',#312,2.117);
#93=VECTOR('',#321,2.117);
#94=VECTOR('',#328,10.);
#95=VECTOR('',#329,10.);
#96=VECTOR('',#330,10.);
#97=VECTOR('',#331,10.);
#98=VECTOR('',#334,10.);
#99=VECTOR('',#335,10.);
#100=VECTOR('',#336,10.);
#101=VECTOR('',#339,10.);
#102=VECTOR('',#340,10.);
#103=VECTOR('',#341,10.);
#104=CIRCLE('',#250,2.117);
#105=CIRCLE('',#251,2.117);
#106=CIRCLE('',#254,2.117);
#107=CIRCLE('',#255,2.117);
#108=CIRCLE('',#258,2.117);
#109=CIRCLE('',#259,2.117);
#110=CIRCLE('',#262,2.117);
#111=CIRCLE('',#263,2.117);
#112=CIRCLE('',#266,2.117);
#113=CIRCLE('',#267,2.117);
#114=VERTEX_POINT('',#355);
#115=VERTEX_POINT('',#357);
#116=VERTEX_POINT('',#362);
#117=VERTEX_POINT('',#364);
#118=VERTEX_POINT('',#369);
#119=VERTEX_POINT('',#371);
#120=VERTEX_POINT('',#376);
#121=VERTEX_POINT('',#378);
#122=VERTEX_POINT('',#383);
#123=VERTEX_POINT('',#385);
#124=VERTEX_POINT('',#390);
#125=VERTEX_POINT('',#391);
#126=VERTEX_POINT('',#393);
#127=VERTEX_POINT('',#395);
#128=VERTEX_POINT('',#399);
#129=VERTEX_POINT('',#401);
#130=VERTEX_POINT('',#405);
#131=VERTEX_POINT('',#407);
#132=EDGE_CURVE('',#114,#114,#104,.T.);
#133=EDGE_CURVE('',#114,#115,#74,.T.);
#134=EDGE_CURVE('',#115,#115,#105,.T.);
#135=EDGE_CURVE('',#116,#116,#106,.T.);
#136=EDGE_CURVE('',#116,#117,#75,.T.);
#137=EDGE_CURVE('',#117,#117,#107,.T.);
#138=EDGE_CURVE('',#118,#118,#108,.T.);
#139=EDGE_CURVE('',#118,#119,#76,.T.);
#140=EDGE_CURVE('',#119,#119,#109,.T.);
#141=EDGE_CURVE('',#120,#120,#110,.T.);
#142=EDGE_CURVE('',#120,#121,#77,.T.);
#143=EDGE_CURVE('',#121,#121,#111,.T.);
#144=EDGE_CURVE('',#122,#122,#112,.T.);
#145=EDGE_CURVE('',#122,#123,#78,.T.);
#146=EDGE_CURVE('',#123,#123,#113,.T.);
#147=EDGE_CURVE('',#124,#125,#79,.T.);
#148=EDGE_CURVE('',#124,#126,#80,.T.);
#149=EDGE_CURVE('',#127,#126,#81,.T.);
#150=EDGE_CURVE('',#125,#127,#82,.T.);
#151=EDGE_CURVE('',#128,#125,#83,.T.);
#152=EDGE_CURVE('',#129,#127,#84,.T.);
#153=EDGE_CURVE('',#128,#129,#85,.T.);
#154=EDGE_CURVE('',#130,#128,#86,.T.);
#155=EDGE_CURVE('',#131,#129,#87,.T.);
#156=EDGE_CURVE('',#130,#131,#88,.T.);
#157=EDGE_CURVE('',#124,#130,#19,.T.);
#158=EDGE_CURVE('',#126,#131,#20,.T.);
#159=ORIENTED_EDGE('',*,*,#132,.F.);
#160=ORIENTED_EDGE('',*,*,#133,.T.);
#161=ORIENTED_EDGE('',*,*,#134,.T.);
#162=ORIENTED_EDGE('',*,*,#133,.F.);
#163=ORIENTED_EDGE('',*,*,#134,.F.);
#164=ORIENTED_EDGE('',*,*,#135,.F.);
#165=ORIENTED_EDGE('',*,*,#136,.T.);
#166=ORIENTED_EDGE('',*,*,#137,.T.);
#167=ORIENTED_EDGE('',*,*,#136,.F.);
#168=ORIENTED_EDGE('',*,*,#137,.F.);
#169=ORIENTED_EDGE('',*,*,#138,.F.);
#170=ORIENTED_EDGE('',*,*,#139,.T.);
#171=ORIENTED_EDGE('',*,*,#140,.T.);
#172=ORIENTED_EDGE('',*,*,#139,.F.);
#173=ORIENTED_EDGE('',*,*,#140,.F.);
#174=ORIENTED_EDGE('',*,*,#141,.F.);
#175=ORIENTED_EDGE('',*,*,#142,.T.);
#176=ORIENTED_EDGE('',*,*,#143,.T.);
#177=ORIENTED_EDGE('',*,*,#142,.F.);
#178=ORIENTED_EDGE('',*,*,#143,.F.);
#179=ORIENTED_EDGE('',*,*,#144,.F.);
#180=ORIENTED_EDGE('',*,*,#145,.T.);
#181=ORIENTED_EDGE('',*,*,#146,.T.);
#182=ORIENTED_EDGE('',*,*,#145,.F.);
#183=ORIENTED_EDGE('',*,*,#146,.F.);
#184=ORIENTED_EDGE('',*,*,#147,.F.);
#185=ORIENTED_EDGE('',*,*,#148,.T.);
#186=ORIENTED_EDGE('',*,*,#149,.F.);
#187=ORIENTED_EDGE('',*,*,#150,.F.);
#188=ORIENTED_EDGE('',*,*,#151,.T.);
#189=ORIENTED_EDGE('',*,*,#150,.T.);
#190=ORIENTED_EDGE('',*,*,#152,.F.);
#191=ORIENTED_EDGE('',*,*,#153,.F.);
#192=ORIENTED_EDGE('',*,*,#144,.T.);
#193=ORIENTED_EDGE('',*,*,#141,.T.);
#194=ORIENTED_EDGE('',*,*,#138,.T.);
#195=ORIENTED_EDGE('',*,*,#135,.T.);
#196=ORIENTED_EDGE('',*,*,#132,.T.);
#197=ORIENTED_EDGE('',*,*,#154,.T.);
#198=ORIENTED_EDGE('',*,*,#153,.T.);
#199=ORIENTED_EDGE('',*,*,#155,.F.);
#200=ORIENTED_EDGE('',*,*,#156,.F.);
#201=ORIENTED_EDGE('',*,*,#157,.T.);
#202=ORIENTED_EDGE('',*,*,#156,.T.);
#203=ORIENTED_EDGE('',*,*,#158,.F.);
#204=ORIENTED_EDGE('',*,*,#148,.F.);
#205=ORIENTED_EDGE('',*,*,#158,.T.);
#206=ORIENTED_EDGE('',*,*,#155,.T.);
#207=ORIENTED_EDGE('',*,*,#152,.T.);
#208=ORIENTED_EDGE('',*,*,#149,.T.);
#209=ORIENTED_EDGE('',*,*,#157,.F.);
#210=ORIENTED_EDGE('',*,*,#147,.T.);
#211=ORIENTED_EDGE('',*,*,#151,.F.);
#212=ORIENTED_EDGE('',*,*,#154,.F.);
#213=CYLINDRICAL_SURFACE('',#249,2.117);
#214=CYLINDRICAL_SURFACE('',#253,2.117);
#215=CYLINDRICAL_SURFACE('',#257,2.117);
#216=CYLINDRICAL_SURFACE('',#261,2.117);
#217=CYLINDRICAL_SURFACE('',#265,2.117);
#218=ADVANCED_FACE('',(#37),#213,.F.);
#219=ADVANCED_FACE('',(#38),#27,.F.);
#220=ADVANCED_FACE('',(#39),#214,.F.);
#221=ADVANCED_FACE('',(#40),#28,.F.);
#222=ADVANCED_FACE('',(#41),#215,.F.);
#223=ADVANCED_FACE('',(#42),#29,.F.);
#224=ADVANCED_FACE('',(#43),#216,.F.);
#225=ADVANCED_FACE('',(#44),#30,.F.);
#226=ADVANCED_FACE('',(#45),#217,.F.);
#227=ADVANCED_FACE('',(#46),#31,.F.);
#228=ADVANCED_FACE('',(#47),#32,.T.);
#229=ADVANCED_FACE('',(#48,#22,#23,#24,#25,#26),#33,.T.);
#230=ADVANCED_FACE('',(#49),#34,.T.);
#231=ADVANCED_FACE('',(#50),#21,.F.);
#232=ADVANCED_FACE('',(#51),#35,.T.);
#233=ADVANCED_FACE('',(#52),#36,.F.);
#234=CLOSED_SHELL('',(#218,#219,#220,#221,#222,#223,#224,#225,#226,#227,
#228,#229,#230,#231,#232,#233));
#235=DERIVED_UNIT_ELEMENT(#237,1.);
#236=DERIVED_UNIT_ELEMENT(#428,-3.);
#237=(
MASS_UNIT()
NAMED_UNIT(*)
SI_UNIT(.KILO.,.GRAM.)
);
#238=DERIVED_UNIT((#235,#236));
#239=MEASURE_REPRESENTATION_ITEM('density measure',
POSITIVE_RATIO_MEASURE(1060.),#238);
#240=PROPERTY_DEFINITION_REPRESENTATION(#245,#242);
#241=PROPERTY_DEFINITION_REPRESENTATION(#246,#243);
#242=REPRESENTATION('material name',(#244),#425);
#243=REPRESENTATION('density',(#239),#425);
#244=DESCRIPTIVE_REPRESENTATION_ITEM('ABS Plastic','ABS Plastic');
#245=PROPERTY_DEFINITION('material property','material name',#440);
#246=PROPERTY_DEFINITION('material property','density of part',#440);
#247=AXIS2_PLACEMENT_3D('',#352,#277,#278);
#248=AXIS2_PLACEMENT_3D('',#353,#279,#280);
#249=AXIS2_PLACEMENT_3D('',#354,#281,#282);
#250=AXIS2_PLACEMENT_3D('',#356,#283,#284);
#251=AXIS2_PLACEMENT_3D('',#359,#286,#287);
#252=AXIS2_PLACEMENT_3D('',#360,#288,#289);
#253=AXIS2_PLACEMENT_3D('',#361,#290,#291);
#254=AXIS2_PLACEMENT_3D('',#363,#292,#293);
#255=AXIS2_PLACEMENT_3D('',#366,#295,#296);
#256=AXIS2_PLACEMENT_3D('',#367,#297,#298);
#257=AXIS2_PLACEMENT_3D('',#368,#299,#300);
#258=AXIS2_PLACEMENT_3D('',#370,#301,#302);
#259=AXIS2_PLACEMENT_3D('',#373,#304,#305);
#260=AXIS2_PLACEMENT_3D('',#374,#306,#307);
#261=AXIS2_PLACEMENT_3D('',#375,#308,#309);
#262=AXIS2_PLACEMENT_3D('',#377,#310,#311);
#263=AXIS2_PLACEMENT_3D('',#380,#313,#314);
#264=AXIS2_PLACEMENT_3D('',#381,#315,#316);
#265=AXIS2_PLACEMENT_3D('',#382,#317,#318);
#266=AXIS2_PLACEMENT_3D('',#384,#319,#320);
#267=AXIS2_PLACEMENT_3D('',#387,#322,#323);
#268=AXIS2_PLACEMENT_3D('',#388,#324,#325);
#269=AXIS2_PLACEMENT_3D('',#389,#326,#327);
#270=AXIS2_PLACEMENT_3D('',#398,#332,#333);
#271=AXIS2_PLACEMENT_3D('',#404,#337,#338);
#272=AXIS2_PLACEMENT_3D('',#416,#342,#343);
#273=AXIS2_PLACEMENT_3D('',#417,#344,#345);
#274=AXIS2_PLACEMENT_3D('',#418,#346,#347);
#275=AXIS2_PLACEMENT_3D('',#419,#348,#349);
#276=AXIS2_PLACEMENT_3D('',#420,#350,#351);
#277=DIRECTION('axis',(0.,0.,1.));
#278=DIRECTION('refdir',(1.,0.,0.));
#279=DIRECTION('axis',(0.,0.,1.));
#280=DIRECTION('refdir',(1.,0.,0.));
#281=DIRECTION('center_axis',(-4.70837901527464E-15,-1.,0.));
#282=DIRECTION('ref_axis',(0.,0.,1.));
#283=DIRECTION('center_axis',(-6.37909414972692E-15,-1.,0.));
#284=DIRECTION('ref_axis',(0.,0.,1.));
#285=DIRECTION('',(-4.70837901527464E-15,-1.,0.));
#286=DIRECTION('center_axis',(-4.70837901527464E-15,-1.,0.));
#287=DIRECTION('ref_axis',(0.,0.,1.));
#288=DIRECTION('center_axis',(-4.70837901527464E-15,-1.,0.));
#289=DIRECTION('ref_axis',(0.,0.,1.));
#290=DIRECTION('center_axis',(-4.70837901527464E-15,-1.,0.));
#291=DIRECTION('ref_axis',(0.,0.,1.));
#292=DIRECTION('center_axis',(-6.37909414972692E-15,-1.,0.));
#293=DIRECTION('ref_axis',(0.,0.,1.));
#294=DIRECTION('',(-4.70837901527464E-15,-1.,0.));
#295=DIRECTION('center_axis',(-4.70837901527464E-15,-1.,0.));
#296=DIRECTION('ref_axis',(0.,0.,1.));
#297=DIRECTION('center_axis',(-4.70837901527464E-15,-1.,0.));
#298=DIRECTION('ref_axis',(0.,0.,1.));
#299=DIRECTION('center_axis',(-4.70837901527464E-15,-1.,0.));
#300=DIRECTION('ref_axis',(0.,0.,1.));
#301=DIRECTION('center_axis',(-6.37909414972692E-15,-1.,0.));
#302=DIRECTION('ref_axis',(0.,0.,1.));
#303=DIRECTION('',(-4.70837901527464E-15,-1.,0.));
#304=DIRECTION('center_axis',(-4.70837901527464E-15,-1.,0.));
#305=DIRECTION('ref_axis',(0.,0.,1.));
#306=DIRECTION('center_axis',(-4.70837901527464E-15,-1.,0.));
#307=DIRECTION('ref_axis',(0.,0.,1.));
#308=DIRECTION('center_axis',(-4.70837901527464E-15,-1.,0.));
#309=DIRECTION('ref_axis',(0.,0.,1.));
#310=DIRECTION('center_axis',(-6.37909414972692E-15,-1.,0.));
#311=DIRECTION('ref_axis',(0.,0.,1.));
#312=DIRECTION('',(-4.70837901527464E-15,-1.,0.));
#313=DIRECTION('center_axis',(-4.70837901527464E-15,-1.,0.));
#314=DIRECTION('ref_axis',(0.,0.,1.));
#315=DIRECTION('center_axis',(-4.70837901527464E-15,-1.,0.));
#316=DIRECTION('ref_axis',(0.,0.,1.));
#317=DIRECTION('center_axis',(-4.70837901527464E-15,-1.,0.));
#318=DIRECTION('ref_axis',(0.,0.,1.));
#319=DIRECTION('center_axis',(-6.37909414972692E-15,-1.,0.));
#320=DIRECTION('ref_axis',(0.,0.,1.));
#321=DIRECTION('',(-4.70837901527464E-15,-1.,0.));
#322=DIRECTION('center_axis',(-4.70837901527464E-15,-1.,0.));
#323=DIRECTION('ref_axis',(0.,0.,1.));
#324=DIRECTION('center_axis',(-4.70837901527464E-15,-1.,0.));
#325=DIRECTION('ref_axis',(0.,0.,1.));
#326=DIRECTION('center_axis',(-1.,3.51554222685987E-16,0.));
#327=DIRECTION('ref_axis',(-3.51554222685987E-16,-1.,0.));
#328=DIRECTION('',(3.51554222685987E-16,1.,0.));
#329=DIRECTION('',(0.,0.,1.));
#330=DIRECTION('',(-3.51554222685987E-16,-1.,0.));
#331=DIRECTION('',(0.,0.,1.));
#332=DIRECTION('center_axis',(6.37909414972692E-15,1.,0.));
#333=DIRECTION('ref_axis',(-1.,6.37909414972692E-15,0.));
#334=DIRECTION('',(-1.,6.37909414972692E-15,0.));
#335=DIRECTION('',(-1.,6.37909414972692E-15,0.));
#336=DIRECTION('',(0.,0.,1.));
#337=DIRECTION('center_axis',(1.,0.,0.));
#338=DIRECTION('ref_axis',(0.,1.,0.));
#339=DIRECTION('',(0.,1.,0.));
#340=DIRECTION('',(0.,1.,0.));
#341=DIRECTION('',(0.,0.,1.));
#342=DIRECTION('center_axis',(0.,0.,1.));
#343=DIRECTION('ref_axis',(1.,0.,0.));
#344=DIRECTION('center_axis',(0.,0.,1.));
#345=DIRECTION('ref_axis',(1.,0.,0.));
#346=DIRECTION('center_axis',(0.,0.,1.));
#347=DIRECTION('ref_axis',(1.,0.,0.));
#348=DIRECTION('center_axis',(0.,0.,1.));
#349=DIRECTION('ref_axis',(1.,0.,0.));
#350=DIRECTION('',(0.,0.,1.));
#351=DIRECTION('',(1.,0.,0.));
#352=CARTESIAN_POINT('',(0.,0.,0.));
#353=CARTESIAN_POINT('',(0.,0.,0.));
#354=CARTESIAN_POINT('Origin',(348.97648937819,-275.974060359175,6.));
#355=CARTESIAN_POINT('',(348.97648937819,-265.974060359176,3.883));
#356=CARTESIAN_POINT('Origin',(348.97648937819,-265.974060359176,6.));
#357=CARTESIAN_POINT('',(348.97648937819,-285.974060359175,3.883));
#358=CARTESIAN_POINT('',(348.97648937819,-275.974060359175,3.883));
#359=CARTESIAN_POINT('Origin',(348.97648937819,-285.974060359175,6.));
#360=CARTESIAN_POINT('Origin',(348.97648937819,-285.974060359175,6.));
#361=CARTESIAN_POINT('Origin',(258.97648937819,-275.974060359174,6.));
#362=CARTESIAN_POINT('',(258.97648937819,-265.974060359175,3.883));
#363=CARTESIAN_POINT('Origin',(258.97648937819,-265.974060359175,6.));
#364=CARTESIAN_POINT('',(258.97648937819,-285.974060359174,3.883));
#365=CARTESIAN_POINT('',(258.97648937819,-275.974060359174,3.883));
#366=CARTESIAN_POINT('Origin',(258.97648937819,-285.974060359174,6.));
#367=CARTESIAN_POINT('Origin',(258.97648937819,-285.974060359174,6.));
#368=CARTESIAN_POINT('Origin',(213.97648937819,-275.974060359174,6.));
#369=CARTESIAN_POINT('',(213.97648937819,-265.974060359175,3.883));
#370=CARTESIAN_POINT('Origin',(213.97648937819,-265.974060359175,6.));
#371=CARTESIAN_POINT('',(213.97648937819,-285.974060359174,3.883));
#372=CARTESIAN_POINT('',(213.97648937819,-275.974060359174,3.883));
#373=CARTESIAN_POINT('Origin',(213.97648937819,-285.974060359174,6.));
#374=CARTESIAN_POINT('Origin',(213.97648937819,-285.974060359174,6.));
#375=CARTESIAN_POINT('Origin',(303.97648937819,-275.974060359175,6.));
#376=CARTESIAN_POINT('',(303.97648937819,-265.974060359175,3.883));
#377=CARTESIAN_POINT('Origin',(303.97648937819,-265.974060359175,6.));
#378=CARTESIAN_POINT('',(303.97648937819,-285.974060359175,3.883));
#379=CARTESIAN_POINT('',(303.97648937819,-275.974060359175,3.883));
#380=CARTESIAN_POINT('Origin',(303.97648937819,-285.974060359175,6.));
#381=CARTESIAN_POINT('Origin',(303.97648937819,-285.974060359175,6.));
#382=CARTESIAN_POINT('Origin',(393.97648937819,-275.974060359175,6.));
#383=CARTESIAN_POINT('',(393.97648937819,-265.974060359176,3.883));
#384=CARTESIAN_POINT('Origin',(393.97648937819,-265.974060359176,6.));
#385=CARTESIAN_POINT('',(393.97648937819,-285.974060359175,3.883));
#386=CARTESIAN_POINT('',(393.97648937819,-275.974060359175,3.883));
#387=CARTESIAN_POINT('Origin',(393.97648937819,-285.974060359175,6.));
#388=CARTESIAN_POINT('Origin',(393.97648937819,-285.974060359175,6.));
#389=CARTESIAN_POINT('Origin',(199.97648937819,-265.974060359175,0.));
#390=CARTESIAN_POINT('',(199.97648937819,-357.232536325636,0.));
#391=CARTESIAN_POINT('',(199.976489378189,-265.974060359175,0.));
#392=CARTESIAN_POINT('',(199.97648937819,-357.232536325636,0.));
#393=CARTESIAN_POINT('',(199.97648937819,-357.232536325636,12.));
#394=CARTESIAN_POINT('',(199.97648937819,-357.232536325636,0.));
#395=CARTESIAN_POINT('',(199.976489378189,-265.974060359175,12.));
#396=CARTESIAN_POINT('',(199.97648937819,-357.232536325636,12.));
#397=CARTESIAN_POINT('',(199.976489378189,-265.974060359175,0.));
#398=CARTESIAN_POINT('Origin',(433.887403698225,-265.974060359176,0.));
#399=CARTESIAN_POINT('',(433.887403698225,-265.974060359176,0.));
#400=CARTESIAN_POINT('',(433.887403698225,-265.974060359176,0.));
#401=CARTESIAN_POINT('',(433.887403698225,-265.974060359176,12.));
#402=CARTESIAN_POINT('',(433.887403698225,-265.974060359176,12.));
#403=CARTESIAN_POINT('',(433.887403698225,-265.974060359176,0.));
#404=CARTESIAN_POINT('Origin',(433.887403698225,-278.974060359176,0.));
#405=CARTESIAN_POINT('',(433.887403698225,-278.974060359176,0.));
#406=CARTESIAN_POINT('',(433.887403698225,-278.974060359176,0.));
#407=CARTESIAN_POINT('',(433.887403698225,-278.974060359176,12.));
#408=CARTESIAN_POINT('',(433.887403698225,-278.974060359176,12.));
#409=CARTESIAN_POINT('',(433.887403698225,-278.974060359176,0.));
#410=CARTESIAN_POINT('Ctrl Pts',(199.97648937819,-357.232536325636,0.));
#411=CARTESIAN_POINT('Ctrl Pts',(331.318398802295,-332.542921632638,0.));
#412=CARTESIAN_POINT('Ctrl Pts',(433.887403698225,-278.974060359176,0.));
#413=CARTESIAN_POINT('Ctrl Pts',(199.97648937819,-357.232536325636,12.));
#414=CARTESIAN_POINT('Ctrl Pts',(331.318398802295,-332.542921632638,12.));
#415=CARTESIAN_POINT('Ctrl Pts',(433.887403698225,-278.974060359176,12.));
#416=CARTESIAN_POINT('Origin',(0.,0.,0.));
#417=CARTESIAN_POINT('Origin',(0.,0.,12.));
#418=CARTESIAN_POINT('Origin',(316.931946538207,-311.603298342405,12.));
#419=CARTESIAN_POINT('Origin',(316.931946538207,-311.603298342405,0.));
#420=CARTESIAN_POINT('',(0.,0.,0.));
#421=UNCERTAINTY_MEASURE_WITH_UNIT(LENGTH_MEASURE(0.01),#427,
'DISTANCE_ACCURACY_VALUE',
'Maximum model space distance between geometric entities at asserted c
onnectivities');
#422=UNCERTAINTY_MEASURE_WITH_UNIT(LENGTH_MEASURE(0.01),#427,
'DISTANCE_ACCURACY_VALUE',
'Maximum model space distance between geometric entities at asserted c
onnectivities');
#423=UNCERTAINTY_MEASURE_WITH_UNIT(LENGTH_MEASURE(0.01),#427,
'DISTANCE_ACCURACY_VALUE',
'Maximum model space distance between geometric entities at asserted c
onnectivities');
#424=(
GEOMETRIC_REPRESENTATION_CONTEXT(3)
GLOBAL_UNCERTAINTY_ASSIGNED_CONTEXT((#421))
GLOBAL_UNIT_ASSIGNED_CONTEXT((#427,#429,#430))
REPRESENTATION_CONTEXT('','3D')
);
#425=(
GEOMETRIC_REPRESENTATION_CONTEXT(3)
GLOBAL_UNCERTAINTY_ASSIGNED_CONTEXT((#422))
GLOBAL_UNIT_ASSIGNED_CONTEXT((#427,#429,#430))
REPRESENTATION_CONTEXT('','3D')
);
#426=(
GEOMETRIC_REPRESENTATION_CONTEXT(3)
GLOBAL_UNCERTAINTY_ASSIGNED_CONTEXT((#423))
GLOBAL_UNIT_ASSIGNED_CONTEXT((#427,#429,#430))
REPRESENTATION_CONTEXT('','3D')
);
#427=(
LENGTH_UNIT()
NAMED_UNIT(*)
SI_UNIT(.MILLI.,.METRE.)
);
#428=(
LENGTH_UNIT()
NAMED_UNIT(*)
SI_UNIT($,.METRE.)
);
#429=(
NAMED_UNIT(*)
PLANE_ANGLE_UNIT()
SI_UNIT($,.RADIAN.)
);
#430=(
NAMED_UNIT(*)
SI_UNIT($,.STERADIAN.)
SOLID_ANGLE_UNIT()
);
#431=SHAPE_DEFINITION_REPRESENTATION(#433,#436);
#432=SHAPE_DEFINITION_REPRESENTATION(#434,#437);
#433=PRODUCT_DEFINITION_SHAPE('',$,#439);
#434=PRODUCT_DEFINITION_SHAPE('',$,#440);
#435=PRODUCT_DEFINITION_SHAPE($,$,#14);
#436=SHAPE_REPRESENTATION('',(#247,#276),#424);
#437=SHAPE_REPRESENTATION('',(#248),#425);
#438=PRODUCT_DEFINITION_CONTEXT('part definition',#446,'design');
#439=PRODUCT_DEFINITION('Kreissegment modular',
'Kreissegment modular v8',#441,#438);
#440=PRODUCT_DEFINITION('VNS Segmentkontur','VNS Segmentkontur',#442,#438);
#441=PRODUCT_DEFINITION_FORMATION('',$,#448);
#442=PRODUCT_DEFINITION_FORMATION('',$,#449);
#443=PRODUCT_RELATED_PRODUCT_CATEGORY('Kreissegment modular v8',
'Kreissegment modular v8',(#448));
#444=PRODUCT_RELATED_PRODUCT_CATEGORY('VNS Segmentkontur',
'VNS Segmentkontur',(#449));
#445=APPLICATION_PROTOCOL_DEFINITION('international standard',
'automotive_design',2009,#446);
#446=APPLICATION_CONTEXT(
'Core Data for Automotive Mechanical Design Process');
#447=PRODUCT_CONTEXT('part definition',#446,'mechanical');
#448=PRODUCT('Kreissegment modular','Kreissegment modular v8',$,(#447));
#449=PRODUCT('VNS Segmentkontur','VNS Segmentkontur',$,(#447));
#450=PRESENTATION_STYLE_ASSIGNMENT((#451));
#451=SURFACE_STYLE_USAGE(.BOTH.,#452);
#452=SURFACE_SIDE_STYLE('',(#453));
#453=SURFACE_STYLE_FILL_AREA(#454);
#454=FILL_AREA_STYLE('ABS (White)',(#455));
#455=FILL_AREA_STYLE_COLOUR('ABS (White)',#456);
#456=COLOUR_RGB('ABS (White)',0.964705882352941,0.964705882352941,0.952941176470588);
ENDSEC;
END-ISO-10303-21;
