ISO-10303-21;
HEADER;
/* Generated by software containing ST-Developer
 * from STEP Tools, Inc. (www.steptools.com) 
 */

FILE_DESCRIPTION(
/* description */ (''),
/* implementation_level */ '2;1');

FILE_NAME(
/* name */ 'Oberplatte_simple.step',
/* time_stamp */ '2026-04-10T15:08:39+02:00',
/* author */ (''),
/* organization */ (''),
/* preprocessor_version */ 'ST-DEVELOPER v20.1',
/* originating_system */ 'Autodesk Translation Framework v14.24.0.0',
/* authorisation */ '');

FILE_SCHEMA (('AUTOMOTIVE_DESIGN { 1 0 10303 214 3 1 1 }'));
ENDSEC;

DATA;
#10=MECHANICAL_DESIGN_GEOMETRIC_PRESENTATION_REPRESENTATION('',(#17),#1866);
#11=ITEM_DEFINED_TRANSFORMATION($,$,#1082,#1216);
#12=(
REPRESENTATION_RELATIONSHIP($,$,#1877,#1876)
REPRESENTATION_RELATIONSHIP_WITH_TRANSFORMATION(#11)
SHAPE_REPRESENTATION_RELATIONSHIP()
);
#13=CONTEXT_DEPENDENT_SHAPE_REPRESENTATION(#12,#1875);
#14=NEXT_ASSEMBLY_USAGE_OCCURRENCE('Oberplatte (1):1',
'Oberplatte (1):1','Oberplatte (1):1',#1879,#1880,'Oberplatte (1):1');
#15=SHAPE_REPRESENTATION_RELATIONSHIP('SRR','None',#1877,#16);
#16=ADVANCED_BREP_SHAPE_REPRESENTATION('',(#18),#1865);
#17=STYLED_ITEM('',(#1892),#18);
#18=MANIFOLD_SOLID_BREP('Oberplatte',#1068);
#19=FACE_BOUND('',#150,.T.);
#20=FACE_BOUND('',#151,.T.);
#21=FACE_BOUND('',#152,.T.);
#22=FACE_BOUND('',#153,.T.);
#23=FACE_BOUND('',#154,.T.);
#24=FACE_BOUND('',#155,.T.);
#25=FACE_BOUND('',#156,.T.);
#26=FACE_BOUND('',#157,.T.);
#27=FACE_BOUND('',#158,.T.);
#28=FACE_BOUND('',#159,.T.);
#29=FACE_BOUND('',#160,.T.);
#30=FACE_BOUND('',#173,.T.);
#31=FACE_BOUND('',#176,.T.);
#32=FACE_BOUND('',#179,.T.);
#33=FACE_BOUND('',#182,.T.);
#34=FACE_BOUND('',#185,.T.);
#35=FACE_BOUND('',#188,.T.);
#36=FACE_BOUND('',#191,.T.);
#37=FACE_BOUND('',#194,.T.);
#38=FACE_BOUND('',#197,.T.);
#39=FACE_BOUND('',#200,.T.);
#40=FACE_BOUND('',#227,.T.);
#41=FACE_BOUND('',#228,.T.);
#42=FACE_BOUND('',#229,.T.);
#43=FACE_BOUND('',#230,.T.);
#44=FACE_BOUND('',#231,.T.);
#45=FACE_BOUND('',#232,.T.);
#46=FACE_BOUND('',#233,.T.);
#47=FACE_BOUND('',#234,.T.);
#48=FACE_BOUND('',#235,.T.);
#49=FACE_BOUND('',#236,.T.);
#50=FACE_BOUND('',#237,.T.);
#51=FACE_BOUND('',#238,.T.);
#52=FACE_BOUND('',#239,.T.);
#53=PLANE('',#1086);
#54=PLANE('',#1093);
#55=PLANE('',#1094);
#56=PLANE('',#1113);
#57=PLANE('',#1120);
#58=PLANE('',#1123);
#59=PLANE('',#1124);
#60=PLANE('',#1130);
#61=PLANE('',#1135);
#62=PLANE('',#1140);
#63=PLANE('',#1145);
#64=PLANE('',#1150);
#65=PLANE('',#1155);
#66=PLANE('',#1160);
#67=PLANE('',#1165);
#68=PLANE('',#1170);
#69=PLANE('',#1175);
#70=PLANE('',#1187);
#71=PLANE('',#1191);
#72=PLANE('',#1195);
#73=PLANE('',#1196);
#74=PLANE('',#1200);
#75=PLANE('',#1204);
#76=PLANE('',#1205);
#77=PLANE('',#1209);
#78=PLANE('',#1213);
#79=PLANE('',#1214);
#80=PLANE('',#1215);
#81=FACE_OUTER_BOUND('',#144,.T.);
#82=FACE_OUTER_BOUND('',#145,.T.);
#83=FACE_OUTER_BOUND('',#146,.T.);
#84=FACE_OUTER_BOUND('',#147,.T.);
#85=FACE_OUTER_BOUND('',#148,.T.);
#86=FACE_OUTER_BOUND('',#149,.T.);
#87=FACE_OUTER_BOUND('',#161,.T.);
#88=FACE_OUTER_BOUND('',#162,.T.);
#89=FACE_OUTER_BOUND('',#163,.T.);
#90=FACE_OUTER_BOUND('',#164,.T.);
#91=FACE_OUTER_BOUND('',#165,.T.);
#92=FACE_OUTER_BOUND('',#166,.T.);
#93=FACE_OUTER_BOUND('',#167,.T.);
#94=FACE_OUTER_BOUND('',#168,.T.);
#95=FACE_OUTER_BOUND('',#169,.T.);
#96=FACE_OUTER_BOUND('',#170,.T.);
#97=FACE_OUTER_BOUND('',#171,.T.);
#98=FACE_OUTER_BOUND('',#172,.T.);
#99=FACE_OUTER_BOUND('',#174,.T.);
#100=FACE_OUTER_BOUND('',#175,.T.);
#101=FACE_OUTER_BOUND('',#177,.T.);
#102=FACE_OUTER_BOUND('',#178,.T.);
#103=FACE_OUTER_BOUND('',#180,.T.);
#104=FACE_OUTER_BOUND('',#181,.T.);
#105=FACE_OUTER_BOUND('',#183,.T.);
#106=FACE_OUTER_BOUND('',#184,.T.);
#107=FACE_OUTER_BOUND('',#186,.T.);
#108=FACE_OUTER_BOUND('',#187,.T.);
#109=FACE_OUTER_BOUND('',#189,.T.);
#110=FACE_OUTER_BOUND('',#190,.T.);
#111=FACE_OUTER_BOUND('',#192,.T.);
#112=FACE_OUTER_BOUND('',#193,.T.);
#113=FACE_OUTER_BOUND('',#195,.T.);
#114=FACE_OUTER_BOUND('',#196,.T.);
#115=FACE_OUTER_BOUND('',#198,.T.);
#116=FACE_OUTER_BOUND('',#199,.T.);
#117=FACE_OUTER_BOUND('',#201,.T.);
#118=FACE_OUTER_BOUND('',#202,.T.);
#119=FACE_OUTER_BOUND('',#203,.T.);
#120=FACE_OUTER_BOUND('',#204,.T.);
#121=FACE_OUTER_BOUND('',#205,.T.);
#122=FACE_OUTER_BOUND('',#206,.T.);
#123=FACE_OUTER_BOUND('',#207,.T.);
#124=FACE_OUTER_BOUND('',#208,.T.);
#125=FACE_OUTER_BOUND('',#209,.T.);
#126=FACE_OUTER_BOUND('',#210,.T.);
#127=FACE_OUTER_BOUND('',#211,.T.);
#128=FACE_OUTER_BOUND('',#212,.T.);
#129=FACE_OUTER_BOUND('',#213,.T.);
#130=FACE_OUTER_BOUND('',#214,.T.);
#131=FACE_OUTER_BOUND('',#215,.T.);
#132=FACE_OUTER_BOUND('',#216,.T.);
#133=FACE_OUTER_BOUND('',#217,.T.);
#134=FACE_OUTER_BOUND('',#218,.T.);
#135=FACE_OUTER_BOUND('',#219,.T.);
#136=FACE_OUTER_BOUND('',#220,.T.);
#137=FACE_OUTER_BOUND('',#221,.T.);
#138=FACE_OUTER_BOUND('',#222,.T.);
#139=FACE_OUTER_BOUND('',#223,.T.);
#140=FACE_OUTER_BOUND('',#224,.T.);
#141=FACE_OUTER_BOUND('',#225,.T.);
#142=FACE_OUTER_BOUND('',#226,.T.);
#143=FACE_OUTER_BOUND('',#240,.T.);
#144=EDGE_LOOP('',(#688,#689,#690,#691));
#145=EDGE_LOOP('',(#692,#693,#694,#695));
#146=EDGE_LOOP('',(#696,#697,#698,#699));
#147=EDGE_LOOP('',(#700,#701,#702,#703));
#148=EDGE_LOOP('',(#704,#705,#706,#707));
#149=EDGE_LOOP('',(#708,#709,#710,#711,#712,#713,#714,#715,#716,#717,#718,
#719,#720,#721));
#150=EDGE_LOOP('',(#722));
#151=EDGE_LOOP('',(#723));
#152=EDGE_LOOP('',(#724));
#153=EDGE_LOOP('',(#725));
#154=EDGE_LOOP('',(#726));
#155=EDGE_LOOP('',(#727));
#156=EDGE_LOOP('',(#728));
#157=EDGE_LOOP('',(#729));
#158=EDGE_LOOP('',(#730));
#159=EDGE_LOOP('',(#731));
#160=EDGE_LOOP('',(#732));
#161=EDGE_LOOP('',(#733,#734,#735,#736));
#162=EDGE_LOOP('',(#737,#738,#739,#740));
#163=EDGE_LOOP('',(#741,#742,#743,#744));
#164=EDGE_LOOP('',(#745,#746,#747,#748));
#165=EDGE_LOOP('',(#749,#750,#751,#752));
#166=EDGE_LOOP('',(#753,#754,#755,#756));
#167=EDGE_LOOP('',(#757,#758,#759,#760));
#168=EDGE_LOOP('',(#761,#762,#763,#764));
#169=EDGE_LOOP('',(#765));
#170=EDGE_LOOP('',(#766,#767,#768,#769));
#171=EDGE_LOOP('',(#770,#771,#772,#773));
#172=EDGE_LOOP('',(#774));
#173=EDGE_LOOP('',(#775));
#174=EDGE_LOOP('',(#776,#777,#778,#779));
#175=EDGE_LOOP('',(#780));
#176=EDGE_LOOP('',(#781));
#177=EDGE_LOOP('',(#782,#783,#784,#785));
#178=EDGE_LOOP('',(#786));
#179=EDGE_LOOP('',(#787));
#180=EDGE_LOOP('',(#788,#789,#790,#791));
#181=EDGE_LOOP('',(#792));
#182=EDGE_LOOP('',(#793));
#183=EDGE_LOOP('',(#794,#795,#796,#797));
#184=EDGE_LOOP('',(#798));
#185=EDGE_LOOP('',(#799));
#186=EDGE_LOOP('',(#800,#801,#802,#803));
#187=EDGE_LOOP('',(#804));
#188=EDGE_LOOP('',(#805));
#189=EDGE_LOOP('',(#806,#807,#808,#809));
#190=EDGE_LOOP('',(#810));
#191=EDGE_LOOP('',(#811));
#192=EDGE_LOOP('',(#812,#813,#814,#815));
#193=EDGE_LOOP('',(#816));
#194=EDGE_LOOP('',(#817));
#195=EDGE_LOOP('',(#818,#819,#820,#821));
#196=EDGE_LOOP('',(#822));
#197=EDGE_LOOP('',(#823));
#198=EDGE_LOOP('',(#824,#825,#826,#827));
#199=EDGE_LOOP('',(#828));
#200=EDGE_LOOP('',(#829));
#201=EDGE_LOOP('',(#830,#831,#832,#833));
#202=EDGE_LOOP('',(#834,#835,#836,#837));
#203=EDGE_LOOP('',(#838,#839,#840,#841));
#204=EDGE_LOOP('',(#842,#843,#844,#845));
#205=EDGE_LOOP('',(#846,#847,#848,#849));
#206=EDGE_LOOP('',(#850,#851,#852,#853));
#207=EDGE_LOOP('',(#854,#855,#856,#857));
#208=EDGE_LOOP('',(#858,#859,#860,#861));
#209=EDGE_LOOP('',(#862,#863,#864,#865));
#210=EDGE_LOOP('',(#866,#867,#868,#869));
#211=EDGE_LOOP('',(#870,#871,#872,#873));
#212=EDGE_LOOP('',(#874,#875,#876,#877));
#213=EDGE_LOOP('',(#878,#879,#880,#881));
#214=EDGE_LOOP('',(#882,#883,#884,#885));
#215=EDGE_LOOP('',(#886,#887,#888,#889));
#216=EDGE_LOOP('',(#890,#891,#892,#893));
#217=EDGE_LOOP('',(#894,#895,#896,#897));
#218=EDGE_LOOP('',(#898,#899,#900,#901));
#219=EDGE_LOOP('',(#902,#903,#904,#905));
#220=EDGE_LOOP('',(#906,#907,#908,#909));
#221=EDGE_LOOP('',(#910,#911,#912,#913));
#222=EDGE_LOOP('',(#914,#915,#916,#917));
#223=EDGE_LOOP('',(#918,#919,#920,#921));
#224=EDGE_LOOP('',(#922,#923,#924,#925));
#225=EDGE_LOOP('',(#926,#927,#928,#929));
#226=EDGE_LOOP('',(#930,#931,#932,#933,#934,#935,#936,#937,#938,#939,#940,
#941,#942,#943));
#227=EDGE_LOOP('',(#944,#945,#946,#947));
#228=EDGE_LOOP('',(#948,#949,#950,#951));
#229=EDGE_LOOP('',(#952,#953,#954,#955));
#230=EDGE_LOOP('',(#956));
#231=EDGE_LOOP('',(#957));
#232=EDGE_LOOP('',(#958));
#233=EDGE_LOOP('',(#959));
#234=EDGE_LOOP('',(#960));
#235=EDGE_LOOP('',(#961));
#236=EDGE_LOOP('',(#962));
#237=EDGE_LOOP('',(#963));
#238=EDGE_LOOP('',(#964));
#239=EDGE_LOOP('',(#965));
#240=EDGE_LOOP('',(#966,#967,#968,#969));
#241=LINE('',#1567,#312);
#242=LINE('',#1570,#313);
#243=LINE('',#1573,#314);
#244=LINE('',#1575,#315);
#245=LINE('',#1576,#316);
#246=LINE('',#1581,#317);
#247=LINE('',#1588,#318);
#248=LINE('',#1591,#319);
#249=LINE('',#1594,#320);
#250=LINE('',#1596,#321);
#251=LINE('',#1597,#322);
#252=LINE('',#1600,#323);
#253=LINE('',#1604,#324);
#254=LINE('',#1608,#325);
#255=LINE('',#1612,#326);
#256=LINE('',#1641,#327);
#257=LINE('',#1642,#328);
#258=LINE('',#1645,#329);
#259=LINE('',#1646,#330);
#260=LINE('',#1650,#331);
#261=LINE('',#1655,#332);
#262=LINE('',#1659,#333);
#263=LINE('',#1660,#334);
#264=LINE('',#1663,#335);
#265=LINE('',#1666,#336);
#266=LINE('',#1671,#337);
#267=LINE('',#1676,#338);
#268=LINE('',#1685,#339);
#269=LINE('',#1694,#340);
#270=LINE('',#1703,#341);
#271=LINE('',#1712,#342);
#272=LINE('',#1721,#343);
#273=LINE('',#1730,#344);
#274=LINE('',#1739,#345);
#275=LINE('',#1748,#346);
#276=LINE('',#1757,#347);
#277=LINE('',#1763,#348);
#278=LINE('',#1765,#349);
#279=LINE('',#1767,#350);
#280=LINE('',#1769,#351);
#281=LINE('',#1771,#352);
#282=LINE('',#1773,#353);
#283=LINE('',#1775,#354);
#284=LINE('',#1777,#355);
#285=LINE('',#1779,#356);
#286=LINE('',#1781,#357);
#287=LINE('',#1785,#358);
#288=LINE('',#1787,#359);
#289=LINE('',#1789,#360);
#290=LINE('',#1790,#361);
#291=LINE('',#1795,#362);
#292=LINE('',#1799,#363);
#293=LINE('',#1801,#364);
#294=LINE('',#1802,#365);
#295=LINE('',#1810,#366);
#296=LINE('',#1812,#367);
#297=LINE('',#1814,#368);
#298=LINE('',#1815,#369);
#299=LINE('',#1820,#370);
#300=LINE('',#1824,#371);
#301=LINE('',#1826,#372);
#302=LINE('',#1827,#373);
#303=LINE('',#1835,#374);
#304=LINE('',#1837,#375);
#305=LINE('',#1839,#376);
#306=LINE('',#1840,#377);
#307=LINE('',#1845,#378);
#308=LINE('',#1849,#379);
#309=LINE('',#1851,#380);
#310=LINE('',#1852,#381);
#311=LINE('',#1858,#382);
#312=VECTOR('',#1225,10.);
#313=VECTOR('',#1228,10.);
#314=VECTOR('',#1231,10.);
#315=VECTOR('',#1232,10.);
#316=VECTOR('',#1233,10.);
#317=VECTOR('',#1238,10.);
#318=VECTOR('',#1245,10.);
#319=VECTOR('',#1248,10.);
#320=VECTOR('',#1251,10.);
#321=VECTOR('',#1252,10.);
#322=VECTOR('',#1253,10.);
#323=VECTOR('',#1256,10.);
#324=VECTOR('',#1259,10.);
#325=VECTOR('',#1262,10.);
#326=VECTOR('',#1265,10.);
#327=VECTOR('',#1296,10.);
#328=VECTOR('',#1297,10.);
#329=VECTOR('',#1300,10.);
#330=VECTOR('',#1301,10.);
#331=VECTOR('',#1306,10.);
#332=VECTOR('',#1313,10.);
#333=VECTOR('',#1318,10.);
#334=VECTOR('',#1319,10.);
#335=VECTOR('',#1322,10.);
#336=VECTOR('',#1327,10.);
#337=VECTOR('',#1334,4.25);
#338=VECTOR('',#1339,4.49999999999999);
#339=VECTOR('',#1350,4.50000000000003);
#340=VECTOR('',#1361,4.49999999999999);
#341=VECTOR('',#1372,4.49999999999999);
#342=VECTOR('',#1383,4.49999999999999);
#343=VECTOR('',#1394,4.49999999999999);
#344=VECTOR('',#1405,4.49999999999999);
#345=VECTOR('',#1416,4.49999999999999);
#346=VECTOR('',#1427,4.49999999999999);
#347=VECTOR('',#1438,4.50000000000003);
#348=VECTOR('',#1447,2.74999999999999);
#349=VECTOR('',#1450,2.74999999999999);
#350=VECTOR('',#1453,2.74999999999999);
#351=VECTOR('',#1456,2.74999999999999);
#352=VECTOR('',#1459,2.74999999999999);
#353=VECTOR('',#1462,2.74999999999999);
#354=VECTOR('',#1465,2.74999999999999);
#355=VECTOR('',#1468,2.74999999999999);
#356=VECTOR('',#1471,2.74999999999999);
#357=VECTOR('',#1474,2.74999999999999);
#358=VECTOR('',#1477,10.);
#359=VECTOR('',#1478,10.);
#360=VECTOR('',#1479,10.);
#361=VECTOR('',#1480,10.);
#362=VECTOR('',#1485,10.);
#363=VECTOR('',#1490,10.);
#364=VECTOR('',#1491,10.);
#365=VECTOR('',#1492,10.);
#366=VECTOR('',#1503,10.);
#367=VECTOR('',#1504,10.);
#368=VECTOR('',#1505,10.);
#369=VECTOR('',#1506,10.);
#370=VECTOR('',#1511,10.);
#371=VECTOR('',#1516,10.);
#372=VECTOR('',#1517,10.);
#373=VECTOR('',#1518,10.);
#374=VECTOR('',#1529,10.);
#375=VECTOR('',#1530,10.);
#376=VECTOR('',#1531,10.);
#377=VECTOR('',#1532,10.);
#378=VECTOR('',#1537,10.);
#379=VECTOR('',#1542,10.);
#380=VECTOR('',#1543,10.);
#381=VECTOR('',#1544,10.);
#382=VECTOR('',#1555,10.);
#383=CIRCLE('',#1084,10.);
#384=CIRCLE('',#1085,10.);
#385=CIRCLE('',#1088,10.);
#386=CIRCLE('',#1089,10.);
#387=CIRCLE('',#1091,10.);
#388=CIRCLE('',#1092,10.);
#389=CIRCLE('',#1095,10.);
#390=CIRCLE('',#1096,10.);
#391=CIRCLE('',#1097,10.);
#392=CIRCLE('',#1098,10.);
#393=CIRCLE('',#1099,10.);
#394=CIRCLE('',#1100,7.);
#395=CIRCLE('',#1101,2.74999999999999);
#396=CIRCLE('',#1102,2.74999999999999);
#397=CIRCLE('',#1103,2.74999999999999);
#398=CIRCLE('',#1104,2.74999999999999);
#399=CIRCLE('',#1105,2.74999999999999);
#400=CIRCLE('',#1106,2.74999999999999);
#401=CIRCLE('',#1107,2.74999999999999);
#402=CIRCLE('',#1108,2.74999999999999);
#403=CIRCLE('',#1109,2.74999999999999);
#404=CIRCLE('',#1110,2.74999999999999);
#405=CIRCLE('',#1112,10.);
#406=CIRCLE('',#1115,10.);
#407=CIRCLE('',#1117,10.);
#408=CIRCLE('',#1119,10.);
#409=CIRCLE('',#1122,10.);
#410=CIRCLE('',#1125,7.);
#411=CIRCLE('',#1128,4.49999999999999);
#412=CIRCLE('',#1129,4.49999999999999);
#413=CIRCLE('',#1131,2.74999999999999);
#414=CIRCLE('',#1133,4.50000000000003);
#415=CIRCLE('',#1134,4.50000000000003);
#416=CIRCLE('',#1136,2.74999999999999);
#417=CIRCLE('',#1138,4.49999999999999);
#418=CIRCLE('',#1139,4.49999999999999);
#419=CIRCLE('',#1141,2.74999999999999);
#420=CIRCLE('',#1143,4.49999999999999);
#421=CIRCLE('',#1144,4.49999999999999);
#422=CIRCLE('',#1146,2.74999999999999);
#423=CIRCLE('',#1148,4.49999999999999);
#424=CIRCLE('',#1149,4.49999999999999);
#425=CIRCLE('',#1151,2.74999999999999);
#426=CIRCLE('',#1153,4.49999999999999);
#427=CIRCLE('',#1154,4.49999999999999);
#428=CIRCLE('',#1156,2.74999999999999);
#429=CIRCLE('',#1158,4.49999999999999);
#430=CIRCLE('',#1159,4.49999999999999);
#431=CIRCLE('',#1161,2.74999999999999);
#432=CIRCLE('',#1163,4.49999999999999);
#433=CIRCLE('',#1164,4.49999999999999);
#434=CIRCLE('',#1166,2.74999999999999);
#435=CIRCLE('',#1168,4.49999999999999);
#436=CIRCLE('',#1169,4.49999999999999);
#437=CIRCLE('',#1171,2.74999999999999);
#438=CIRCLE('',#1173,4.50000000000003);
#439=CIRCLE('',#1174,4.50000000000003);
#440=CIRCLE('',#1176,2.74999999999999);
#441=CIRCLE('',#1189,30.);
#442=CIRCLE('',#1190,30.);
#443=CIRCLE('',#1193,30.);
#444=CIRCLE('',#1194,30.);
#445=CIRCLE('',#1198,30.);
#446=CIRCLE('',#1199,30.);
#447=CIRCLE('',#1202,30.);
#448=CIRCLE('',#1203,30.);
#449=CIRCLE('',#1207,30.);
#450=CIRCLE('',#1208,30.);
#451=CIRCLE('',#1211,30.);
#452=CIRCLE('',#1212,30.);
#453=VERTEX_POINT('',#1563);
#454=VERTEX_POINT('',#1564);
#455=VERTEX_POINT('',#1566);
#456=VERTEX_POINT('',#1568);
#457=VERTEX_POINT('',#1572);
#458=VERTEX_POINT('',#1574);
#459=VERTEX_POINT('',#1578);
#460=VERTEX_POINT('',#1580);
#461=VERTEX_POINT('',#1584);
#462=VERTEX_POINT('',#1585);
#463=VERTEX_POINT('',#1587);
#464=VERTEX_POINT('',#1589);
#465=VERTEX_POINT('',#1593);
#466=VERTEX_POINT('',#1595);
#467=VERTEX_POINT('',#1599);
#468=VERTEX_POINT('',#1601);
#469=VERTEX_POINT('',#1603);
#470=VERTEX_POINT('',#1605);
#471=VERTEX_POINT('',#1607);
#472=VERTEX_POINT('',#1609);
#473=VERTEX_POINT('',#1611);
#474=VERTEX_POINT('',#1615);
#475=VERTEX_POINT('',#1617);
#476=VERTEX_POINT('',#1619);
#477=VERTEX_POINT('',#1621);
#478=VERTEX_POINT('',#1623);
#479=VERTEX_POINT('',#1625);
#480=VERTEX_POINT('',#1627);
#481=VERTEX_POINT('',#1629);
#482=VERTEX_POINT('',#1631);
#483=VERTEX_POINT('',#1633);
#484=VERTEX_POINT('',#1635);
#485=VERTEX_POINT('',#1638);
#486=VERTEX_POINT('',#1639);
#487=VERTEX_POINT('',#1644);
#488=VERTEX_POINT('',#1648);
#489=VERTEX_POINT('',#1654);
#490=VERTEX_POINT('',#1658);
#491=VERTEX_POINT('',#1662);
#492=VERTEX_POINT('',#1668);
#493=VERTEX_POINT('',#1673);
#494=VERTEX_POINT('',#1675);
#495=VERTEX_POINT('',#1679);
#496=VERTEX_POINT('',#1682);
#497=VERTEX_POINT('',#1684);
#498=VERTEX_POINT('',#1688);
#499=VERTEX_POINT('',#1691);
#500=VERTEX_POINT('',#1693);
#501=VERTEX_POINT('',#1697);
#502=VERTEX_POINT('',#1700);
#503=VERTEX_POINT('',#1702);
#504=VERTEX_POINT('',#1706);
#505=VERTEX_POINT('',#1709);
#506=VERTEX_POINT('',#1711);
#507=VERTEX_POINT('',#1715);
#508=VERTEX_POINT('',#1718);
#509=VERTEX_POINT('',#1720);
#510=VERTEX_POINT('',#1724);
#511=VERTEX_POINT('',#1727);
#512=VERTEX_POINT('',#1729);
#513=VERTEX_POINT('',#1733);
#514=VERTEX_POINT('',#1736);
#515=VERTEX_POINT('',#1738);
#516=VERTEX_POINT('',#1742);
#517=VERTEX_POINT('',#1745);
#518=VERTEX_POINT('',#1747);
#519=VERTEX_POINT('',#1751);
#520=VERTEX_POINT('',#1754);
#521=VERTEX_POINT('',#1756);
#522=VERTEX_POINT('',#1760);
#523=VERTEX_POINT('',#1783);
#524=VERTEX_POINT('',#1784);
#525=VERTEX_POINT('',#1786);
#526=VERTEX_POINT('',#1788);
#527=VERTEX_POINT('',#1792);
#528=VERTEX_POINT('',#1794);
#529=VERTEX_POINT('',#1798);
#530=VERTEX_POINT('',#1800);
#531=VERTEX_POINT('',#1808);
#532=VERTEX_POINT('',#1809);
#533=VERTEX_POINT('',#1811);
#534=VERTEX_POINT('',#1813);
#535=VERTEX_POINT('',#1817);
#536=VERTEX_POINT('',#1819);
#537=VERTEX_POINT('',#1823);
#538=VERTEX_POINT('',#1825);
#539=VERTEX_POINT('',#1833);
#540=VERTEX_POINT('',#1834);
#541=VERTEX_POINT('',#1836);
#542=VERTEX_POINT('',#1838);
#543=VERTEX_POINT('',#1842);
#544=VERTEX_POINT('',#1844);
#545=VERTEX_POINT('',#1848);
#546=VERTEX_POINT('',#1850);
#547=EDGE_CURVE('',#453,#454,#383,.T.);
#548=EDGE_CURVE('',#454,#455,#241,.T.);
#549=EDGE_CURVE('',#456,#455,#384,.F.);
#550=EDGE_CURVE('',#456,#453,#242,.T.);
#551=EDGE_CURVE('',#457,#456,#243,.T.);
#552=EDGE_CURVE('',#458,#457,#244,.T.);
#553=EDGE_CURVE('',#453,#458,#245,.T.);
#554=EDGE_CURVE('',#459,#457,#385,.F.);
#555=EDGE_CURVE('',#459,#460,#246,.T.);
#556=EDGE_CURVE('',#460,#458,#386,.T.);
#557=EDGE_CURVE('',#461,#462,#387,.T.);
#558=EDGE_CURVE('',#462,#463,#247,.T.);
#559=EDGE_CURVE('',#463,#464,#388,.T.);
#560=EDGE_CURVE('',#464,#461,#248,.T.);
#561=EDGE_CURVE('',#462,#465,#249,.T.);
#562=EDGE_CURVE('',#466,#465,#250,.T.);
#563=EDGE_CURVE('',#466,#463,#251,.T.);
#564=EDGE_CURVE('',#467,#461,#252,.T.);
#565=EDGE_CURVE('',#468,#467,#389,.T.);
#566=EDGE_CURVE('',#469,#468,#253,.T.);
#567=EDGE_CURVE('',#470,#469,#390,.T.);
#568=EDGE_CURVE('',#471,#470,#254,.T.);
#569=EDGE_CURVE('',#472,#471,#391,.T.);
#570=EDGE_CURVE('',#473,#472,#255,.T.);
#571=EDGE_CURVE('',#459,#473,#392,.T.);
#572=EDGE_CURVE('',#465,#455,#393,.T.);
#573=EDGE_CURVE('',#474,#474,#394,.T.);
#574=EDGE_CURVE('',#475,#475,#395,.T.);
#575=EDGE_CURVE('',#476,#476,#396,.T.);
#576=EDGE_CURVE('',#477,#477,#397,.T.);
#577=EDGE_CURVE('',#478,#478,#398,.T.);
#578=EDGE_CURVE('',#479,#479,#399,.T.);
#579=EDGE_CURVE('',#480,#480,#400,.T.);
#580=EDGE_CURVE('',#481,#481,#401,.T.);
#581=EDGE_CURVE('',#482,#482,#402,.T.);
#582=EDGE_CURVE('',#483,#483,#403,.T.);
#583=EDGE_CURVE('',#484,#484,#404,.T.);
#584=EDGE_CURVE('',#485,#486,#405,.T.);
#585=EDGE_CURVE('',#486,#468,#256,.T.);
#586=EDGE_CURVE('',#467,#485,#257,.T.);
#587=EDGE_CURVE('',#487,#486,#258,.T.);
#588=EDGE_CURVE('',#469,#487,#259,.T.);
#589=EDGE_CURVE('',#487,#488,#406,.T.);
#590=EDGE_CURVE('',#488,#470,#260,.T.);
#591=EDGE_CURVE('',#454,#466,#407,.T.);
#592=EDGE_CURVE('',#473,#489,#261,.T.);
#593=EDGE_CURVE('',#489,#460,#408,.T.);
#594=EDGE_CURVE('',#490,#472,#262,.T.);
#595=EDGE_CURVE('',#490,#489,#263,.T.);
#596=EDGE_CURVE('',#471,#491,#264,.T.);
#597=EDGE_CURVE('',#491,#490,#409,.T.);
#598=EDGE_CURVE('',#488,#491,#265,.T.);
#599=EDGE_CURVE('',#492,#492,#410,.F.);
#600=EDGE_CURVE('',#474,#492,#266,.T.);
#601=EDGE_CURVE('',#493,#493,#411,.T.);
#602=EDGE_CURVE('',#493,#494,#267,.T.);
#603=EDGE_CURVE('',#494,#494,#412,.T.);
#604=EDGE_CURVE('',#495,#495,#413,.T.);
#605=EDGE_CURVE('',#496,#496,#414,.T.);
#606=EDGE_CURVE('',#496,#497,#268,.T.);
#607=EDGE_CURVE('',#497,#497,#415,.T.);
#608=EDGE_CURVE('',#498,#498,#416,.T.);
#609=EDGE_CURVE('',#499,#499,#417,.T.);
#610=EDGE_CURVE('',#499,#500,#269,.T.);
#611=EDGE_CURVE('',#500,#500,#418,.T.);
#612=EDGE_CURVE('',#501,#501,#419,.T.);
#613=EDGE_CURVE('',#502,#502,#420,.T.);
#614=EDGE_CURVE('',#502,#503,#270,.T.);
#615=EDGE_CURVE('',#503,#503,#421,.T.);
#616=EDGE_CURVE('',#504,#504,#422,.T.);
#617=EDGE_CURVE('',#505,#505,#423,.T.);
#618=EDGE_CURVE('',#505,#506,#271,.T.);
#619=EDGE_CURVE('',#506,#506,#424,.T.);
#620=EDGE_CURVE('',#507,#507,#425,.T.);
#621=EDGE_CURVE('',#508,#508,#426,.T.);
#622=EDGE_CURVE('',#508,#509,#272,.T.);
#623=EDGE_CURVE('',#509,#509,#427,.T.);
#624=EDGE_CURVE('',#510,#510,#428,.T.);
#625=EDGE_CURVE('',#511,#511,#429,.T.);
#626=EDGE_CURVE('',#511,#512,#273,.T.);
#627=EDGE_CURVE('',#512,#512,#430,.T.);
#628=EDGE_CURVE('',#513,#513,#431,.T.);
#629=EDGE_CURVE('',#514,#514,#432,.T.);
#630=EDGE_CURVE('',#514,#515,#274,.T.);
#631=EDGE_CURVE('',#515,#515,#433,.T.);
#632=EDGE_CURVE('',#516,#516,#434,.T.);
#633=EDGE_CURVE('',#517,#517,#435,.T.);
#634=EDGE_CURVE('',#517,#518,#275,.T.);
#635=EDGE_CURVE('',#518,#518,#436,.T.);
#636=EDGE_CURVE('',#519,#519,#437,.T.);
#637=EDGE_CURVE('',#520,#520,#438,.T.);
#638=EDGE_CURVE('',#520,#521,#276,.T.);
#639=EDGE_CURVE('',#521,#521,#439,.T.);
#640=EDGE_CURVE('',#522,#522,#440,.T.);
#641=EDGE_CURVE('',#495,#484,#277,.T.);
#642=EDGE_CURVE('',#513,#483,#278,.T.);
#643=EDGE_CURVE('',#504,#482,#279,.T.);
#644=EDGE_CURVE('',#498,#481,#280,.T.);
#645=EDGE_CURVE('',#507,#480,#281,.T.);
#646=EDGE_CURVE('',#510,#479,#282,.T.);
#647=EDGE_CURVE('',#516,#478,#283,.T.);
#648=EDGE_CURVE('',#501,#477,#284,.T.);
#649=EDGE_CURVE('',#519,#476,#285,.T.);
#650=EDGE_CURVE('',#522,#475,#286,.T.);
#651=EDGE_CURVE('',#523,#524,#287,.T.);
#652=EDGE_CURVE('',#523,#525,#288,.T.);
#653=EDGE_CURVE('',#525,#526,#289,.T.);
#654=EDGE_CURVE('',#524,#526,#290,.T.);
#655=EDGE_CURVE('',#527,#523,#441,.T.);
#656=EDGE_CURVE('',#527,#528,#291,.T.);
#657=EDGE_CURVE('',#528,#525,#442,.T.);
#658=EDGE_CURVE('',#529,#527,#292,.T.);
#659=EDGE_CURVE('',#529,#530,#293,.T.);
#660=EDGE_CURVE('',#530,#528,#294,.T.);
#661=EDGE_CURVE('',#524,#529,#443,.T.);
#662=EDGE_CURVE('',#526,#530,#444,.T.);
#663=EDGE_CURVE('',#531,#532,#295,.T.);
#664=EDGE_CURVE('',#531,#533,#296,.T.);
#665=EDGE_CURVE('',#533,#534,#297,.T.);
#666=EDGE_CURVE('',#532,#534,#298,.T.);
#667=EDGE_CURVE('',#535,#531,#445,.T.);
#668=EDGE_CURVE('',#535,#536,#299,.T.);
#669=EDGE_CURVE('',#536,#533,#446,.T.);
#670=EDGE_CURVE('',#537,#535,#300,.T.);
#671=EDGE_CURVE('',#537,#538,#301,.T.);
#672=EDGE_CURVE('',#538,#536,#302,.T.);
#673=EDGE_CURVE('',#532,#537,#447,.T.);
#674=EDGE_CURVE('',#534,#538,#448,.T.);
#675=EDGE_CURVE('',#539,#540,#303,.T.);
#676=EDGE_CURVE('',#539,#541,#304,.T.);
#677=EDGE_CURVE('',#541,#542,#305,.T.);
#678=EDGE_CURVE('',#540,#542,#306,.T.);
#679=EDGE_CURVE('',#543,#539,#449,.T.);
#680=EDGE_CURVE('',#543,#544,#307,.T.);
#681=EDGE_CURVE('',#544,#541,#450,.T.);
#682=EDGE_CURVE('',#545,#543,#308,.T.);
#683=EDGE_CURVE('',#545,#546,#309,.T.);
#684=EDGE_CURVE('',#546,#544,#310,.T.);
#685=EDGE_CURVE('',#540,#545,#451,.T.);
#686=EDGE_CURVE('',#542,#546,#452,.T.);
#687=EDGE_CURVE('',#464,#485,#311,.T.);
#688=ORIENTED_EDGE('',*,*,#547,.T.);
#689=ORIENTED_EDGE('',*,*,#548,.T.);
#690=ORIENTED_EDGE('',*,*,#549,.F.);
#691=ORIENTED_EDGE('',*,*,#550,.T.);
#692=ORIENTED_EDGE('',*,*,#550,.F.);
#693=ORIENTED_EDGE('',*,*,#551,.F.);
#694=ORIENTED_EDGE('',*,*,#552,.F.);
#695=ORIENTED_EDGE('',*,*,#553,.F.);
#696=ORIENTED_EDGE('',*,*,#554,.F.);
#697=ORIENTED_EDGE('',*,*,#555,.T.);
#698=ORIENTED_EDGE('',*,*,#556,.T.);
#699=ORIENTED_EDGE('',*,*,#552,.T.);
#700=ORIENTED_EDGE('',*,*,#557,.T.);
#701=ORIENTED_EDGE('',*,*,#558,.T.);
#702=ORIENTED_EDGE('',*,*,#559,.T.);
#703=ORIENTED_EDGE('',*,*,#560,.T.);
#704=ORIENTED_EDGE('',*,*,#558,.F.);
#705=ORIENTED_EDGE('',*,*,#561,.T.);
#706=ORIENTED_EDGE('',*,*,#562,.F.);
#707=ORIENTED_EDGE('',*,*,#563,.T.);
#708=ORIENTED_EDGE('',*,*,#557,.F.);
#709=ORIENTED_EDGE('',*,*,#564,.F.);
#710=ORIENTED_EDGE('',*,*,#565,.F.);
#711=ORIENTED_EDGE('',*,*,#566,.F.);
#712=ORIENTED_EDGE('',*,*,#567,.F.);
#713=ORIENTED_EDGE('',*,*,#568,.F.);
#714=ORIENTED_EDGE('',*,*,#569,.F.);
#715=ORIENTED_EDGE('',*,*,#570,.F.);
#716=ORIENTED_EDGE('',*,*,#571,.F.);
#717=ORIENTED_EDGE('',*,*,#554,.T.);
#718=ORIENTED_EDGE('',*,*,#551,.T.);
#719=ORIENTED_EDGE('',*,*,#549,.T.);
#720=ORIENTED_EDGE('',*,*,#572,.F.);
#721=ORIENTED_EDGE('',*,*,#561,.F.);
#722=ORIENTED_EDGE('',*,*,#573,.T.);
#723=ORIENTED_EDGE('',*,*,#574,.T.);
#724=ORIENTED_EDGE('',*,*,#575,.T.);
#725=ORIENTED_EDGE('',*,*,#576,.T.);
#726=ORIENTED_EDGE('',*,*,#577,.T.);
#727=ORIENTED_EDGE('',*,*,#578,.T.);
#728=ORIENTED_EDGE('',*,*,#579,.T.);
#729=ORIENTED_EDGE('',*,*,#580,.T.);
#730=ORIENTED_EDGE('',*,*,#581,.T.);
#731=ORIENTED_EDGE('',*,*,#582,.T.);
#732=ORIENTED_EDGE('',*,*,#583,.T.);
#733=ORIENTED_EDGE('',*,*,#584,.T.);
#734=ORIENTED_EDGE('',*,*,#585,.T.);
#735=ORIENTED_EDGE('',*,*,#565,.T.);
#736=ORIENTED_EDGE('',*,*,#586,.T.);
#737=ORIENTED_EDGE('',*,*,#585,.F.);
#738=ORIENTED_EDGE('',*,*,#587,.F.);
#739=ORIENTED_EDGE('',*,*,#588,.F.);
#740=ORIENTED_EDGE('',*,*,#566,.T.);
#741=ORIENTED_EDGE('',*,*,#589,.T.);
#742=ORIENTED_EDGE('',*,*,#590,.T.);
#743=ORIENTED_EDGE('',*,*,#567,.T.);
#744=ORIENTED_EDGE('',*,*,#588,.T.);
#745=ORIENTED_EDGE('',*,*,#548,.F.);
#746=ORIENTED_EDGE('',*,*,#591,.T.);
#747=ORIENTED_EDGE('',*,*,#562,.T.);
#748=ORIENTED_EDGE('',*,*,#572,.T.);
#749=ORIENTED_EDGE('',*,*,#555,.F.);
#750=ORIENTED_EDGE('',*,*,#571,.T.);
#751=ORIENTED_EDGE('',*,*,#592,.T.);
#752=ORIENTED_EDGE('',*,*,#593,.T.);
#753=ORIENTED_EDGE('',*,*,#592,.F.);
#754=ORIENTED_EDGE('',*,*,#570,.T.);
#755=ORIENTED_EDGE('',*,*,#594,.F.);
#756=ORIENTED_EDGE('',*,*,#595,.T.);
#757=ORIENTED_EDGE('',*,*,#569,.T.);
#758=ORIENTED_EDGE('',*,*,#596,.T.);
#759=ORIENTED_EDGE('',*,*,#597,.T.);
#760=ORIENTED_EDGE('',*,*,#594,.T.);
#761=ORIENTED_EDGE('',*,*,#590,.F.);
#762=ORIENTED_EDGE('',*,*,#598,.T.);
#763=ORIENTED_EDGE('',*,*,#596,.F.);
#764=ORIENTED_EDGE('',*,*,#568,.T.);
#765=ORIENTED_EDGE('',*,*,#599,.F.);
#766=ORIENTED_EDGE('',*,*,#573,.F.);
#767=ORIENTED_EDGE('',*,*,#600,.T.);
#768=ORIENTED_EDGE('',*,*,#599,.T.);
#769=ORIENTED_EDGE('',*,*,#600,.F.);
#770=ORIENTED_EDGE('',*,*,#601,.F.);
#771=ORIENTED_EDGE('',*,*,#602,.T.);
#772=ORIENTED_EDGE('',*,*,#603,.T.);
#773=ORIENTED_EDGE('',*,*,#602,.F.);
#774=ORIENTED_EDGE('',*,*,#603,.F.);
#775=ORIENTED_EDGE('',*,*,#604,.F.);
#776=ORIENTED_EDGE('',*,*,#605,.F.);
#777=ORIENTED_EDGE('',*,*,#606,.T.);
#778=ORIENTED_EDGE('',*,*,#607,.T.);
#779=ORIENTED_EDGE('',*,*,#606,.F.);
#780=ORIENTED_EDGE('',*,*,#607,.F.);
#781=ORIENTED_EDGE('',*,*,#608,.F.);
#782=ORIENTED_EDGE('',*,*,#609,.F.);
#783=ORIENTED_EDGE('',*,*,#610,.T.);
#784=ORIENTED_EDGE('',*,*,#611,.T.);
#785=ORIENTED_EDGE('',*,*,#610,.F.);
#786=ORIENTED_EDGE('',*,*,#611,.F.);
#787=ORIENTED_EDGE('',*,*,#612,.F.);
#788=ORIENTED_EDGE('',*,*,#613,.F.);
#789=ORIENTED_EDGE('',*,*,#614,.T.);
#790=ORIENTED_EDGE('',*,*,#615,.T.);
#791=ORIENTED_EDGE('',*,*,#614,.F.);
#792=ORIENTED_EDGE('',*,*,#615,.F.);
#793=ORIENTED_EDGE('',*,*,#616,.F.);
#794=ORIENTED_EDGE('',*,*,#617,.F.);
#795=ORIENTED_EDGE('',*,*,#618,.T.);
#796=ORIENTED_EDGE('',*,*,#619,.T.);
#797=ORIENTED_EDGE('',*,*,#618,.F.);
#798=ORIENTED_EDGE('',*,*,#619,.F.);
#799=ORIENTED_EDGE('',*,*,#620,.F.);
#800=ORIENTED_EDGE('',*,*,#621,.F.);
#801=ORIENTED_EDGE('',*,*,#622,.T.);
#802=ORIENTED_EDGE('',*,*,#623,.T.);
#803=ORIENTED_EDGE('',*,*,#622,.F.);
#804=ORIENTED_EDGE('',*,*,#623,.F.);
#805=ORIENTED_EDGE('',*,*,#624,.F.);
#806=ORIENTED_EDGE('',*,*,#625,.F.);
#807=ORIENTED_EDGE('',*,*,#626,.T.);
#808=ORIENTED_EDGE('',*,*,#627,.T.);
#809=ORIENTED_EDGE('',*,*,#626,.F.);
#810=ORIENTED_EDGE('',*,*,#627,.F.);
#811=ORIENTED_EDGE('',*,*,#628,.F.);
#812=ORIENTED_EDGE('',*,*,#629,.F.);
#813=ORIENTED_EDGE('',*,*,#630,.T.);
#814=ORIENTED_EDGE('',*,*,#631,.T.);
#815=ORIENTED_EDGE('',*,*,#630,.F.);
#816=ORIENTED_EDGE('',*,*,#631,.F.);
#817=ORIENTED_EDGE('',*,*,#632,.F.);
#818=ORIENTED_EDGE('',*,*,#633,.F.);
#819=ORIENTED_EDGE('',*,*,#634,.T.);
#820=ORIENTED_EDGE('',*,*,#635,.T.);
#821=ORIENTED_EDGE('',*,*,#634,.F.);
#822=ORIENTED_EDGE('',*,*,#635,.F.);
#823=ORIENTED_EDGE('',*,*,#636,.F.);
#824=ORIENTED_EDGE('',*,*,#637,.F.);
#825=ORIENTED_EDGE('',*,*,#638,.T.);
#826=ORIENTED_EDGE('',*,*,#639,.T.);
#827=ORIENTED_EDGE('',*,*,#638,.F.);
#828=ORIENTED_EDGE('',*,*,#639,.F.);
#829=ORIENTED_EDGE('',*,*,#640,.F.);
#830=ORIENTED_EDGE('',*,*,#604,.T.);
#831=ORIENTED_EDGE('',*,*,#641,.T.);
#832=ORIENTED_EDGE('',*,*,#583,.F.);
#833=ORIENTED_EDGE('',*,*,#641,.F.);
#834=ORIENTED_EDGE('',*,*,#628,.T.);
#835=ORIENTED_EDGE('',*,*,#642,.T.);
#836=ORIENTED_EDGE('',*,*,#582,.F.);
#837=ORIENTED_EDGE('',*,*,#642,.F.);
#838=ORIENTED_EDGE('',*,*,#616,.T.);
#839=ORIENTED_EDGE('',*,*,#643,.T.);
#840=ORIENTED_EDGE('',*,*,#581,.F.);
#841=ORIENTED_EDGE('',*,*,#643,.F.);
#842=ORIENTED_EDGE('',*,*,#608,.T.);
#843=ORIENTED_EDGE('',*,*,#644,.T.);
#844=ORIENTED_EDGE('',*,*,#580,.F.);
#845=ORIENTED_EDGE('',*,*,#644,.F.);
#846=ORIENTED_EDGE('',*,*,#620,.T.);
#847=ORIENTED_EDGE('',*,*,#645,.T.);
#848=ORIENTED_EDGE('',*,*,#579,.F.);
#849=ORIENTED_EDGE('',*,*,#645,.F.);
#850=ORIENTED_EDGE('',*,*,#624,.T.);
#851=ORIENTED_EDGE('',*,*,#646,.T.);
#852=ORIENTED_EDGE('',*,*,#578,.F.);
#853=ORIENTED_EDGE('',*,*,#646,.F.);
#854=ORIENTED_EDGE('',*,*,#632,.T.);
#855=ORIENTED_EDGE('',*,*,#647,.T.);
#856=ORIENTED_EDGE('',*,*,#577,.F.);
#857=ORIENTED_EDGE('',*,*,#647,.F.);
#858=ORIENTED_EDGE('',*,*,#612,.T.);
#859=ORIENTED_EDGE('',*,*,#648,.T.);
#860=ORIENTED_EDGE('',*,*,#576,.F.);
#861=ORIENTED_EDGE('',*,*,#648,.F.);
#862=ORIENTED_EDGE('',*,*,#636,.T.);
#863=ORIENTED_EDGE('',*,*,#649,.T.);
#864=ORIENTED_EDGE('',*,*,#575,.F.);
#865=ORIENTED_EDGE('',*,*,#649,.F.);
#866=ORIENTED_EDGE('',*,*,#640,.T.);
#867=ORIENTED_EDGE('',*,*,#650,.T.);
#868=ORIENTED_EDGE('',*,*,#574,.F.);
#869=ORIENTED_EDGE('',*,*,#650,.F.);
#870=ORIENTED_EDGE('',*,*,#651,.F.);
#871=ORIENTED_EDGE('',*,*,#652,.T.);
#872=ORIENTED_EDGE('',*,*,#653,.T.);
#873=ORIENTED_EDGE('',*,*,#654,.F.);
#874=ORIENTED_EDGE('',*,*,#655,.F.);
#875=ORIENTED_EDGE('',*,*,#656,.T.);
#876=ORIENTED_EDGE('',*,*,#657,.T.);
#877=ORIENTED_EDGE('',*,*,#652,.F.);
#878=ORIENTED_EDGE('',*,*,#658,.F.);
#879=ORIENTED_EDGE('',*,*,#659,.T.);
#880=ORIENTED_EDGE('',*,*,#660,.T.);
#881=ORIENTED_EDGE('',*,*,#656,.F.);
#882=ORIENTED_EDGE('',*,*,#661,.F.);
#883=ORIENTED_EDGE('',*,*,#654,.T.);
#884=ORIENTED_EDGE('',*,*,#662,.T.);
#885=ORIENTED_EDGE('',*,*,#659,.F.);
#886=ORIENTED_EDGE('',*,*,#662,.F.);
#887=ORIENTED_EDGE('',*,*,#653,.F.);
#888=ORIENTED_EDGE('',*,*,#657,.F.);
#889=ORIENTED_EDGE('',*,*,#660,.F.);
#890=ORIENTED_EDGE('',*,*,#663,.F.);
#891=ORIENTED_EDGE('',*,*,#664,.T.);
#892=ORIENTED_EDGE('',*,*,#665,.T.);
#893=ORIENTED_EDGE('',*,*,#666,.F.);
#894=ORIENTED_EDGE('',*,*,#667,.F.);
#895=ORIENTED_EDGE('',*,*,#668,.T.);
#896=ORIENTED_EDGE('',*,*,#669,.T.);
#897=ORIENTED_EDGE('',*,*,#664,.F.);
#898=ORIENTED_EDGE('',*,*,#670,.F.);
#899=ORIENTED_EDGE('',*,*,#671,.T.);
#900=ORIENTED_EDGE('',*,*,#672,.T.);
#901=ORIENTED_EDGE('',*,*,#668,.F.);
#902=ORIENTED_EDGE('',*,*,#673,.F.);
#903=ORIENTED_EDGE('',*,*,#666,.T.);
#904=ORIENTED_EDGE('',*,*,#674,.T.);
#905=ORIENTED_EDGE('',*,*,#671,.F.);
#906=ORIENTED_EDGE('',*,*,#674,.F.);
#907=ORIENTED_EDGE('',*,*,#665,.F.);
#908=ORIENTED_EDGE('',*,*,#669,.F.);
#909=ORIENTED_EDGE('',*,*,#672,.F.);
#910=ORIENTED_EDGE('',*,*,#675,.F.);
#911=ORIENTED_EDGE('',*,*,#676,.T.);
#912=ORIENTED_EDGE('',*,*,#677,.T.);
#913=ORIENTED_EDGE('',*,*,#678,.F.);
#914=ORIENTED_EDGE('',*,*,#679,.F.);
#915=ORIENTED_EDGE('',*,*,#680,.T.);
#916=ORIENTED_EDGE('',*,*,#681,.T.);
#917=ORIENTED_EDGE('',*,*,#676,.F.);
#918=ORIENTED_EDGE('',*,*,#682,.F.);
#919=ORIENTED_EDGE('',*,*,#683,.T.);
#920=ORIENTED_EDGE('',*,*,#684,.T.);
#921=ORIENTED_EDGE('',*,*,#680,.F.);
#922=ORIENTED_EDGE('',*,*,#685,.F.);
#923=ORIENTED_EDGE('',*,*,#678,.T.);
#924=ORIENTED_EDGE('',*,*,#686,.T.);
#925=ORIENTED_EDGE('',*,*,#683,.F.);
#926=ORIENTED_EDGE('',*,*,#686,.F.);
#927=ORIENTED_EDGE('',*,*,#677,.F.);
#928=ORIENTED_EDGE('',*,*,#681,.F.);
#929=ORIENTED_EDGE('',*,*,#684,.F.);
#930=ORIENTED_EDGE('',*,*,#559,.F.);
#931=ORIENTED_EDGE('',*,*,#563,.F.);
#932=ORIENTED_EDGE('',*,*,#591,.F.);
#933=ORIENTED_EDGE('',*,*,#547,.F.);
#934=ORIENTED_EDGE('',*,*,#553,.T.);
#935=ORIENTED_EDGE('',*,*,#556,.F.);
#936=ORIENTED_EDGE('',*,*,#593,.F.);
#937=ORIENTED_EDGE('',*,*,#595,.F.);
#938=ORIENTED_EDGE('',*,*,#597,.F.);
#939=ORIENTED_EDGE('',*,*,#598,.F.);
#940=ORIENTED_EDGE('',*,*,#589,.F.);
#941=ORIENTED_EDGE('',*,*,#587,.T.);
#942=ORIENTED_EDGE('',*,*,#584,.F.);
#943=ORIENTED_EDGE('',*,*,#687,.F.);
#944=ORIENTED_EDGE('',*,*,#651,.T.);
#945=ORIENTED_EDGE('',*,*,#661,.T.);
#946=ORIENTED_EDGE('',*,*,#658,.T.);
#947=ORIENTED_EDGE('',*,*,#655,.T.);
#948=ORIENTED_EDGE('',*,*,#663,.T.);
#949=ORIENTED_EDGE('',*,*,#673,.T.);
#950=ORIENTED_EDGE('',*,*,#670,.T.);
#951=ORIENTED_EDGE('',*,*,#667,.T.);
#952=ORIENTED_EDGE('',*,*,#675,.T.);
#953=ORIENTED_EDGE('',*,*,#685,.T.);
#954=ORIENTED_EDGE('',*,*,#682,.T.);
#955=ORIENTED_EDGE('',*,*,#679,.T.);
#956=ORIENTED_EDGE('',*,*,#637,.T.);
#957=ORIENTED_EDGE('',*,*,#633,.T.);
#958=ORIENTED_EDGE('',*,*,#629,.T.);
#959=ORIENTED_EDGE('',*,*,#625,.T.);
#960=ORIENTED_EDGE('',*,*,#621,.T.);
#961=ORIENTED_EDGE('',*,*,#617,.T.);
#962=ORIENTED_EDGE('',*,*,#613,.T.);
#963=ORIENTED_EDGE('',*,*,#609,.T.);
#964=ORIENTED_EDGE('',*,*,#605,.T.);
#965=ORIENTED_EDGE('',*,*,#601,.T.);
#966=ORIENTED_EDGE('',*,*,#560,.F.);
#967=ORIENTED_EDGE('',*,*,#687,.T.);
#968=ORIENTED_EDGE('',*,*,#586,.F.);
#969=ORIENTED_EDGE('',*,*,#564,.T.);
#970=CYLINDRICAL_SURFACE('',#1083,10.);
#971=CYLINDRICAL_SURFACE('',#1087,10.);
#972=CYLINDRICAL_SURFACE('',#1090,10.);
#973=CYLINDRICAL_SURFACE('',#1111,10.);
#974=CYLINDRICAL_SURFACE('',#1114,10.);
#975=CYLINDRICAL_SURFACE('',#1116,10.);
#976=CYLINDRICAL_SURFACE('',#1118,10.);
#977=CYLINDRICAL_SURFACE('',#1121,10.);
#978=CYLINDRICAL_SURFACE('',#1126,7.);
#979=CYLINDRICAL_SURFACE('',#1127,4.49999999999999);
#980=CYLINDRICAL_SURFACE('',#1132,4.50000000000003);
#981=CYLINDRICAL_SURFACE('',#1137,4.49999999999999);
#982=CYLINDRICAL_SURFACE('',#1142,4.49999999999999);
#983=CYLINDRICAL_SURFACE('',#1147,4.49999999999999);
#984=CYLINDRICAL_SURFACE('',#1152,4.49999999999999);
#985=CYLINDRICAL_SURFACE('',#1157,4.49999999999999);
#986=CYLINDRICAL_SURFACE('',#1162,4.49999999999999);
#987=CYLINDRICAL_SURFACE('',#1167,4.49999999999999);
#988=CYLINDRICAL_SURFACE('',#1172,4.50000000000003);
#989=CYLINDRICAL_SURFACE('',#1177,2.74999999999999);
#990=CYLINDRICAL_SURFACE('',#1178,2.74999999999999);
#991=CYLINDRICAL_SURFACE('',#1179,2.74999999999999);
#992=CYLINDRICAL_SURFACE('',#1180,2.74999999999999);
#993=CYLINDRICAL_SURFACE('',#1181,2.74999999999999);
#994=CYLINDRICAL_SURFACE('',#1182,2.74999999999999);
#995=CYLINDRICAL_SURFACE('',#1183,2.74999999999999);
#996=CYLINDRICAL_SURFACE('',#1184,2.74999999999999);
#997=CYLINDRICAL_SURFACE('',#1185,2.74999999999999);
#998=CYLINDRICAL_SURFACE('',#1186,2.74999999999999);
#999=CYLINDRICAL_SURFACE('',#1188,30.);
#1000=CYLINDRICAL_SURFACE('',#1192,30.);
#1001=CYLINDRICAL_SURFACE('',#1197,30.);
#1002=CYLINDRICAL_SURFACE('',#1201,30.);
#1003=CYLINDRICAL_SURFACE('',#1206,30.);
#1004=CYLINDRICAL_SURFACE('',#1210,30.);
#1005=ADVANCED_FACE('',(#81),#970,.F.);
#1006=ADVANCED_FACE('',(#82),#53,.T.);
#1007=ADVANCED_FACE('',(#83),#971,.F.);
#1008=ADVANCED_FACE('',(#84),#972,.T.);
#1009=ADVANCED_FACE('',(#85),#54,.T.);
#1010=ADVANCED_FACE('',(#86,#19,#20,#21,#22,#23,#24,#25,#26,#27,#28,#29),
#55,.F.);
#1011=ADVANCED_FACE('',(#87),#973,.T.);
#1012=ADVANCED_FACE('',(#88),#56,.T.);
#1013=ADVANCED_FACE('',(#89),#974,.T.);
#1014=ADVANCED_FACE('',(#90),#975,.T.);
#1015=ADVANCED_FACE('',(#91),#976,.T.);
#1016=ADVANCED_FACE('',(#92),#57,.T.);
#1017=ADVANCED_FACE('',(#93),#977,.T.);
#1018=ADVANCED_FACE('',(#94),#58,.T.);
#1019=ADVANCED_FACE('',(#95),#59,.T.);
#1020=ADVANCED_FACE('',(#96),#978,.F.);
#1021=ADVANCED_FACE('',(#97),#979,.F.);
#1022=ADVANCED_FACE('',(#98,#30),#60,.T.);
#1023=ADVANCED_FACE('',(#99),#980,.F.);
#1024=ADVANCED_FACE('',(#100,#31),#61,.T.);
#1025=ADVANCED_FACE('',(#101),#981,.F.);
#1026=ADVANCED_FACE('',(#102,#32),#62,.T.);
#1027=ADVANCED_FACE('',(#103),#982,.F.);
#1028=ADVANCED_FACE('',(#104,#33),#63,.T.);
#1029=ADVANCED_FACE('',(#105),#983,.F.);
#1030=ADVANCED_FACE('',(#106,#34),#64,.T.);
#1031=ADVANCED_FACE('',(#107),#984,.F.);
#1032=ADVANCED_FACE('',(#108,#35),#65,.T.);
#1033=ADVANCED_FACE('',(#109),#985,.F.);
#1034=ADVANCED_FACE('',(#110,#36),#66,.T.);
#1035=ADVANCED_FACE('',(#111),#986,.F.);
#1036=ADVANCED_FACE('',(#112,#37),#67,.T.);
#1037=ADVANCED_FACE('',(#113),#987,.F.);
#1038=ADVANCED_FACE('',(#114,#38),#68,.T.);
#1039=ADVANCED_FACE('',(#115),#988,.F.);
#1040=ADVANCED_FACE('',(#116,#39),#69,.T.);
#1041=ADVANCED_FACE('',(#117),#989,.F.);
#1042=ADVANCED_FACE('',(#118),#990,.F.);
#1043=ADVANCED_FACE('',(#119),#991,.F.);
#1044=ADVANCED_FACE('',(#120),#992,.F.);
#1045=ADVANCED_FACE('',(#121),#993,.F.);
#1046=ADVANCED_FACE('',(#122),#994,.F.);
#1047=ADVANCED_FACE('',(#123),#995,.F.);
#1048=ADVANCED_FACE('',(#124),#996,.F.);
#1049=ADVANCED_FACE('',(#125),#997,.F.);
#1050=ADVANCED_FACE('',(#126),#998,.F.);
#1051=ADVANCED_FACE('',(#127),#70,.F.);
#1052=ADVANCED_FACE('',(#128),#999,.F.);
#1053=ADVANCED_FACE('',(#129),#71,.F.);
#1054=ADVANCED_FACE('',(#130),#1000,.F.);
#1055=ADVANCED_FACE('',(#131),#72,.T.);
#1056=ADVANCED_FACE('',(#132),#73,.F.);
#1057=ADVANCED_FACE('',(#133),#1001,.F.);
#1058=ADVANCED_FACE('',(#134),#74,.F.);
#1059=ADVANCED_FACE('',(#135),#1002,.F.);
#1060=ADVANCED_FACE('',(#136),#75,.T.);
#1061=ADVANCED_FACE('',(#137),#76,.F.);
#1062=ADVANCED_FACE('',(#138),#1003,.F.);
#1063=ADVANCED_FACE('',(#139),#77,.F.);
#1064=ADVANCED_FACE('',(#140),#1004,.F.);
#1065=ADVANCED_FACE('',(#141),#78,.T.);
#1066=ADVANCED_FACE('',(#142,#40,#41,#42,#43,#44,#45,#46,#47,#48,#49,#50,
#51,#52),#79,.T.);
#1067=ADVANCED_FACE('',(#143),#80,.T.);
#1068=CLOSED_SHELL('',(#1005,#1006,#1007,#1008,#1009,#1010,#1011,#1012,
#1013,#1014,#1015,#1016,#1017,#1018,#1019,#1020,#1021,#1022,#1023,#1024,
#1025,#1026,#1027,#1028,#1029,#1030,#1031,#1032,#1033,#1034,#1035,#1036,
#1037,#1038,#1039,#1040,#1041,#1042,#1043,#1044,#1045,#1046,#1047,#1048,
#1049,#1050,#1051,#1052,#1053,#1054,#1055,#1056,#1057,#1058,#1059,#1060,
#1061,#1062,#1063,#1064,#1065,#1066,#1067));
#1069=DERIVED_UNIT_ELEMENT(#1071,1.);
#1070=DERIVED_UNIT_ELEMENT(#1868,-3.);
#1071=(
MASS_UNIT()
NAMED_UNIT(*)
SI_UNIT(.KILO.,.GRAM.)
);
#1072=DERIVED_UNIT((#1069,#1070));
#1073=MEASURE_REPRESENTATION_ITEM('density measure',
POSITIVE_RATIO_MEASURE(7850.),#1072);
#1074=PROPERTY_DEFINITION_REPRESENTATION(#1079,#1076);
#1075=PROPERTY_DEFINITION_REPRESENTATION(#1080,#1077);
#1076=REPRESENTATION('material name',(#1078),#1865);
#1077=REPRESENTATION('density',(#1073),#1865);
#1078=DESCRIPTIVE_REPRESENTATION_ITEM('Steel','Steel');
#1079=PROPERTY_DEFINITION('material property','material name',#1880);
#1080=PROPERTY_DEFINITION('material property','density of part',#1880);
#1081=AXIS2_PLACEMENT_3D('',#1560,#1217,#1218);
#1082=AXIS2_PLACEMENT_3D('',#1561,#1219,#1220);
#1083=AXIS2_PLACEMENT_3D('',#1562,#1221,#1222);
#1084=AXIS2_PLACEMENT_3D('',#1565,#1223,#1224);
#1085=AXIS2_PLACEMENT_3D('',#1569,#1226,#1227);
#1086=AXIS2_PLACEMENT_3D('',#1571,#1229,#1230);
#1087=AXIS2_PLACEMENT_3D('',#1577,#1234,#1235);
#1088=AXIS2_PLACEMENT_3D('',#1579,#1236,#1237);
#1089=AXIS2_PLACEMENT_3D('',#1582,#1239,#1240);
#1090=AXIS2_PLACEMENT_3D('',#1583,#1241,#1242);
#1091=AXIS2_PLACEMENT_3D('',#1586,#1243,#1244);
#1092=AXIS2_PLACEMENT_3D('',#1590,#1246,#1247);
#1093=AXIS2_PLACEMENT_3D('',#1592,#1249,#1250);
#1094=AXIS2_PLACEMENT_3D('',#1598,#1254,#1255);
#1095=AXIS2_PLACEMENT_3D('',#1602,#1257,#1258);
#1096=AXIS2_PLACEMENT_3D('',#1606,#1260,#1261);
#1097=AXIS2_PLACEMENT_3D('',#1610,#1263,#1264);
#1098=AXIS2_PLACEMENT_3D('',#1613,#1266,#1267);
#1099=AXIS2_PLACEMENT_3D('',#1614,#1268,#1269);
#1100=AXIS2_PLACEMENT_3D('',#1616,#1270,#1271);
#1101=AXIS2_PLACEMENT_3D('',#1618,#1272,#1273);
#1102=AXIS2_PLACEMENT_3D('',#1620,#1274,#1275);
#1103=AXIS2_PLACEMENT_3D('',#1622,#1276,#1277);
#1104=AXIS2_PLACEMENT_3D('',#1624,#1278,#1279);
#1105=AXIS2_PLACEMENT_3D('',#1626,#1280,#1281);
#1106=AXIS2_PLACEMENT_3D('',#1628,#1282,#1283);
#1107=AXIS2_PLACEMENT_3D('',#1630,#1284,#1285);
#1108=AXIS2_PLACEMENT_3D('',#1632,#1286,#1287);
#1109=AXIS2_PLACEMENT_3D('',#1634,#1288,#1289);
#1110=AXIS2_PLACEMENT_3D('',#1636,#1290,#1291);
#1111=AXIS2_PLACEMENT_3D('',#1637,#1292,#1293);
#1112=AXIS2_PLACEMENT_3D('',#1640,#1294,#1295);
#1113=AXIS2_PLACEMENT_3D('',#1643,#1298,#1299);
#1114=AXIS2_PLACEMENT_3D('',#1647,#1302,#1303);
#1115=AXIS2_PLACEMENT_3D('',#1649,#1304,#1305);
#1116=AXIS2_PLACEMENT_3D('',#1651,#1307,#1308);
#1117=AXIS2_PLACEMENT_3D('',#1652,#1309,#1310);
#1118=AXIS2_PLACEMENT_3D('',#1653,#1311,#1312);
#1119=AXIS2_PLACEMENT_3D('',#1656,#1314,#1315);
#1120=AXIS2_PLACEMENT_3D('',#1657,#1316,#1317);
#1121=AXIS2_PLACEMENT_3D('',#1661,#1320,#1321);
#1122=AXIS2_PLACEMENT_3D('',#1664,#1323,#1324);
#1123=AXIS2_PLACEMENT_3D('',#1665,#1325,#1326);
#1124=AXIS2_PLACEMENT_3D('',#1667,#1328,#1329);
#1125=AXIS2_PLACEMENT_3D('',#1669,#1330,#1331);
#1126=AXIS2_PLACEMENT_3D('',#1670,#1332,#1333);
#1127=AXIS2_PLACEMENT_3D('',#1672,#1335,#1336);
#1128=AXIS2_PLACEMENT_3D('',#1674,#1337,#1338);
#1129=AXIS2_PLACEMENT_3D('',#1677,#1340,#1341);
#1130=AXIS2_PLACEMENT_3D('',#1678,#1342,#1343);
#1131=AXIS2_PLACEMENT_3D('',#1680,#1344,#1345);
#1132=AXIS2_PLACEMENT_3D('',#1681,#1346,#1347);
#1133=AXIS2_PLACEMENT_3D('',#1683,#1348,#1349);
#1134=AXIS2_PLACEMENT_3D('',#1686,#1351,#1352);
#1135=AXIS2_PLACEMENT_3D('',#1687,#1353,#1354);
#1136=AXIS2_PLACEMENT_3D('',#1689,#1355,#1356);
#1137=AXIS2_PLACEMENT_3D('',#1690,#1357,#1358);
#1138=AXIS2_PLACEMENT_3D('',#1692,#1359,#1360);
#1139=AXIS2_PLACEMENT_3D('',#1695,#1362,#1363);
#1140=AXIS2_PLACEMENT_3D('',#1696,#1364,#1365);
#1141=AXIS2_PLACEMENT_3D('',#1698,#1366,#1367);
#1142=AXIS2_PLACEMENT_3D('',#1699,#1368,#1369);
#1143=AXIS2_PLACEMENT_3D('',#1701,#1370,#1371);
#1144=AXIS2_PLACEMENT_3D('',#1704,#1373,#1374);
#1145=AXIS2_PLACEMENT_3D('',#1705,#1375,#1376);
#1146=AXIS2_PLACEMENT_3D('',#1707,#1377,#1378);
#1147=AXIS2_PLACEMENT_3D('',#1708,#1379,#1380);
#1148=AXIS2_PLACEMENT_3D('',#1710,#1381,#1382);
#1149=AXIS2_PLACEMENT_3D('',#1713,#1384,#1385);
#1150=AXIS2_PLACEMENT_3D('',#1714,#1386,#1387);
#1151=AXIS2_PLACEMENT_3D('',#1716,#1388,#1389);
#1152=AXIS2_PLACEMENT_3D('',#1717,#1390,#1391);
#1153=AXIS2_PLACEMENT_3D('',#1719,#1392,#1393);
#1154=AXIS2_PLACEMENT_3D('',#1722,#1395,#1396);
#1155=AXIS2_PLACEMENT_3D('',#1723,#1397,#1398);
#1156=AXIS2_PLACEMENT_3D('',#1725,#1399,#1400);
#1157=AXIS2_PLACEMENT_3D('',#1726,#1401,#1402);
#1158=AXIS2_PLACEMENT_3D('',#1728,#1403,#1404);
#1159=AXIS2_PLACEMENT_3D('',#1731,#1406,#1407);
#1160=AXIS2_PLACEMENT_3D('',#1732,#1408,#1409);
#1161=AXIS2_PLACEMENT_3D('',#1734,#1410,#1411);
#1162=AXIS2_PLACEMENT_3D('',#1735,#1412,#1413);
#1163=AXIS2_PLACEMENT_3D('',#1737,#1414,#1415);
#1164=AXIS2_PLACEMENT_3D('',#1740,#1417,#1418);
#1165=AXIS2_PLACEMENT_3D('',#1741,#1419,#1420);
#1166=AXIS2_PLACEMENT_3D('',#1743,#1421,#1422);
#1167=AXIS2_PLACEMENT_3D('',#1744,#1423,#1424);
#1168=AXIS2_PLACEMENT_3D('',#1746,#1425,#1426);
#1169=AXIS2_PLACEMENT_3D('',#1749,#1428,#1429);
#1170=AXIS2_PLACEMENT_3D('',#1750,#1430,#1431);
#1171=AXIS2_PLACEMENT_3D('',#1752,#1432,#1433);
#1172=AXIS2_PLACEMENT_3D('',#1753,#1434,#1435);
#1173=AXIS2_PLACEMENT_3D('',#1755,#1436,#1437);
#1174=AXIS2_PLACEMENT_3D('',#1758,#1439,#1440);
#1175=AXIS2_PLACEMENT_3D('',#1759,#1441,#1442);
#1176=AXIS2_PLACEMENT_3D('',#1761,#1443,#1444);
#1177=AXIS2_PLACEMENT_3D('',#1762,#1445,#1446);
#1178=AXIS2_PLACEMENT_3D('',#1764,#1448,#1449);
#1179=AXIS2_PLACEMENT_3D('',#1766,#1451,#1452);
#1180=AXIS2_PLACEMENT_3D('',#1768,#1454,#1455);
#1181=AXIS2_PLACEMENT_3D('',#1770,#1457,#1458);
#1182=AXIS2_PLACEMENT_3D('',#1772,#1460,#1461);
#1183=AXIS2_PLACEMENT_3D('',#1774,#1463,#1464);
#1184=AXIS2_PLACEMENT_3D('',#1776,#1466,#1467);
#1185=AXIS2_PLACEMENT_3D('',#1778,#1469,#1470);
#1186=AXIS2_PLACEMENT_3D('',#1780,#1472,#1473);
#1187=AXIS2_PLACEMENT_3D('',#1782,#1475,#1476);
#1188=AXIS2_PLACEMENT_3D('',#1791,#1481,#1482);
#1189=AXIS2_PLACEMENT_3D('',#1793,#1483,#1484);
#1190=AXIS2_PLACEMENT_3D('',#1796,#1486,#1487);
#1191=AXIS2_PLACEMENT_3D('',#1797,#1488,#1489);
#1192=AXIS2_PLACEMENT_3D('',#1803,#1493,#1494);
#1193=AXIS2_PLACEMENT_3D('',#1804,#1495,#1496);
#1194=AXIS2_PLACEMENT_3D('',#1805,#1497,#1498);
#1195=AXIS2_PLACEMENT_3D('',#1806,#1499,#1500);
#1196=AXIS2_PLACEMENT_3D('',#1807,#1501,#1502);
#1197=AXIS2_PLACEMENT_3D('',#1816,#1507,#1508);
#1198=AXIS2_PLACEMENT_3D('',#1818,#1509,#1510);
#1199=AXIS2_PLACEMENT_3D('',#1821,#1512,#1513);
#1200=AXIS2_PLACEMENT_3D('',#1822,#1514,#1515);
#1201=AXIS2_PLACEMENT_3D('',#1828,#1519,#1520);
#1202=AXIS2_PLACEMENT_3D('',#1829,#1521,#1522);
#1203=AXIS2_PLACEMENT_3D('',#1830,#1523,#1524);
#1204=AXIS2_PLACEMENT_3D('',#1831,#1525,#1526);
#1205=AXIS2_PLACEMENT_3D('',#1832,#1527,#1528);
#1206=AXIS2_PLACEMENT_3D('',#1841,#1533,#1534);
#1207=AXIS2_PLACEMENT_3D('',#1843,#1535,#1536);
#1208=AXIS2_PLACEMENT_3D('',#1846,#1538,#1539);
#1209=AXIS2_PLACEMENT_3D('',#1847,#1540,#1541);
#1210=AXIS2_PLACEMENT_3D('',#1853,#1545,#1546);
#1211=AXIS2_PLACEMENT_3D('',#1854,#1547,#1548);
#1212=AXIS2_PLACEMENT_3D('',#1855,#1549,#1550);
#1213=AXIS2_PLACEMENT_3D('',#1856,#1551,#1552);
#1214=AXIS2_PLACEMENT_3D('',#1857,#1553,#1554);
#1215=AXIS2_PLACEMENT_3D('',#1859,#1556,#1557);
#1216=AXIS2_PLACEMENT_3D('',#1860,#1558,#1559);
#1217=DIRECTION('axis',(0.,0.,1.));
#1218=DIRECTION('refdir',(1.,0.,0.));
#1219=DIRECTION('axis',(0.,0.,1.));
#1220=DIRECTION('refdir',(1.,0.,0.));
#1221=DIRECTION('center_axis',(0.,0.,1.));
#1222=DIRECTION('ref_axis',(0.,-1.,0.));
#1223=DIRECTION('center_axis',(0.,0.,1.));
#1224=DIRECTION('ref_axis',(0.,-1.,0.));
#1225=DIRECTION('',(0.,0.,-1.));
#1226=DIRECTION('center_axis',(0.,0.,-1.));
#1227=DIRECTION('ref_axis',(0.,-1.,0.));
#1228=DIRECTION('',(0.,0.,1.));
#1229=DIRECTION('center_axis',(0.,-1.,0.));
#1230=DIRECTION('ref_axis',(1.,0.,0.));
#1231=DIRECTION('',(-1.,0.,0.));
#1232=DIRECTION('',(0.,0.,-1.));
#1233=DIRECTION('',(1.,0.,0.));
#1234=DIRECTION('center_axis',(0.,0.,-1.));
#1235=DIRECTION('ref_axis',(0.,-1.,0.));
#1236=DIRECTION('center_axis',(0.,0.,-1.));
#1237=DIRECTION('ref_axis',(0.,-1.,0.));
#1238=DIRECTION('',(0.,0.,1.));
#1239=DIRECTION('center_axis',(0.,0.,1.));
#1240=DIRECTION('ref_axis',(0.,-1.,0.));
#1241=DIRECTION('center_axis',(0.,0.,-1.));
#1242=DIRECTION('ref_axis',(-0.965925826289068,-0.258819045102521,0.));
#1243=DIRECTION('center_axis',(0.,0.,1.));
#1244=DIRECTION('ref_axis',(-0.965925826289068,-0.258819045102521,0.));
#1245=DIRECTION('',(0.,0.,1.));
#1246=DIRECTION('center_axis',(0.,0.,-1.));
#1247=DIRECTION('ref_axis',(-0.965925826289068,-0.258819045102521,0.));
#1248=DIRECTION('',(0.,0.,-1.));
#1249=DIRECTION('center_axis',(-0.499999999999999,-0.866025403784439,0.));
#1250=DIRECTION('ref_axis',(0.,0.,-1.));
#1251=DIRECTION('',(0.866025403784439,-0.499999999999999,0.));
#1252=DIRECTION('',(0.,0.,-1.));
#1253=DIRECTION('',(-0.866025403784439,0.5,0.));
#1254=DIRECTION('center_axis',(0.,0.,1.));
#1255=DIRECTION('ref_axis',(-1.,0.,0.));
#1256=DIRECTION('',(-0.5,-0.866025403784439,0.));
#1257=DIRECTION('center_axis',(0.,0.,1.));
#1258=DIRECTION('ref_axis',(-0.5,0.866025403784439,0.));
#1259=DIRECTION('',(-1.,0.,0.));
#1260=DIRECTION('center_axis',(0.,0.,1.));
#1261=DIRECTION('ref_axis',(0.5,0.866025403784439,0.));
#1262=DIRECTION('',(-0.5,0.866025403784439,0.));
#1263=DIRECTION('center_axis',(0.,0.,1.));
#1264=DIRECTION('ref_axis',(0.965925826289069,-0.258819045102518,0.));
#1265=DIRECTION('',(0.866025403784438,0.500000000000001,0.));
#1266=DIRECTION('center_axis',(0.,0.,1.));
#1267=DIRECTION('ref_axis',(-0.258819045102519,-0.965925826289069,0.));
#1268=DIRECTION('center_axis',(0.,0.,1.));
#1269=DIRECTION('ref_axis',(0.258819045102517,-0.965925826289069,0.));
#1270=DIRECTION('center_axis',(0.,0.,1.));
#1271=DIRECTION('ref_axis',(1.,0.,0.));
#1272=DIRECTION('center_axis',(0.,0.,1.));
#1273=DIRECTION('ref_axis',(-1.,0.,0.));
#1274=DIRECTION('center_axis',(0.,0.,1.));
#1275=DIRECTION('ref_axis',(-1.,0.,0.));
#1276=DIRECTION('center_axis',(0.,0.,1.));
#1277=DIRECTION('ref_axis',(-1.,0.,0.));
#1278=DIRECTION('center_axis',(0.,0.,1.));
#1279=DIRECTION('ref_axis',(-1.,0.,0.));
#1280=DIRECTION('center_axis',(0.,0.,1.));
#1281=DIRECTION('ref_axis',(-1.,0.,0.));
#1282=DIRECTION('center_axis',(0.,0.,1.));
#1283=DIRECTION('ref_axis',(-1.,0.,0.));
#1284=DIRECTION('center_axis',(0.,0.,1.));
#1285=DIRECTION('ref_axis',(-1.,0.,0.));
#1286=DIRECTION('center_axis',(0.,0.,1.));
#1287=DIRECTION('ref_axis',(-1.,0.,0.));
#1288=DIRECTION('center_axis',(0.,0.,1.));
#1289=DIRECTION('ref_axis',(-1.,0.,0.));
#1290=DIRECTION('center_axis',(0.,0.,1.));
#1291=DIRECTION('ref_axis',(-1.,0.,0.));
#1292=DIRECTION('center_axis',(0.,0.,1.));
#1293=DIRECTION('ref_axis',(-0.5,0.866025403784439,0.));
#1294=DIRECTION('center_axis',(0.,0.,-1.));
#1295=DIRECTION('ref_axis',(-0.5,0.866025403784439,0.));
#1296=DIRECTION('',(0.,0.,-1.));
#1297=DIRECTION('',(0.,0.,1.));
#1298=DIRECTION('center_axis',(0.,1.,0.));
#1299=DIRECTION('ref_axis',(-1.,0.,0.));
#1300=DIRECTION('',(-1.,0.,0.));
#1301=DIRECTION('',(0.,0.,1.));
#1302=DIRECTION('center_axis',(0.,0.,1.));
#1303=DIRECTION('ref_axis',(0.5,0.866025403784439,0.));
#1304=DIRECTION('center_axis',(0.,0.,-1.));
#1305=DIRECTION('ref_axis',(0.5,0.866025403784439,0.));
#1306=DIRECTION('',(0.,0.,-1.));
#1307=DIRECTION('center_axis',(0.,0.,-1.));
#1308=DIRECTION('ref_axis',(0.258819045102517,-0.965925826289069,0.));
#1309=DIRECTION('center_axis',(0.,0.,-1.));
#1310=DIRECTION('ref_axis',(0.258819045102517,-0.965925826289069,0.));
#1311=DIRECTION('center_axis',(0.,0.,-1.));
#1312=DIRECTION('ref_axis',(-0.258819045102519,-0.965925826289069,0.));
#1313=DIRECTION('',(0.,0.,1.));
#1314=DIRECTION('center_axis',(0.,0.,-1.));
#1315=DIRECTION('ref_axis',(-0.258819045102519,-0.965925826289069,0.));
#1316=DIRECTION('center_axis',(0.500000000000001,-0.866025403784438,0.));
#1317=DIRECTION('ref_axis',(0.,0.,-1.));
#1318=DIRECTION('',(0.,0.,-1.));
#1319=DIRECTION('',(-0.866025403784439,-0.5,0.));
#1320=DIRECTION('center_axis',(0.,0.,-1.));
#1321=DIRECTION('ref_axis',(0.965925826289069,-0.258819045102518,0.));
#1322=DIRECTION('',(0.,0.,1.));
#1323=DIRECTION('center_axis',(0.,0.,-1.));
#1324=DIRECTION('ref_axis',(0.965925826289069,-0.258819045102518,0.));
#1325=DIRECTION('center_axis',(0.866025403784439,0.5,0.));
#1326=DIRECTION('ref_axis',(-0.5,0.866025403784439,0.));
#1327=DIRECTION('',(0.5,-0.866025403784439,0.));
#1328=DIRECTION('center_axis',(0.,0.,-1.));
#1329=DIRECTION('ref_axis',(1.,0.,0.));
#1330=DIRECTION('center_axis',(0.,0.,-1.));
#1331=DIRECTION('ref_axis',(1.,0.,0.));
#1332=DIRECTION('center_axis',(0.,0.,-1.));
#1333=DIRECTION('ref_axis',(1.,0.,0.));
#1334=DIRECTION('',(0.,0.,1.));
#1335=DIRECTION('center_axis',(0.,0.,-1.));
#1336=DIRECTION('ref_axis',(-1.,0.,0.));
#1337=DIRECTION('center_axis',(0.,0.,-1.));
#1338=DIRECTION('ref_axis',(-1.,0.,0.));
#1339=DIRECTION('',(0.,0.,-1.));
#1340=DIRECTION('center_axis',(0.,0.,-1.));
#1341=DIRECTION('ref_axis',(-1.,0.,0.));
#1342=DIRECTION('center_axis',(0.,0.,1.));
#1343=DIRECTION('ref_axis',(-1.,0.,0.));
#1344=DIRECTION('center_axis',(0.,0.,1.));
#1345=DIRECTION('ref_axis',(-1.,0.,0.));
#1346=DIRECTION('center_axis',(0.,0.,-1.));
#1347=DIRECTION('ref_axis',(-1.,0.,0.));
#1348=DIRECTION('center_axis',(0.,0.,-1.));
#1349=DIRECTION('ref_axis',(-1.,0.,0.));
#1350=DIRECTION('',(0.,0.,-1.));
#1351=DIRECTION('center_axis',(0.,0.,-1.));
#1352=DIRECTION('ref_axis',(-1.,0.,0.));
#1353=DIRECTION('center_axis',(0.,0.,1.));
#1354=DIRECTION('ref_axis',(-1.,0.,0.));
#1355=DIRECTION('center_axis',(0.,0.,1.));
#1356=DIRECTION('ref_axis',(-1.,0.,0.));
#1357=DIRECTION('center_axis',(0.,0.,-1.));
#1358=DIRECTION('ref_axis',(-1.,0.,0.));
#1359=DIRECTION('center_axis',(0.,0.,-1.));
#1360=DIRECTION('ref_axis',(-1.,0.,0.));
#1361=DIRECTION('',(0.,0.,-1.));
#1362=DIRECTION('center_axis',(0.,0.,-1.));
#1363=DIRECTION('ref_axis',(-1.,0.,0.));
#1364=DIRECTION('center_axis',(0.,0.,1.));
#1365=DIRECTION('ref_axis',(-1.,0.,0.));
#1366=DIRECTION('center_axis',(0.,0.,1.));
#1367=DIRECTION('ref_axis',(-1.,0.,0.));
#1368=DIRECTION('center_axis',(0.,0.,-1.));
#1369=DIRECTION('ref_axis',(-1.,0.,0.));
#1370=DIRECTION('center_axis',(0.,0.,-1.));
#1371=DIRECTION('ref_axis',(-1.,0.,0.));
#1372=DIRECTION('',(0.,0.,-1.));
#1373=DIRECTION('center_axis',(0.,0.,-1.));
#1374=DIRECTION('ref_axis',(-1.,0.,0.));
#1375=DIRECTION('center_axis',(0.,0.,1.));
#1376=DIRECTION('ref_axis',(-1.,0.,0.));
#1377=DIRECTION('center_axis',(0.,0.,1.));
#1378=DIRECTION('ref_axis',(-1.,0.,0.));
#1379=DIRECTION('center_axis',(0.,0.,-1.));
#1380=DIRECTION('ref_axis',(-1.,0.,0.));
#1381=DIRECTION('center_axis',(0.,0.,-1.));
#1382=DIRECTION('ref_axis',(-1.,0.,0.));
#1383=DIRECTION('',(0.,0.,-1.));
#1384=DIRECTION('center_axis',(0.,0.,-1.));
#1385=DIRECTION('ref_axis',(-1.,0.,0.));
#1386=DIRECTION('center_axis',(0.,0.,1.));
#1387=DIRECTION('ref_axis',(-1.,0.,0.));
#1388=DIRECTION('center_axis',(0.,0.,1.));
#1389=DIRECTION('ref_axis',(-1.,0.,0.));
#1390=DIRECTION('center_axis',(0.,0.,-1.));
#1391=DIRECTION('ref_axis',(-1.,0.,0.));
#1392=DIRECTION('center_axis',(0.,0.,-1.));
#1393=DIRECTION('ref_axis',(-1.,0.,0.));
#1394=DIRECTION('',(0.,0.,-1.));
#1395=DIRECTION('center_axis',(0.,0.,-1.));
#1396=DIRECTION('ref_axis',(-1.,0.,0.));
#1397=DIRECTION('center_axis',(0.,0.,1.));
#1398=DIRECTION('ref_axis',(-1.,0.,0.));
#1399=DIRECTION('center_axis',(0.,0.,1.));
#1400=DIRECTION('ref_axis',(-1.,0.,0.));
#1401=DIRECTION('center_axis',(0.,0.,-1.));
#1402=DIRECTION('ref_axis',(-1.,0.,0.));
#1403=DIRECTION('center_axis',(0.,0.,-1.));
#1404=DIRECTION('ref_axis',(-1.,0.,0.));
#1405=DIRECTION('',(0.,0.,-1.));
#1406=DIRECTION('center_axis',(0.,0.,-1.));
#1407=DIRECTION('ref_axis',(-1.,0.,0.));
#1408=DIRECTION('center_axis',(0.,0.,1.));
#1409=DIRECTION('ref_axis',(-1.,0.,0.));
#1410=DIRECTION('center_axis',(0.,0.,1.));
#1411=DIRECTION('ref_axis',(-1.,0.,0.));
#1412=DIRECTION('center_axis',(0.,0.,-1.));
#1413=DIRECTION('ref_axis',(-1.,0.,0.));
#1414=DIRECTION('center_axis',(0.,0.,-1.));
#1415=DIRECTION('ref_axis',(-1.,0.,0.));
#1416=DIRECTION('',(0.,0.,-1.));
#1417=DIRECTION('center_axis',(0.,0.,-1.));
#1418=DIRECTION('ref_axis',(-1.,0.,0.));
#1419=DIRECTION('center_axis',(0.,0.,1.));
#1420=DIRECTION('ref_axis',(-1.,0.,0.));
#1421=DIRECTION('center_axis',(0.,0.,1.));
#1422=DIRECTION('ref_axis',(-1.,0.,0.));
#1423=DIRECTION('center_axis',(0.,0.,-1.));
#1424=DIRECTION('ref_axis',(-1.,0.,0.));
#1425=DIRECTION('center_axis',(0.,0.,-1.));
#1426=DIRECTION('ref_axis',(-1.,0.,0.));
#1427=DIRECTION('',(0.,0.,-1.));
#1428=DIRECTION('center_axis',(0.,0.,-1.));
#1429=DIRECTION('ref_axis',(-1.,0.,0.));
#1430=DIRECTION('center_axis',(0.,0.,1.));
#1431=DIRECTION('ref_axis',(-1.,0.,0.));
#1432=DIRECTION('center_axis',(0.,0.,1.));
#1433=DIRECTION('ref_axis',(-1.,0.,0.));
#1434=DIRECTION('center_axis',(0.,0.,-1.));
#1435=DIRECTION('ref_axis',(-1.,0.,0.));
#1436=DIRECTION('center_axis',(0.,0.,-1.));
#1437=DIRECTION('ref_axis',(-1.,0.,0.));
#1438=DIRECTION('',(0.,0.,-1.));
#1439=DIRECTION('center_axis',(0.,0.,-1.));
#1440=DIRECTION('ref_axis',(-1.,0.,0.));
#1441=DIRECTION('center_axis',(0.,0.,1.));
#1442=DIRECTION('ref_axis',(-1.,0.,0.));
#1443=DIRECTION('center_axis',(0.,0.,1.));
#1444=DIRECTION('ref_axis',(-1.,0.,0.));
#1445=DIRECTION('center_axis',(0.,0.,-1.));
#1446=DIRECTION('ref_axis',(-1.,0.,0.));
#1447=DIRECTION('',(0.,0.,-1.));
#1448=DIRECTION('center_axis',(0.,0.,-1.));
#1449=DIRECTION('ref_axis',(-1.,0.,0.));
#1450=DIRECTION('',(0.,0.,-1.));
#1451=DIRECTION('center_axis',(0.,0.,-1.));
#1452=DIRECTION('ref_axis',(-1.,0.,0.));
#1453=DIRECTION('',(0.,0.,-1.));
#1454=DIRECTION('center_axis',(0.,0.,-1.));
#1455=DIRECTION('ref_axis',(-1.,0.,0.));
#1456=DIRECTION('',(0.,0.,-1.));
#1457=DIRECTION('center_axis',(0.,0.,-1.));
#1458=DIRECTION('ref_axis',(-1.,0.,0.));
#1459=DIRECTION('',(0.,0.,-1.));
#1460=DIRECTION('center_axis',(0.,0.,-1.));
#1461=DIRECTION('ref_axis',(-1.,0.,0.));
#1462=DIRECTION('',(0.,0.,-1.));
#1463=DIRECTION('center_axis',(0.,0.,-1.));
#1464=DIRECTION('ref_axis',(-1.,0.,0.));
#1465=DIRECTION('',(0.,0.,-1.));
#1466=DIRECTION('center_axis',(0.,0.,-1.));
#1467=DIRECTION('ref_axis',(-1.,0.,0.));
#1468=DIRECTION('',(0.,0.,-1.));
#1469=DIRECTION('center_axis',(0.,0.,-1.));
#1470=DIRECTION('ref_axis',(-1.,0.,0.));
#1471=DIRECTION('',(0.,0.,-1.));
#1472=DIRECTION('center_axis',(0.,0.,-1.));
#1473=DIRECTION('ref_axis',(-1.,0.,0.));
#1474=DIRECTION('',(0.,0.,-1.));
#1475=DIRECTION('center_axis',(0.690981928534433,-0.722872031855457,0.));
#1476=DIRECTION('ref_axis',(-0.722872031855457,-0.690981928534433,0.));
#1477=DIRECTION('',(-0.722872031855457,-0.690981928534433,0.));
#1478=DIRECTION('',(0.,0.,-1.));
#1479=DIRECTION('',(-0.722872031855457,-0.690981928534433,0.));
#1480=DIRECTION('',(0.,0.,-1.));
#1481=DIRECTION('center_axis',(0.,0.,-1.));
#1482=DIRECTION('ref_axis',(0.690981928534433,-0.722872031855457,0.));
#1483=DIRECTION('center_axis',(0.,0.,-1.));
#1484=DIRECTION('ref_axis',(0.690981928534433,-0.722872031855457,0.));
#1485=DIRECTION('',(0.,0.,-1.));
#1486=DIRECTION('center_axis',(0.,0.,-1.));
#1487=DIRECTION('ref_axis',(0.690981928534433,-0.722872031855457,0.));
#1488=DIRECTION('center_axis',(-0.690981928534433,0.722872031855457,0.));
#1489=DIRECTION('ref_axis',(0.722872031855457,0.690981928534433,0.));
#1490=DIRECTION('',(0.722872031855457,0.690981928534433,0.));
#1491=DIRECTION('',(0.,0.,-1.));
#1492=DIRECTION('',(0.722872031855457,0.690981928534433,0.));
#1493=DIRECTION('center_axis',(0.,0.,-1.));
#1494=DIRECTION('ref_axis',(-0.690981928534433,0.722872031855457,0.));
#1495=DIRECTION('center_axis',(0.,0.,-1.));
#1496=DIRECTION('ref_axis',(-0.690981928534433,0.722872031855457,0.));
#1497=DIRECTION('center_axis',(0.,0.,-1.));
#1498=DIRECTION('ref_axis',(-0.690981928534433,0.722872031855457,0.));
#1499=DIRECTION('center_axis',(0.,0.,1.));
#1500=DIRECTION('ref_axis',(-1.,0.,0.));
#1501=DIRECTION('center_axis',(-1.,2.53765262771464E-16,0.));
#1502=DIRECTION('ref_axis',(2.53765262771464E-16,1.,0.));
#1503=DIRECTION('',(2.53765262771464E-16,1.,0.));
#1504=DIRECTION('',(0.,0.,-1.));
#1505=DIRECTION('',(2.53765262771464E-16,1.,0.));
#1506=DIRECTION('',(0.,0.,-1.));
#1507=DIRECTION('center_axis',(0.,0.,-1.));
#1508=DIRECTION('ref_axis',(-1.,0.,0.));
#1509=DIRECTION('center_axis',(0.,0.,-1.));
#1510=DIRECTION('ref_axis',(-1.,0.,0.));
#1511=DIRECTION('',(0.,0.,-1.));
#1512=DIRECTION('center_axis',(0.,0.,-1.));
#1513=DIRECTION('ref_axis',(-1.,0.,0.));
#1514=DIRECTION('center_axis',(1.,-2.53765262771464E-16,0.));
#1515=DIRECTION('ref_axis',(-2.53765262771464E-16,-1.,0.));
#1516=DIRECTION('',(-2.53765262771464E-16,-1.,0.));
#1517=DIRECTION('',(0.,0.,-1.));
#1518=DIRECTION('',(-2.53765262771464E-16,-1.,0.));
#1519=DIRECTION('center_axis',(0.,0.,-1.));
#1520=DIRECTION('ref_axis',(1.,0.,0.));
#1521=DIRECTION('center_axis',(0.,0.,-1.));
#1522=DIRECTION('ref_axis',(1.,0.,0.));
#1523=DIRECTION('center_axis',(0.,0.,-1.));
#1524=DIRECTION('ref_axis',(1.,0.,0.));
#1525=DIRECTION('center_axis',(0.,0.,1.));
#1526=DIRECTION('ref_axis',(-1.,0.,0.));
#1527=DIRECTION('center_axis',(0.690981928534433,0.722872031855456,0.));
#1528=DIRECTION('ref_axis',(0.722872031855456,-0.690981928534433,0.));
#1529=DIRECTION('',(0.722872031855456,-0.690981928534433,0.));
#1530=DIRECTION('',(0.,0.,-1.));
#1531=DIRECTION('',(0.722872031855456,-0.690981928534433,0.));
#1532=DIRECTION('',(0.,0.,-1.));
#1533=DIRECTION('center_axis',(0.,0.,-1.));
#1534=DIRECTION('ref_axis',(0.690981928534433,0.722872031855456,0.));
#1535=DIRECTION('center_axis',(0.,0.,-1.));
#1536=DIRECTION('ref_axis',(0.690981928534433,0.722872031855456,0.));
#1537=DIRECTION('',(0.,0.,-1.));
#1538=DIRECTION('center_axis',(0.,0.,-1.));
#1539=DIRECTION('ref_axis',(0.690981928534433,0.722872031855456,0.));
#1540=DIRECTION('center_axis',(-0.690981928534433,-0.722872031855456,0.));
#1541=DIRECTION('ref_axis',(-0.722872031855456,0.690981928534433,0.));
#1542=DIRECTION('',(-0.722872031855456,0.690981928534433,0.));
#1543=DIRECTION('',(0.,0.,-1.));
#1544=DIRECTION('',(-0.722872031855456,0.690981928534433,0.));
#1545=DIRECTION('center_axis',(0.,0.,-1.));
#1546=DIRECTION('ref_axis',(-0.690981928534433,-0.722872031855456,0.));
#1547=DIRECTION('center_axis',(0.,0.,-1.));
#1548=DIRECTION('ref_axis',(-0.690981928534433,-0.722872031855456,0.));
#1549=DIRECTION('center_axis',(0.,0.,-1.));
#1550=DIRECTION('ref_axis',(-0.690981928534433,-0.722872031855456,0.));
#1551=DIRECTION('center_axis',(0.,0.,1.));
#1552=DIRECTION('ref_axis',(-1.,0.,0.));
#1553=DIRECTION('center_axis',(0.,0.,1.));
#1554=DIRECTION('ref_axis',(1.,0.,0.));
#1555=DIRECTION('',(0.5,0.866025403784439,0.));
#1556=DIRECTION('center_axis',(-0.866025403784439,0.5,0.));
#1557=DIRECTION('ref_axis',(-0.5,-0.866025403784439,0.));
#1558=DIRECTION('',(0.,0.,1.));
#1559=DIRECTION('',(1.,0.,0.));
#1560=CARTESIAN_POINT('',(0.,0.,0.));
#1561=CARTESIAN_POINT('',(0.,0.,0.));
#1562=CARTESIAN_POINT('Origin',(-161.437626767085,-240.710018436312,33.7394549187389));
#1563=CARTESIAN_POINT('',(-161.437626767085,-230.710018436312,103.739454918739));
#1564=CARTESIAN_POINT('',(-169.895667476488,-235.375081945773,103.739454918739));
#1565=CARTESIAN_POINT('Origin',(-161.437626767085,-240.710018436312,103.739454918739));
#1566=CARTESIAN_POINT('',(-169.895667476488,-235.375081945773,78.739454918739));
#1567=CARTESIAN_POINT('',(-169.895667476488,-235.375081945773,33.7394549187389));
#1568=CARTESIAN_POINT('',(-161.437626767085,-230.710018436312,78.7394549187389));
#1569=CARTESIAN_POINT('Origin',(-161.437626767085,-240.710018436312,78.7394549187389));
#1570=CARTESIAN_POINT('',(-161.437626767085,-230.710018436312,33.7394549187389));
#1571=CARTESIAN_POINT('Origin',(-167.193454148047,-230.710018436312,78.7394549187389));
#1572=CARTESIAN_POINT('',(161.437626767085,-230.710018436312,78.7394549187389));
#1573=CARTESIAN_POINT('',(167.193454148047,-230.710018436312,78.7394549187389));
#1574=CARTESIAN_POINT('',(161.437626767085,-230.710018436312,103.739454918739));
#1575=CARTESIAN_POINT('',(161.437626767085,-230.710018436312,33.7394549187389));
#1576=CARTESIAN_POINT('',(167.193454148047,-230.710018436312,103.739454918739));
#1577=CARTESIAN_POINT('Origin',(161.437626767085,-240.710018436312,33.7394549187389));
#1578=CARTESIAN_POINT('',(169.895667476488,-235.375081945773,78.739454918739));
#1579=CARTESIAN_POINT('Origin',(161.437626767085,-240.710018436312,78.7394549187389));
#1580=CARTESIAN_POINT('',(169.895667476488,-235.375081945773,103.739454918739));
#1581=CARTESIAN_POINT('',(169.895667476488,-235.375081945773,33.7394549187389));
#1582=CARTESIAN_POINT('Origin',(161.437626767085,-240.710018436312,103.739454918739));
#1583=CARTESIAN_POINT('Origin',(-344.689113030489,-134.00635469244,63.7394549187389));
#1584=CARTESIAN_POINT('',(-353.349367068334,-129.00635469244,78.7394549187389));
#1585=CARTESIAN_POINT('',(-349.689113030489,-142.666608730285,78.7394549187389));
#1586=CARTESIAN_POINT('Origin',(-344.689113030489,-134.00635469244,78.7394549187389));
#1587=CARTESIAN_POINT('',(-349.689113030489,-142.666608730284,103.739454918739));
#1588=CARTESIAN_POINT('',(-349.689113030489,-142.666608730285,63.7394549187389));
#1589=CARTESIAN_POINT('',(-353.349367068334,-129.00635469244,103.739454918739));
#1590=CARTESIAN_POINT('Origin',(-344.689113030489,-134.00635469244,103.739454918739));
#1591=CARTESIAN_POINT('',(-353.349367068334,-129.00635469244,63.7394549187389));
#1592=CARTESIAN_POINT('Origin',(-289.710914337329,-177.29503789129,48.7394549187389));
#1593=CARTESIAN_POINT('',(-183.353708185891,-238.700399493078,78.7394549187389));
#1594=CARTESIAN_POINT('',(-278.11616247276,-183.989271001486,78.7394549187389));
#1595=CARTESIAN_POINT('',(-183.353708185891,-238.700399493078,103.739454918739));
#1596=CARTESIAN_POINT('',(-183.353708185891,-238.700399493078,33.7394549187389));
#1597=CARTESIAN_POINT('',(-404.728374526611,-110.889676289501,103.739454918739));
#1598=CARTESIAN_POINT('Origin',(0.,65.5712147090317,78.7394549187389));
#1599=CARTESIAN_POINT('',(-67.8386566297809,365.51270189222,78.7394549187389));
#1600=CARTESIAN_POINT('',(-211.025636176083,117.505578335698,78.7394549187389));
#1601=CARTESIAN_POINT('',(-59.1784025919365,370.51270189222,78.7394549187389));
#1602=CARTESIAN_POINT('Origin',(-59.1784025919365,360.51270189222,78.7394549187389));
#1603=CARTESIAN_POINT('',(59.1784025919368,370.51270189222,78.7394549187389));
#1604=CARTESIAN_POINT('',(64.951905283833,370.51270189222,78.7394549187389));
#1605=CARTESIAN_POINT('',(67.8386566297812,365.512701892219,78.7394549187389));
#1606=CARTESIAN_POINT('Origin',(59.1784025919368,360.51270189222,78.7394549187389));
#1607=CARTESIAN_POINT('',(353.349367068334,-129.00635469244,78.7394549187389));
#1608=CARTESIAN_POINT('',(353.349364905389,-129.00635094611,78.7394549187389));
#1609=CARTESIAN_POINT('',(349.689113030489,-142.666608730284,78.7394549187389));
#1610=CARTESIAN_POINT('Origin',(344.689113030489,-134.00635469244,78.7394549187389));
#1611=CARTESIAN_POINT('',(183.353708185891,-238.700399493079,78.7394549187389));
#1612=CARTESIAN_POINT('',(278.116162472759,-183.989271001485,78.7394549187389));
#1613=CARTESIAN_POINT('Origin',(178.353708185891,-230.040145455234,78.7394549187389));
#1614=CARTESIAN_POINT('Origin',(-178.353708185891,-230.040145455234,78.7394549187389));
#1615=CARTESIAN_POINT('',(-7.,333.000004962087,78.7394549187389));
#1616=CARTESIAN_POINT('Origin',(0.,333.000004962087,78.7394549187389));
#1617=CARTESIAN_POINT('',(-328.71369694879,-123.166843613286,78.7394549187389));
#1618=CARTESIAN_POINT('Origin',(-331.46369694879,-123.166843613286,78.7394549187389));
#1619=CARTESIAN_POINT('',(-172.829124267591,-213.166843613286,78.7394549187389));
#1620=CARTESIAN_POINT('Origin',(-175.579124267591,-213.166843613286,78.7394549187389));
#1621=CARTESIAN_POINT('',(217.300267437891,-190.666843613286,78.7394549187389));
#1622=CARTESIAN_POINT('Origin',(214.550267437891,-190.666843613286,78.7394549187389));
#1623=CARTESIAN_POINT('',(256.27141060819,-168.166843613286,78.7394549187389));
#1624=CARTESIAN_POINT('Origin',(253.52141060819,-168.166843613286,78.7394549187389));
#1625=CARTESIAN_POINT('',(-211.800267437891,-190.666843613286,78.7394549187389));
#1626=CARTESIAN_POINT('Origin',(-214.550267437891,-190.666843613286,78.7394549187389));
#1627=CARTESIAN_POINT('',(-289.74255377849,-145.666843613286,78.7394549187389));
#1628=CARTESIAN_POINT('Origin',(-292.49255377849,-145.666843613286,78.7394549187389));
#1629=CARTESIAN_POINT('',(334.21369694879,-123.166843613286,78.7394549187389));
#1630=CARTESIAN_POINT('Origin',(331.46369694879,-123.166843613286,78.7394549187389));
#1631=CARTESIAN_POINT('',(178.329124267591,-213.166843613286,78.7394549187389));
#1632=CARTESIAN_POINT('Origin',(175.579124267591,-213.166843613286,78.7394549187389));
#1633=CARTESIAN_POINT('',(295.24255377849,-145.666843613286,78.7394549187389));
#1634=CARTESIAN_POINT('Origin',(292.49255377849,-145.666843613286,78.7394549187389));
#1635=CARTESIAN_POINT('',(-250.77141060819,-168.166843613286,78.7394549187389));
#1636=CARTESIAN_POINT('Origin',(-253.52141060819,-168.166843613286,78.7394549187389));
#1637=CARTESIAN_POINT('Origin',(-59.1784025919365,360.51270189222,78.7394549187389));
#1638=CARTESIAN_POINT('',(-67.838656629781,365.51270189222,103.739454918739));
#1639=CARTESIAN_POINT('',(-59.1784025919365,370.51270189222,103.739454918739));
#1640=CARTESIAN_POINT('Origin',(-59.1784025919365,360.51270189222,103.739454918739));
#1641=CARTESIAN_POINT('',(-59.1784025919365,370.51270189222,78.7394549187389));
#1642=CARTESIAN_POINT('',(-67.8386566297809,365.51270189222,78.7394549187389));
#1643=CARTESIAN_POINT('Origin',(64.951905283833,370.51270189222,78.7394549187389));
#1644=CARTESIAN_POINT('',(59.1784025919368,370.51270189222,103.739454918739));
#1645=CARTESIAN_POINT('',(64.951905283833,370.51270189222,103.739454918739));
#1646=CARTESIAN_POINT('',(59.1784025919368,370.51270189222,78.7394549187389));
#1647=CARTESIAN_POINT('Origin',(59.1784025919368,360.51270189222,78.7394549187389));
#1648=CARTESIAN_POINT('',(67.8386566297812,365.51270189222,103.739454918739));
#1649=CARTESIAN_POINT('Origin',(59.1784025919368,360.51270189222,103.739454918739));
#1650=CARTESIAN_POINT('',(67.8386566297812,365.51270189222,78.7394549187389));
#1651=CARTESIAN_POINT('Origin',(-178.353708185891,-230.040145455234,33.7394549187389));
#1652=CARTESIAN_POINT('Origin',(-178.353708185891,-230.040145455234,103.739454918739));
#1653=CARTESIAN_POINT('Origin',(178.353708185891,-230.040145455234,33.7394549187389));
#1654=CARTESIAN_POINT('',(183.353708185891,-238.700399493078,103.739454918739));
#1655=CARTESIAN_POINT('',(183.353708185891,-238.700399493079,33.7394549187389));
#1656=CARTESIAN_POINT('Origin',(178.353708185891,-230.040145455234,103.739454918739));
#1657=CARTESIAN_POINT('Origin',(289.710914337329,-177.29503789129,48.7394549187389));
#1658=CARTESIAN_POINT('',(349.689113030489,-142.666608730284,103.739454918739));
#1659=CARTESIAN_POINT('',(349.689113030489,-142.666608730284,63.7394549187389));
#1660=CARTESIAN_POINT('',(174.693454148047,-243.700399493078,103.739454918739));
#1661=CARTESIAN_POINT('Origin',(344.689113030489,-134.00635469244,63.7394549187389));
#1662=CARTESIAN_POINT('',(353.349367068334,-129.00635469244,103.739454918739));
#1663=CARTESIAN_POINT('',(353.349367068334,-129.00635469244,63.7394549187389));
#1664=CARTESIAN_POINT('Origin',(344.689113030489,-134.00635469244,103.739454918739));
#1665=CARTESIAN_POINT('Origin',(350.849367068334,-124.676227673518,78.7394549187389));
#1666=CARTESIAN_POINT('',(265.803416657716,22.6276794156554,103.739454918739));
#1667=CARTESIAN_POINT('Origin',(0.,333.000004962087,100.739454918739));
#1668=CARTESIAN_POINT('',(-7.,333.000004962087,100.739454918739));
#1669=CARTESIAN_POINT('Origin',(0.,333.000004962087,100.739454918739));
#1670=CARTESIAN_POINT('Origin',(0.,333.000004962087,88.7394549187389));
#1671=CARTESIAN_POINT('',(-7.,333.000004962087,88.7394549187389));
#1672=CARTESIAN_POINT('Origin',(-253.52141060819,-168.166843613286,103.739454918739));
#1673=CARTESIAN_POINT('',(-249.02141060819,-168.166843613286,103.739454918739));
#1674=CARTESIAN_POINT('Origin',(-253.52141060819,-168.166843613286,103.739454918739));
#1675=CARTESIAN_POINT('',(-249.02141060819,-168.166843613286,93.7394549187389));
#1676=CARTESIAN_POINT('',(-249.02141060819,-168.166843613286,103.739454918739));
#1677=CARTESIAN_POINT('Origin',(-253.52141060819,-168.166843613286,93.7394549187389));
#1678=CARTESIAN_POINT('Origin',(-253.52141060819,-168.166843613286,93.7394549187389));
#1679=CARTESIAN_POINT('',(-250.77141060819,-168.166843613286,93.7394549187389));
#1680=CARTESIAN_POINT('Origin',(-253.52141060819,-168.166843613286,93.7394549187389));
#1681=CARTESIAN_POINT('Origin',(331.46369694879,-123.166843613286,103.739454918739));
#1682=CARTESIAN_POINT('',(335.96369694879,-123.166843613286,103.739454918739));
#1683=CARTESIAN_POINT('Origin',(331.46369694879,-123.166843613286,103.739454918739));
#1684=CARTESIAN_POINT('',(335.96369694879,-123.166843613286,93.7394549187389));
#1685=CARTESIAN_POINT('',(335.96369694879,-123.166843613286,103.739454918739));
#1686=CARTESIAN_POINT('Origin',(331.46369694879,-123.166843613286,93.7394549187389));
#1687=CARTESIAN_POINT('Origin',(331.46369694879,-123.166843613286,93.7394549187389));
#1688=CARTESIAN_POINT('',(334.21369694879,-123.166843613286,93.7394549187389));
#1689=CARTESIAN_POINT('Origin',(331.46369694879,-123.166843613286,93.7394549187389));
#1690=CARTESIAN_POINT('Origin',(214.550267437891,-190.666843613286,103.739454918739));
#1691=CARTESIAN_POINT('',(219.050267437891,-190.666843613286,103.739454918739));
#1692=CARTESIAN_POINT('Origin',(214.550267437891,-190.666843613286,103.739454918739));
#1693=CARTESIAN_POINT('',(219.050267437891,-190.666843613286,93.7394549187389));
#1694=CARTESIAN_POINT('',(219.050267437891,-190.666843613286,103.739454918739));
#1695=CARTESIAN_POINT('Origin',(214.550267437891,-190.666843613286,93.7394549187389));
#1696=CARTESIAN_POINT('Origin',(214.550267437891,-190.666843613286,93.7394549187389));
#1697=CARTESIAN_POINT('',(217.300267437891,-190.666843613286,93.7394549187389));
#1698=CARTESIAN_POINT('Origin',(214.550267437891,-190.666843613286,93.7394549187389));
#1699=CARTESIAN_POINT('Origin',(175.579124267591,-213.166843613286,103.739454918739));
#1700=CARTESIAN_POINT('',(180.079124267591,-213.166843613286,103.739454918739));
#1701=CARTESIAN_POINT('Origin',(175.579124267591,-213.166843613286,103.739454918739));
#1702=CARTESIAN_POINT('',(180.079124267591,-213.166843613286,93.7394549187389));
#1703=CARTESIAN_POINT('',(180.079124267591,-213.166843613286,103.739454918739));
#1704=CARTESIAN_POINT('Origin',(175.579124267591,-213.166843613286,93.7394549187389));
#1705=CARTESIAN_POINT('Origin',(175.579124267591,-213.166843613286,93.7394549187389));
#1706=CARTESIAN_POINT('',(178.329124267591,-213.166843613286,93.7394549187389));
#1707=CARTESIAN_POINT('Origin',(175.579124267591,-213.166843613286,93.7394549187389));
#1708=CARTESIAN_POINT('Origin',(-292.49255377849,-145.666843613286,103.739454918739));
#1709=CARTESIAN_POINT('',(-287.99255377849,-145.666843613286,103.739454918739));
#1710=CARTESIAN_POINT('Origin',(-292.49255377849,-145.666843613286,103.739454918739));
#1711=CARTESIAN_POINT('',(-287.99255377849,-145.666843613286,93.7394549187389));
#1712=CARTESIAN_POINT('',(-287.99255377849,-145.666843613286,103.739454918739));
#1713=CARTESIAN_POINT('Origin',(-292.49255377849,-145.666843613286,93.7394549187389));
#1714=CARTESIAN_POINT('Origin',(-292.49255377849,-145.666843613286,93.7394549187389));
#1715=CARTESIAN_POINT('',(-289.74255377849,-145.666843613286,93.7394549187389));
#1716=CARTESIAN_POINT('Origin',(-292.49255377849,-145.666843613286,93.7394549187389));
#1717=CARTESIAN_POINT('Origin',(-214.550267437891,-190.666843613286,103.739454918739));
#1718=CARTESIAN_POINT('',(-210.050267437891,-190.666843613286,103.739454918739));
#1719=CARTESIAN_POINT('Origin',(-214.550267437891,-190.666843613286,103.739454918739));
#1720=CARTESIAN_POINT('',(-210.050267437891,-190.666843613286,93.7394549187389));
#1721=CARTESIAN_POINT('',(-210.050267437891,-190.666843613286,103.739454918739));
#1722=CARTESIAN_POINT('Origin',(-214.550267437891,-190.666843613286,93.7394549187389));
#1723=CARTESIAN_POINT('Origin',(-214.550267437891,-190.666843613286,93.7394549187389));
#1724=CARTESIAN_POINT('',(-211.800267437891,-190.666843613286,93.7394549187389));
#1725=CARTESIAN_POINT('Origin',(-214.550267437891,-190.666843613286,93.7394549187389));
#1726=CARTESIAN_POINT('Origin',(292.49255377849,-145.666843613286,103.739454918739));
#1727=CARTESIAN_POINT('',(296.99255377849,-145.666843613286,103.739454918739));
#1728=CARTESIAN_POINT('Origin',(292.49255377849,-145.666843613286,103.739454918739));
#1729=CARTESIAN_POINT('',(296.99255377849,-145.666843613286,93.7394549187389));
#1730=CARTESIAN_POINT('',(296.99255377849,-145.666843613286,103.739454918739));
#1731=CARTESIAN_POINT('Origin',(292.49255377849,-145.666843613286,93.7394549187389));
#1732=CARTESIAN_POINT('Origin',(292.49255377849,-145.666843613286,93.7394549187389));
#1733=CARTESIAN_POINT('',(295.24255377849,-145.666843613286,93.7394549187389));
#1734=CARTESIAN_POINT('Origin',(292.49255377849,-145.666843613286,93.7394549187389));
#1735=CARTESIAN_POINT('Origin',(253.52141060819,-168.166843613286,103.739454918739));
#1736=CARTESIAN_POINT('',(258.02141060819,-168.166843613286,103.739454918739));
#1737=CARTESIAN_POINT('Origin',(253.52141060819,-168.166843613286,103.739454918739));
#1738=CARTESIAN_POINT('',(258.02141060819,-168.166843613286,93.7394549187389));
#1739=CARTESIAN_POINT('',(258.02141060819,-168.166843613286,103.739454918739));
#1740=CARTESIAN_POINT('Origin',(253.52141060819,-168.166843613286,93.7394549187389));
#1741=CARTESIAN_POINT('Origin',(253.52141060819,-168.166843613286,93.7394549187389));
#1742=CARTESIAN_POINT('',(256.27141060819,-168.166843613286,93.7394549187389));
#1743=CARTESIAN_POINT('Origin',(253.52141060819,-168.166843613286,93.7394549187389));
#1744=CARTESIAN_POINT('Origin',(-175.579124267591,-213.166843613286,103.739454918739));
#1745=CARTESIAN_POINT('',(-171.079124267591,-213.166843613286,103.739454918739));
#1746=CARTESIAN_POINT('Origin',(-175.579124267591,-213.166843613286,103.739454918739));
#1747=CARTESIAN_POINT('',(-171.079124267591,-213.166843613286,93.7394549187389));
#1748=CARTESIAN_POINT('',(-171.079124267591,-213.166843613286,103.739454918739));
#1749=CARTESIAN_POINT('Origin',(-175.579124267591,-213.166843613286,93.7394549187389));
#1750=CARTESIAN_POINT('Origin',(-175.579124267591,-213.166843613286,93.7394549187389));
#1751=CARTESIAN_POINT('',(-172.829124267591,-213.166843613286,93.7394549187389));
#1752=CARTESIAN_POINT('Origin',(-175.579124267591,-213.166843613286,93.7394549187389));
#1753=CARTESIAN_POINT('Origin',(-331.46369694879,-123.166843613286,103.739454918739));
#1754=CARTESIAN_POINT('',(-326.96369694879,-123.166843613286,103.739454918739));
#1755=CARTESIAN_POINT('Origin',(-331.46369694879,-123.166843613286,103.739454918739));
#1756=CARTESIAN_POINT('',(-326.96369694879,-123.166843613286,93.7394549187389));
#1757=CARTESIAN_POINT('',(-326.96369694879,-123.166843613286,103.739454918739));
#1758=CARTESIAN_POINT('Origin',(-331.46369694879,-123.166843613286,93.7394549187389));
#1759=CARTESIAN_POINT('Origin',(-331.46369694879,-123.166843613286,93.7394549187389));
#1760=CARTESIAN_POINT('',(-328.71369694879,-123.166843613286,93.7394549187389));
#1761=CARTESIAN_POINT('Origin',(-331.46369694879,-123.166843613286,93.7394549187389));
#1762=CARTESIAN_POINT('Origin',(-253.52141060819,-168.166843613286,103.739454918739));
#1763=CARTESIAN_POINT('',(-250.77141060819,-168.166843613286,103.739454918739));
#1764=CARTESIAN_POINT('Origin',(292.49255377849,-145.666843613286,103.739454918739));
#1765=CARTESIAN_POINT('',(295.24255377849,-145.666843613286,103.739454918739));
#1766=CARTESIAN_POINT('Origin',(175.579124267591,-213.166843613286,103.739454918739));
#1767=CARTESIAN_POINT('',(178.329124267591,-213.166843613286,103.739454918739));
#1768=CARTESIAN_POINT('Origin',(331.46369694879,-123.166843613286,103.739454918739));
#1769=CARTESIAN_POINT('',(334.21369694879,-123.166843613286,103.739454918739));
#1770=CARTESIAN_POINT('Origin',(-292.49255377849,-145.666843613286,103.739454918739));
#1771=CARTESIAN_POINT('',(-289.74255377849,-145.666843613286,103.739454918739));
#1772=CARTESIAN_POINT('Origin',(-214.550267437891,-190.666843613286,103.739454918739));
#1773=CARTESIAN_POINT('',(-211.800267437891,-190.666843613286,103.739454918739));
#1774=CARTESIAN_POINT('Origin',(253.52141060819,-168.166843613286,103.739454918739));
#1775=CARTESIAN_POINT('',(256.27141060819,-168.166843613286,103.739454918739));
#1776=CARTESIAN_POINT('Origin',(214.550267437891,-190.666843613286,103.739454918739));
#1777=CARTESIAN_POINT('',(217.300267437891,-190.666843613286,103.739454918739));
#1778=CARTESIAN_POINT('Origin',(-175.579124267591,-213.166843613286,103.739454918739));
#1779=CARTESIAN_POINT('',(-172.829124267591,-213.166843613286,103.739454918739));
#1780=CARTESIAN_POINT('Origin',(-331.46369694879,-123.166843613286,103.739454918739));
#1781=CARTESIAN_POINT('',(-328.71369694879,-123.166843613286,103.739454918739));
#1782=CARTESIAN_POINT('Origin',(-79.2601057439569,-47.3632597330033,103.739454918739));
#1783=CARTESIAN_POINT('',(-79.2601057439569,-47.3632597330033,103.739454918739));
#1784=CARTESIAN_POINT('',(-180.462190203721,-144.100729727824,103.739454918739));
#1785=CARTESIAN_POINT('',(-30.3467547869669,-0.607762098671383,103.739454918739));
#1786=CARTESIAN_POINT('',(-79.2601057439569,-47.3632597330033,98.7394549187389));
#1787=CARTESIAN_POINT('',(-79.2601057439569,-47.3632597330033,103.739454918739));
#1788=CARTESIAN_POINT('',(-180.462190203721,-144.100729727824,98.7394549187389));
#1789=CARTESIAN_POINT('',(-180.462190203721,-144.100729727824,98.7394549187389));
#1790=CARTESIAN_POINT('',(-180.462190203721,-144.100729727824,103.739454918739));
#1791=CARTESIAN_POINT('Origin',(-99.9895635999899,-25.6770987773396,103.739454918739));
#1792=CARTESIAN_POINT('',(-120.719021456023,-3.99093782167588,103.739454918739));
#1793=CARTESIAN_POINT('Origin',(-99.9895635999899,-25.6770987773396,103.739454918739));
#1794=CARTESIAN_POINT('',(-120.719021456023,-3.99093782167588,98.7394549187389));
#1795=CARTESIAN_POINT('',(-120.719021456023,-3.99093782167588,103.739454918739));
#1796=CARTESIAN_POINT('Origin',(-99.9895635999899,-25.6770987773396,98.7394549187389));
#1797=CARTESIAN_POINT('Origin',(-221.921105915787,-100.728407816496,103.739454918739));
#1798=CARTESIAN_POINT('',(-221.921105915787,-100.728407816496,103.739454918739));
#1799=CARTESIAN_POINT('',(-122.406712728915,-5.60417518475424,103.739454918739));
#1800=CARTESIAN_POINT('',(-221.921105915787,-100.728407816496,98.7394549187389));
#1801=CARTESIAN_POINT('',(-221.921105915787,-100.728407816496,103.739454918739));
#1802=CARTESIAN_POINT('',(-120.719021456023,-3.99093782167588,98.7394549187389));
#1803=CARTESIAN_POINT('Origin',(-201.191648059754,-122.41456877216,103.739454918739));
#1804=CARTESIAN_POINT('Origin',(-201.191648059754,-122.41456877216,103.739454918739));
#1805=CARTESIAN_POINT('Origin',(-201.191648059754,-122.41456877216,98.7394549187389));
#1806=CARTESIAN_POINT('Origin',(-150.590605829872,-74.0458337747499,98.7394549187389));
#1807=CARTESIAN_POINT('Origin',(-29.9999999999999,150.51270189222,103.739454918739));
#1808=CARTESIAN_POINT('',(-29.9999999999999,150.51270189222,103.739454918739));
#1809=CARTESIAN_POINT('',(-29.9999999999999,290.51270189222,103.739454918739));
#1810=CARTESIAN_POINT('',(-29.9999999999999,108.041958300626,103.739454918739));
#1811=CARTESIAN_POINT('',(-29.9999999999999,150.51270189222,98.7394549187389));
#1812=CARTESIAN_POINT('',(-29.9999999999999,150.51270189222,103.739454918739));
#1813=CARTESIAN_POINT('',(-29.9999999999999,290.51270189222,98.7394549187389));
#1814=CARTESIAN_POINT('',(-29.9999999999999,290.51270189222,98.7394549187389));
#1815=CARTESIAN_POINT('',(-29.9999999999999,290.51270189222,103.739454918739));
#1816=CARTESIAN_POINT('Origin',(8.03956949191765E-14,150.51270189222,103.739454918739));
#1817=CARTESIAN_POINT('',(30.0000000000001,150.51270189222,103.739454918739));
#1818=CARTESIAN_POINT('Origin',(8.03956949191765E-14,150.51270189222,103.739454918739));
#1819=CARTESIAN_POINT('',(30.0000000000001,150.51270189222,98.7394549187389));
#1820=CARTESIAN_POINT('',(30.0000000000001,150.51270189222,103.739454918739));
#1821=CARTESIAN_POINT('Origin',(8.03956949191765E-14,150.51270189222,98.7394549187389));
#1822=CARTESIAN_POINT('Origin',(30.0000000000001,290.51270189222,103.739454918739));
#1823=CARTESIAN_POINT('',(30.0000000000001,290.51270189222,103.739454918739));
#1824=CARTESIAN_POINT('',(30.0000000000001,178.041958300626,103.739454918739));
#1825=CARTESIAN_POINT('',(30.0000000000001,290.51270189222,98.7394549187389));
#1826=CARTESIAN_POINT('',(30.0000000000001,290.51270189222,103.739454918739));
#1827=CARTESIAN_POINT('',(30.0000000000001,150.51270189222,98.7394549187389));
#1828=CARTESIAN_POINT('Origin',(1.16589222786457E-13,290.51270189222,103.739454918739));
#1829=CARTESIAN_POINT('Origin',(1.16589222786457E-13,290.51270189222,103.739454918739));
#1830=CARTESIAN_POINT('Origin',(1.16589222786457E-13,290.51270189222,98.7394549187389));
#1831=CARTESIAN_POINT('Origin',(9.76996261670138E-14,220.51270189222,98.7394549187389));
#1832=CARTESIAN_POINT('Origin',(120.719021456023,-3.99093782167581,103.739454918739));
#1833=CARTESIAN_POINT('',(120.719021456023,-3.99093782167581,103.739454918739));
#1834=CARTESIAN_POINT('',(221.921105915787,-100.728407816496,103.739454918739));
#1835=CARTESIAN_POINT('',(71.8056704990329,42.7645598126561,103.739454918739));
#1836=CARTESIAN_POINT('',(120.719021456023,-3.99093782167581,98.7394549187389));
#1837=CARTESIAN_POINT('',(120.719021456023,-3.99093782167581,103.739454918739));
#1838=CARTESIAN_POINT('',(221.921105915787,-100.728407816496,98.7394549187389));
#1839=CARTESIAN_POINT('',(221.921105915787,-100.728407816496,98.7394549187389));
#1840=CARTESIAN_POINT('',(221.921105915787,-100.728407816496,103.739454918739));
#1841=CARTESIAN_POINT('Origin',(99.9895635999898,-25.6770987773395,103.739454918739));
#1842=CARTESIAN_POINT('',(79.2601057439568,-47.3632597330032,103.739454918739));
#1843=CARTESIAN_POINT('Origin',(99.9895635999898,-25.6770987773395,103.739454918739));
#1844=CARTESIAN_POINT('',(79.2601057439568,-47.3632597330032,98.7394549187389));
#1845=CARTESIAN_POINT('',(79.2601057439568,-47.3632597330032,103.739454918739));
#1846=CARTESIAN_POINT('Origin',(99.9895635999898,-25.6770987773395,98.7394549187389));
#1847=CARTESIAN_POINT('Origin',(180.462190203721,-144.100729727824,103.739454918739));
#1848=CARTESIAN_POINT('',(180.462190203721,-144.100729727824,103.739454918739));
#1849=CARTESIAN_POINT('',(80.9477970168488,-48.9764970960816,103.739454918739));
#1850=CARTESIAN_POINT('',(180.462190203721,-144.100729727824,98.7394549187389));
#1851=CARTESIAN_POINT('',(180.462190203721,-144.100729727824,103.739454918739));
#1852=CARTESIAN_POINT('',(79.2601057439568,-47.3632597330032,98.7394549187389));
#1853=CARTESIAN_POINT('Origin',(201.191648059754,-122.41456877216,103.739454918739));
#1854=CARTESIAN_POINT('Origin',(201.191648059754,-122.41456877216,103.739454918739));
#1855=CARTESIAN_POINT('Origin',(201.191648059754,-122.41456877216,98.7394549187389));
#1856=CARTESIAN_POINT('Origin',(150.590605829872,-74.0458337747498,98.7394549187389));
#1857=CARTESIAN_POINT('Origin',(0.,65.5712147090317,103.739454918739));
#1858=CARTESIAN_POINT('',(-122.854685765466,270.222144198524,103.739454918739));
#1859=CARTESIAN_POINT('Origin',(-64.9519052838328,370.51270189222,78.7394549187389));
#1860=CARTESIAN_POINT('',(0.,0.,0.));
#1861=UNCERTAINTY_MEASURE_WITH_UNIT(LENGTH_MEASURE(0.01),#1867,
'DISTANCE_ACCURACY_VALUE',
'Maximum model space distance between geometric entities at asserted c
onnectivities');
#1862=UNCERTAINTY_MEASURE_WITH_UNIT(LENGTH_MEASURE(0.01),#1867,
'DISTANCE_ACCURACY_VALUE',
'Maximum model space distance between geometric entities at asserted c
onnectivities');
#1863=UNCERTAINTY_MEASURE_WITH_UNIT(LENGTH_MEASURE(0.01),#1867,
'DISTANCE_ACCURACY_VALUE',
'Maximum model space distance between geometric entities at asserted c
onnectivities');
#1864=(
GEOMETRIC_REPRESENTATION_CONTEXT(3)
GLOBAL_UNCERTAINTY_ASSIGNED_CONTEXT((#1861))
GLOBAL_UNIT_ASSIGNED_CONTEXT((#1867,#1869,#1870))
REPRESENTATION_CONTEXT('','3D')
);
#1865=(
GEOMETRIC_REPRESENTATION_CONTEXT(3)
GLOBAL_UNCERTAINTY_ASSIGNED_CONTEXT((#1862))
GLOBAL_UNIT_ASSIGNED_CONTEXT((#1867,#1869,#1870))
REPRESENTATION_CONTEXT('','3D')
);
#1866=(
GEOMETRIC_REPRESENTATION_CONTEXT(3)
GLOBAL_UNCERTAINTY_ASSIGNED_CONTEXT((#1863))
GLOBAL_UNIT_ASSIGNED_CONTEXT((#1867,#1869,#1870))
REPRESENTATION_CONTEXT('','3D')
);
#1867=(
LENGTH_UNIT()
NAMED_UNIT(*)
SI_UNIT(.MILLI.,.METRE.)
);
#1868=(
LENGTH_UNIT()
NAMED_UNIT(*)
SI_UNIT($,.METRE.)
);
#1869=(
NAMED_UNIT(*)
PLANE_ANGLE_UNIT()
SI_UNIT($,.RADIAN.)
);
#1870=(
NAMED_UNIT(*)
SI_UNIT($,.STERADIAN.)
SOLID_ANGLE_UNIT()
);
#1871=SHAPE_DEFINITION_REPRESENTATION(#1873,#1876);
#1872=SHAPE_DEFINITION_REPRESENTATION(#1874,#1877);
#1873=PRODUCT_DEFINITION_SHAPE('',$,#1879);
#1874=PRODUCT_DEFINITION_SHAPE('',$,#1880);
#1875=PRODUCT_DEFINITION_SHAPE($,$,#14);
#1876=SHAPE_REPRESENTATION('',(#1081,#1216),#1864);
#1877=SHAPE_REPRESENTATION('',(#1082),#1865);
#1878=PRODUCT_DEFINITION_CONTEXT('part definition',#1886,'design');
#1879=PRODUCT_DEFINITION('Oberplatte','Oberplatte',#1881,#1878);
#1880=PRODUCT_DEFINITION('Oberplatte (1)','Oberplatte (1)',#1882,#1878);
#1881=PRODUCT_DEFINITION_FORMATION('',$,#1888);
#1882=PRODUCT_DEFINITION_FORMATION('',$,#1889);
#1883=PRODUCT_RELATED_PRODUCT_CATEGORY('Oberplatte','Oberplatte',(#1888));
#1884=PRODUCT_RELATED_PRODUCT_CATEGORY('Oberplatte (1)',
'Oberplatte (1)',(#1889));
#1885=APPLICATION_PROTOCOL_DEFINITION('international standard',
'automotive_design',2009,#1886);
#1886=APPLICATION_CONTEXT(
'Core Data for Automotive Mechanical Design Process');
#1887=PRODUCT_CONTEXT('part definition',#1886,'mechanical');
#1888=PRODUCT('Oberplatte','Oberplatte',$,(#1887));
#1889=PRODUCT('Oberplatte (1)','Oberplatte (1)',$,(#1887));
#1890=PRESENTATION_STYLE_ASSIGNMENT((#1893));
#1891=PRESENTATION_STYLE_ASSIGNMENT((#1894));
#1892=PRESENTATION_STYLE_ASSIGNMENT((#1895));
#1893=SURFACE_STYLE_USAGE(.BOTH.,#1896);
#1894=SURFACE_STYLE_USAGE(.BOTH.,#1897);
#1895=SURFACE_STYLE_USAGE(.BOTH.,#1898);
#1896=SURFACE_SIDE_STYLE('',(#1899));
#1897=SURFACE_SIDE_STYLE('',(#1900));
#1898=SURFACE_SIDE_STYLE('',(#1901));
#1899=SURFACE_STYLE_FILL_AREA(#1902);
#1900=SURFACE_STYLE_FILL_AREA(#1903);
#1901=SURFACE_STYLE_FILL_AREA(#1904);
#1902=FILL_AREA_STYLE('Steel - Satin',(#1905));
#1903=FILL_AREA_STYLE('Stainless Steel - Satin',(#1906));
#1904=FILL_AREA_STYLE('Cherry',(#1907));
#1905=FILL_AREA_STYLE_COLOUR('Steel - Satin',#1908);
#1906=FILL_AREA_STYLE_COLOUR('Stainless Steel - Satin',#1909);
#1907=FILL_AREA_STYLE_COLOUR('Cherry',#1910);
#1908=COLOUR_RGB('Steel - Satin',0.627450980392157,0.627450980392157,0.627450980392157);
#1909=COLOUR_RGB('Stainless Steel - Satin',0.796078431372549,0.796078431372549,
0.796078431372549);
#1910=COLOUR_RGB('Cherry',0.,0.,0.);
ENDSEC;
END-ISO-10303-21;
