ISO-10303-21;
HEADER;
/* Generated by software containing ST-Developer
 * from STEP Tools, Inc. (www.steptools.com) 
 */

FILE_DESCRIPTION(
/* description */ (''),
/* implementation_level */ '2;1');

FILE_NAME(
/* name */ 'Suedlager_52.step',
/* time_stamp */ '2026-08-05T22:21:17+02:00',
/* author */ (''),
/* organization */ (''),
/* preprocessor_version */ 'ST-DEVELOPER v20.1',
/* originating_system */ 'Autodesk Translation Framework v15.8.0.0',
/* authorisation */ '');

FILE_SCHEMA (('AUTOMOTIVE_DESIGN { 1 0 10303 214 3 1 1 }'));
ENDSEC;

DATA;
#10=MECHANICAL_DESIGN_GEOMETRIC_PRESENTATION_REPRESENTATION('',(#13),#492);
#11=SHAPE_REPRESENTATION_RELATIONSHIP('SRR','None',#499,#12);
#12=ADVANCED_BREP_SHAPE_REPRESENTATION('',(#14),#491);
#13=STYLED_ITEM('',(#508),#14);
#14=MANIFOLD_SOLID_BREP('Body1',#280);
#15=CYLINDRICAL_SURFACE('',#300,4.25);
#16=CYLINDRICAL_SURFACE('',#302,4.25);
#17=CYLINDRICAL_SURFACE('',#304,4.25);
#18=CYLINDRICAL_SURFACE('',#306,4.25);
#19=CYLINDRICAL_SURFACE('',#312,5.25);
#20=CYLINDRICAL_SURFACE('',#315,10.5);
#21=CYLINDRICAL_SURFACE('',#320,8.5);
#22=FACE_BOUND('',#64,.T.);
#23=FACE_BOUND('',#65,.T.);
#24=FACE_BOUND('',#66,.T.);
#25=FACE_BOUND('',#67,.T.);
#26=FACE_BOUND('',#68,.T.);
#27=FACE_BOUND('',#80,.T.);
#28=FACE_BOUND('',#82,.T.);
#29=FACE_BOUND('',#89,.T.);
#30=CIRCLE('',#295,4.25);
#31=CIRCLE('',#296,4.25);
#32=CIRCLE('',#297,4.25);
#33=CIRCLE('',#298,4.25);
#34=CIRCLE('',#299,10.5);
#35=CIRCLE('',#301,4.25);
#36=CIRCLE('',#303,4.25);
#37=CIRCLE('',#305,4.25);
#38=CIRCLE('',#307,4.25);
#39=CIRCLE('',#313,5.25);
#40=CIRCLE('',#314,5.25);
#41=CIRCLE('',#316,10.5);
#42=CIRCLE('',#319,8.5);
#43=CIRCLE('',#321,8.5);
#44=FACE_OUTER_BOUND('',#63,.T.);
#45=FACE_OUTER_BOUND('',#69,.T.);
#46=FACE_OUTER_BOUND('',#70,.T.);
#47=FACE_OUTER_BOUND('',#71,.T.);
#48=FACE_OUTER_BOUND('',#72,.T.);
#49=FACE_OUTER_BOUND('',#73,.T.);
#50=FACE_OUTER_BOUND('',#74,.T.);
#51=FACE_OUTER_BOUND('',#75,.T.);
#52=FACE_OUTER_BOUND('',#76,.T.);
#53=FACE_OUTER_BOUND('',#77,.T.);
#54=FACE_OUTER_BOUND('',#78,.T.);
#55=FACE_OUTER_BOUND('',#79,.T.);
#56=FACE_OUTER_BOUND('',#81,.T.);
#57=FACE_OUTER_BOUND('',#83,.T.);
#58=FACE_OUTER_BOUND('',#84,.T.);
#59=FACE_OUTER_BOUND('',#85,.T.);
#60=FACE_OUTER_BOUND('',#86,.T.);
#61=FACE_OUTER_BOUND('',#87,.T.);
#62=FACE_OUTER_BOUND('',#88,.T.);
#63=EDGE_LOOP('',(#183,#184,#185,#186));
#64=EDGE_LOOP('',(#187));
#65=EDGE_LOOP('',(#188));
#66=EDGE_LOOP('',(#189));
#67=EDGE_LOOP('',(#190));
#68=EDGE_LOOP('',(#191));
#69=EDGE_LOOP('',(#192,#193,#194,#195));
#70=EDGE_LOOP('',(#196,#197,#198,#199));
#71=EDGE_LOOP('',(#200,#201,#202,#203));
#72=EDGE_LOOP('',(#204,#205,#206,#207));
#73=EDGE_LOOP('',(#208));
#74=EDGE_LOOP('',(#209));
#75=EDGE_LOOP('',(#210));
#76=EDGE_LOOP('',(#211));
#77=EDGE_LOOP('',(#212,#213,#214,#215));
#78=EDGE_LOOP('',(#216,#217,#218,#219));
#79=EDGE_LOOP('',(#220));
#80=EDGE_LOOP('',(#221));
#81=EDGE_LOOP('',(#222));
#82=EDGE_LOOP('',(#223));
#83=EDGE_LOOP('',(#224,#225,#226,#227));
#84=EDGE_LOOP('',(#228,#229,#230,#231));
#85=EDGE_LOOP('',(#232,#233,#234,#235));
#86=EDGE_LOOP('',(#236,#237,#238,#239));
#87=EDGE_LOOP('',(#240,#241,#242,#243));
#88=EDGE_LOOP('',(#244,#245,#246,#247));
#89=EDGE_LOOP('',(#248));
#90=LINE('',#418,#109);
#91=LINE('',#420,#110);
#92=LINE('',#422,#111);
#93=LINE('',#423,#112);
#94=LINE('',#437,#113);
#95=LINE('',#441,#114);
#96=LINE('',#445,#115);
#97=LINE('',#449,#116);
#98=LINE('',#458,#117);
#99=LINE('',#463,#118);
#100=LINE('',#471,#119);
#101=LINE('',#474,#120);
#102=LINE('',#476,#121);
#103=LINE('',#477,#122);
#104=LINE('',#480,#123);
#105=LINE('',#481,#124);
#106=LINE('',#484,#125);
#107=LINE('',#485,#126);
#108=LINE('',#487,#127);
#109=VECTOR('',#331,10.);
#110=VECTOR('',#332,10.);
#111=VECTOR('',#333,10.);
#112=VECTOR('',#334,10.);
#113=VECTOR('',#349,4.25);
#114=VECTOR('',#354,4.25);
#115=VECTOR('',#359,4.25);
#116=VECTOR('',#364,4.25);
#117=VECTOR('',#377,5.25);
#118=VECTOR('',#384,10.5);
#119=VECTOR('',#395,8.5);
#120=VECTOR('',#398,10.);
#121=VECTOR('',#399,10.);
#122=VECTOR('',#400,10.);
#123=VECTOR('',#403,10.);
#124=VECTOR('',#404,10.);
#125=VECTOR('',#407,10.);
#126=VECTOR('',#408,10.);
#127=VECTOR('',#411,10.);
#128=VERTEX_POINT('',#416);
#129=VERTEX_POINT('',#417);
#130=VERTEX_POINT('',#419);
#131=VERTEX_POINT('',#421);
#132=VERTEX_POINT('',#424);
#133=VERTEX_POINT('',#426);
#134=VERTEX_POINT('',#428);
#135=VERTEX_POINT('',#430);
#136=VERTEX_POINT('',#432);
#137=VERTEX_POINT('',#435);
#138=VERTEX_POINT('',#439);
#139=VERTEX_POINT('',#443);
#140=VERTEX_POINT('',#447);
#141=VERTEX_POINT('',#455);
#142=VERTEX_POINT('',#457);
#143=VERTEX_POINT('',#461);
#144=VERTEX_POINT('',#466);
#145=VERTEX_POINT('',#469);
#146=VERTEX_POINT('',#473);
#147=VERTEX_POINT('',#475);
#148=VERTEX_POINT('',#479);
#149=VERTEX_POINT('',#483);
#150=EDGE_CURVE('',#128,#129,#90,.T.);
#151=EDGE_CURVE('',#129,#130,#91,.T.);
#152=EDGE_CURVE('',#130,#131,#92,.T.);
#153=EDGE_CURVE('',#131,#128,#93,.T.);
#154=EDGE_CURVE('',#132,#132,#30,.T.);
#155=EDGE_CURVE('',#133,#133,#31,.T.);
#156=EDGE_CURVE('',#134,#134,#32,.T.);
#157=EDGE_CURVE('',#135,#135,#33,.T.);
#158=EDGE_CURVE('',#136,#136,#34,.T.);
#159=EDGE_CURVE('',#137,#137,#35,.T.);
#160=EDGE_CURVE('',#137,#132,#94,.T.);
#161=EDGE_CURVE('',#138,#138,#36,.T.);
#162=EDGE_CURVE('',#138,#133,#95,.T.);
#163=EDGE_CURVE('',#139,#139,#37,.T.);
#164=EDGE_CURVE('',#139,#134,#96,.T.);
#165=EDGE_CURVE('',#140,#140,#38,.T.);
#166=EDGE_CURVE('',#140,#135,#97,.T.);
#167=EDGE_CURVE('',#141,#141,#39,.T.);
#168=EDGE_CURVE('',#141,#142,#98,.T.);
#169=EDGE_CURVE('',#142,#142,#40,.T.);
#170=EDGE_CURVE('',#143,#143,#41,.T.);
#171=EDGE_CURVE('',#143,#136,#99,.T.);
#172=EDGE_CURVE('',#144,#144,#42,.T.);
#173=EDGE_CURVE('',#145,#145,#43,.T.);
#174=EDGE_CURVE('',#145,#144,#100,.T.);
#175=EDGE_CURVE('',#129,#146,#101,.T.);
#176=EDGE_CURVE('',#147,#146,#102,.T.);
#177=EDGE_CURVE('',#147,#130,#103,.T.);
#178=EDGE_CURVE('',#148,#147,#104,.T.);
#179=EDGE_CURVE('',#148,#131,#105,.T.);
#180=EDGE_CURVE('',#149,#148,#106,.T.);
#181=EDGE_CURVE('',#149,#128,#107,.T.);
#182=EDGE_CURVE('',#146,#149,#108,.T.);
#183=ORIENTED_EDGE('',*,*,#150,.T.);
#184=ORIENTED_EDGE('',*,*,#151,.T.);
#185=ORIENTED_EDGE('',*,*,#152,.T.);
#186=ORIENTED_EDGE('',*,*,#153,.T.);
#187=ORIENTED_EDGE('',*,*,#154,.T.);
#188=ORIENTED_EDGE('',*,*,#155,.T.);
#189=ORIENTED_EDGE('',*,*,#156,.T.);
#190=ORIENTED_EDGE('',*,*,#157,.T.);
#191=ORIENTED_EDGE('',*,*,#158,.T.);
#192=ORIENTED_EDGE('',*,*,#159,.F.);
#193=ORIENTED_EDGE('',*,*,#160,.T.);
#194=ORIENTED_EDGE('',*,*,#154,.F.);
#195=ORIENTED_EDGE('',*,*,#160,.F.);
#196=ORIENTED_EDGE('',*,*,#161,.F.);
#197=ORIENTED_EDGE('',*,*,#162,.T.);
#198=ORIENTED_EDGE('',*,*,#155,.F.);
#199=ORIENTED_EDGE('',*,*,#162,.F.);
#200=ORIENTED_EDGE('',*,*,#163,.F.);
#201=ORIENTED_EDGE('',*,*,#164,.T.);
#202=ORIENTED_EDGE('',*,*,#156,.F.);
#203=ORIENTED_EDGE('',*,*,#164,.F.);
#204=ORIENTED_EDGE('',*,*,#165,.F.);
#205=ORIENTED_EDGE('',*,*,#166,.T.);
#206=ORIENTED_EDGE('',*,*,#157,.F.);
#207=ORIENTED_EDGE('',*,*,#166,.F.);
#208=ORIENTED_EDGE('',*,*,#159,.T.);
#209=ORIENTED_EDGE('',*,*,#163,.T.);
#210=ORIENTED_EDGE('',*,*,#161,.T.);
#211=ORIENTED_EDGE('',*,*,#165,.T.);
#212=ORIENTED_EDGE('',*,*,#167,.F.);
#213=ORIENTED_EDGE('',*,*,#168,.T.);
#214=ORIENTED_EDGE('',*,*,#169,.F.);
#215=ORIENTED_EDGE('',*,*,#168,.F.);
#216=ORIENTED_EDGE('',*,*,#170,.F.);
#217=ORIENTED_EDGE('',*,*,#171,.T.);
#218=ORIENTED_EDGE('',*,*,#158,.F.);
#219=ORIENTED_EDGE('',*,*,#171,.F.);
#220=ORIENTED_EDGE('',*,*,#170,.T.);
#221=ORIENTED_EDGE('',*,*,#169,.T.);
#222=ORIENTED_EDGE('',*,*,#172,.F.);
#223=ORIENTED_EDGE('',*,*,#167,.T.);
#224=ORIENTED_EDGE('',*,*,#173,.F.);
#225=ORIENTED_EDGE('',*,*,#174,.T.);
#226=ORIENTED_EDGE('',*,*,#172,.T.);
#227=ORIENTED_EDGE('',*,*,#174,.F.);
#228=ORIENTED_EDGE('',*,*,#175,.T.);
#229=ORIENTED_EDGE('',*,*,#176,.F.);
#230=ORIENTED_EDGE('',*,*,#177,.T.);
#231=ORIENTED_EDGE('',*,*,#151,.F.);
#232=ORIENTED_EDGE('',*,*,#177,.F.);
#233=ORIENTED_EDGE('',*,*,#178,.F.);
#234=ORIENTED_EDGE('',*,*,#179,.T.);
#235=ORIENTED_EDGE('',*,*,#152,.F.);
#236=ORIENTED_EDGE('',*,*,#179,.F.);
#237=ORIENTED_EDGE('',*,*,#180,.F.);
#238=ORIENTED_EDGE('',*,*,#181,.T.);
#239=ORIENTED_EDGE('',*,*,#153,.F.);
#240=ORIENTED_EDGE('',*,*,#181,.F.);
#241=ORIENTED_EDGE('',*,*,#182,.F.);
#242=ORIENTED_EDGE('',*,*,#175,.F.);
#243=ORIENTED_EDGE('',*,*,#150,.F.);
#244=ORIENTED_EDGE('',*,*,#182,.T.);
#245=ORIENTED_EDGE('',*,*,#180,.T.);
#246=ORIENTED_EDGE('',*,*,#178,.T.);
#247=ORIENTED_EDGE('',*,*,#176,.T.);
#248=ORIENTED_EDGE('',*,*,#173,.T.);
#249=PLANE('',#294);
#250=PLANE('',#308);
#251=PLANE('',#309);
#252=PLANE('',#310);
#253=PLANE('',#311);
#254=PLANE('',#317);
#255=PLANE('',#318);
#256=PLANE('',#322);
#257=PLANE('',#323);
#258=PLANE('',#324);
#259=PLANE('',#325);
#260=PLANE('',#326);
#261=ADVANCED_FACE('',(#44,#22,#23,#24,#25,#26),#249,.F.);
#262=ADVANCED_FACE('',(#45),#15,.F.);
#263=ADVANCED_FACE('',(#46),#16,.F.);
#264=ADVANCED_FACE('',(#47),#17,.F.);
#265=ADVANCED_FACE('',(#48),#18,.F.);
#266=ADVANCED_FACE('',(#49),#250,.F.);
#267=ADVANCED_FACE('',(#50),#251,.F.);
#268=ADVANCED_FACE('',(#51),#252,.F.);
#269=ADVANCED_FACE('',(#52),#253,.F.);
#270=ADVANCED_FACE('',(#53),#19,.F.);
#271=ADVANCED_FACE('',(#54),#20,.F.);
#272=ADVANCED_FACE('',(#55,#27),#254,.F.);
#273=ADVANCED_FACE('',(#56,#28),#255,.T.);
#274=ADVANCED_FACE('',(#57),#21,.F.);
#275=ADVANCED_FACE('',(#58),#256,.T.);
#276=ADVANCED_FACE('',(#59),#257,.T.);
#277=ADVANCED_FACE('',(#60),#258,.T.);
#278=ADVANCED_FACE('',(#61),#259,.T.);
#279=ADVANCED_FACE('',(#62,#29),#260,.T.);
#280=CLOSED_SHELL('',(#261,#262,#263,#264,#265,#266,#267,#268,#269,#270,
#271,#272,#273,#274,#275,#276,#277,#278,#279));
#281=DERIVED_UNIT_ELEMENT(#283,1.);
#282=DERIVED_UNIT_ELEMENT(#494,-3.);
#283=(
MASS_UNIT()
NAMED_UNIT(*)
SI_UNIT(.KILO.,.GRAM.)
);
#284=DERIVED_UNIT((#281,#282));
#285=MEASURE_REPRESENTATION_ITEM('density measure',
POSITIVE_RATIO_MEASURE(544.),#284);
#286=PROPERTY_DEFINITION_REPRESENTATION(#291,#288);
#287=PROPERTY_DEFINITION_REPRESENTATION(#292,#289);
#288=REPRESENTATION('material name',(#290),#491);
#289=REPRESENTATION('density',(#285),#491);
#290=DESCRIPTIVE_REPRESENTATION_ITEM('Cherry','Cherry');
#291=PROPERTY_DEFINITION('material property','material name',#501);
#292=PROPERTY_DEFINITION('material property','density of part',#501);
#293=AXIS2_PLACEMENT_3D('',#414,#327,#328);
#294=AXIS2_PLACEMENT_3D('',#415,#329,#330);
#295=AXIS2_PLACEMENT_3D('',#425,#335,#336);
#296=AXIS2_PLACEMENT_3D('',#427,#337,#338);
#297=AXIS2_PLACEMENT_3D('',#429,#339,#340);
#298=AXIS2_PLACEMENT_3D('',#431,#341,#342);
#299=AXIS2_PLACEMENT_3D('',#433,#343,#344);
#300=AXIS2_PLACEMENT_3D('',#434,#345,#346);
#301=AXIS2_PLACEMENT_3D('',#436,#347,#348);
#302=AXIS2_PLACEMENT_3D('',#438,#350,#351);
#303=AXIS2_PLACEMENT_3D('',#440,#352,#353);
#304=AXIS2_PLACEMENT_3D('',#442,#355,#356);
#305=AXIS2_PLACEMENT_3D('',#444,#357,#358);
#306=AXIS2_PLACEMENT_3D('',#446,#360,#361);
#307=AXIS2_PLACEMENT_3D('',#448,#362,#363);
#308=AXIS2_PLACEMENT_3D('',#450,#365,#366);
#309=AXIS2_PLACEMENT_3D('',#451,#367,#368);
#310=AXIS2_PLACEMENT_3D('',#452,#369,#370);
#311=AXIS2_PLACEMENT_3D('',#453,#371,#372);
#312=AXIS2_PLACEMENT_3D('',#454,#373,#374);
#313=AXIS2_PLACEMENT_3D('',#456,#375,#376);
#314=AXIS2_PLACEMENT_3D('',#459,#378,#379);
#315=AXIS2_PLACEMENT_3D('',#460,#380,#381);
#316=AXIS2_PLACEMENT_3D('',#462,#382,#383);
#317=AXIS2_PLACEMENT_3D('',#464,#385,#386);
#318=AXIS2_PLACEMENT_3D('',#465,#387,#388);
#319=AXIS2_PLACEMENT_3D('',#467,#389,#390);
#320=AXIS2_PLACEMENT_3D('',#468,#391,#392);
#321=AXIS2_PLACEMENT_3D('',#470,#393,#394);
#322=AXIS2_PLACEMENT_3D('',#472,#396,#397);
#323=AXIS2_PLACEMENT_3D('',#478,#401,#402);
#324=AXIS2_PLACEMENT_3D('',#482,#405,#406);
#325=AXIS2_PLACEMENT_3D('',#486,#409,#410);
#326=AXIS2_PLACEMENT_3D('',#488,#412,#413);
#327=DIRECTION('axis',(0.,0.,1.));
#328=DIRECTION('refdir',(1.,0.,0.));
#329=DIRECTION('center_axis',(0.,0.,1.));
#330=DIRECTION('ref_axis',(1.,0.,0.));
#331=DIRECTION('',(-1.,0.,0.));
#332=DIRECTION('',(0.,1.,0.));
#333=DIRECTION('',(1.,0.,0.));
#334=DIRECTION('',(0.,-1.,0.));
#335=DIRECTION('center_axis',(0.,0.,1.));
#336=DIRECTION('ref_axis',(1.,0.,0.));
#337=DIRECTION('center_axis',(0.,0.,1.));
#338=DIRECTION('ref_axis',(1.,0.,0.));
#339=DIRECTION('center_axis',(0.,0.,1.));
#340=DIRECTION('ref_axis',(1.,0.,0.));
#341=DIRECTION('center_axis',(0.,0.,1.));
#342=DIRECTION('ref_axis',(1.,0.,0.));
#343=DIRECTION('center_axis',(0.,0.,1.));
#344=DIRECTION('ref_axis',(-1.,0.,0.));
#345=DIRECTION('center_axis',(0.,0.,-1.));
#346=DIRECTION('ref_axis',(1.,0.,0.));
#347=DIRECTION('center_axis',(0.,0.,-1.));
#348=DIRECTION('ref_axis',(1.,0.,0.));
#349=DIRECTION('',(0.,0.,-1.));
#350=DIRECTION('center_axis',(0.,0.,-1.));
#351=DIRECTION('ref_axis',(1.,0.,0.));
#352=DIRECTION('center_axis',(0.,0.,-1.));
#353=DIRECTION('ref_axis',(1.,0.,0.));
#354=DIRECTION('',(0.,0.,-1.));
#355=DIRECTION('center_axis',(0.,0.,-1.));
#356=DIRECTION('ref_axis',(1.,0.,0.));
#357=DIRECTION('center_axis',(0.,0.,-1.));
#358=DIRECTION('ref_axis',(1.,0.,0.));
#359=DIRECTION('',(0.,0.,-1.));
#360=DIRECTION('center_axis',(0.,0.,-1.));
#361=DIRECTION('ref_axis',(1.,0.,0.));
#362=DIRECTION('center_axis',(0.,0.,-1.));
#363=DIRECTION('ref_axis',(1.,0.,0.));
#364=DIRECTION('',(0.,0.,-1.));
#365=DIRECTION('center_axis',(0.,0.,1.));
#366=DIRECTION('ref_axis',(-1.,0.,0.));
#367=DIRECTION('center_axis',(0.,0.,1.));
#368=DIRECTION('ref_axis',(-1.,0.,0.));
#369=DIRECTION('center_axis',(0.,0.,1.));
#370=DIRECTION('ref_axis',(-1.,0.,0.));
#371=DIRECTION('center_axis',(0.,0.,1.));
#372=DIRECTION('ref_axis',(-1.,0.,0.));
#373=DIRECTION('center_axis',(0.,0.,-1.));
#374=DIRECTION('ref_axis',(-1.,0.,0.));
#375=DIRECTION('center_axis',(0.,0.,-1.));
#376=DIRECTION('ref_axis',(-1.,0.,0.));
#377=DIRECTION('',(0.,0.,-1.));
#378=DIRECTION('center_axis',(0.,0.,1.));
#379=DIRECTION('ref_axis',(-1.,0.,0.));
#380=DIRECTION('center_axis',(0.,0.,-1.));
#381=DIRECTION('ref_axis',(-1.,0.,0.));
#382=DIRECTION('center_axis',(0.,0.,-1.));
#383=DIRECTION('ref_axis',(-1.,0.,0.));
#384=DIRECTION('',(0.,0.,-1.));
#385=DIRECTION('center_axis',(0.,0.,1.));
#386=DIRECTION('ref_axis',(-1.,0.,0.));
#387=DIRECTION('center_axis',(0.,0.,1.));
#388=DIRECTION('ref_axis',(-1.,0.,0.));
#389=DIRECTION('center_axis',(0.,0.,-1.));
#390=DIRECTION('ref_axis',(-1.,0.,0.));
#391=DIRECTION('center_axis',(0.,0.,-1.));
#392=DIRECTION('ref_axis',(-1.,0.,0.));
#393=DIRECTION('center_axis',(0.,0.,-1.));
#394=DIRECTION('ref_axis',(-1.,0.,0.));
#395=DIRECTION('',(0.,0.,-1.));
#396=DIRECTION('center_axis',(-1.,0.,0.));
#397=DIRECTION('ref_axis',(0.,-1.,0.));
#398=DIRECTION('',(0.,0.,1.));
#399=DIRECTION('',(0.,-1.,0.));
#400=DIRECTION('',(0.,0.,-1.));
#401=DIRECTION('center_axis',(0.,1.,0.));
#402=DIRECTION('ref_axis',(-1.,0.,0.));
#403=DIRECTION('',(-1.,0.,0.));
#404=DIRECTION('',(0.,0.,-1.));
#405=DIRECTION('center_axis',(1.,0.,0.));
#406=DIRECTION('ref_axis',(0.,1.,0.));
#407=DIRECTION('',(0.,1.,0.));
#408=DIRECTION('',(0.,0.,-1.));
#409=DIRECTION('center_axis',(0.,-1.,0.));
#410=DIRECTION('ref_axis',(1.,0.,0.));
#411=DIRECTION('',(1.,0.,0.));
#412=DIRECTION('center_axis',(0.,0.,1.));
#413=DIRECTION('ref_axis',(1.,0.,0.));
#414=CARTESIAN_POINT('',(0.,0.,0.));
#415=CARTESIAN_POINT('Origin',(1.06581410364015E-13,333.01270189222,-19.5));
#416=CARTESIAN_POINT('',(40.0000000000001,293.01270189222,-19.5));
#417=CARTESIAN_POINT('',(-39.9999999999999,293.01270189222,-19.5));
#418=CARTESIAN_POINT('',(40.0000000000001,293.01270189222,-19.5));
#419=CARTESIAN_POINT('',(-39.9999999999999,373.01270189222,-19.5));
#420=CARTESIAN_POINT('',(-39.9999999999999,293.01270189222,-19.5));
#421=CARTESIAN_POINT('',(40.0000000000001,373.01270189222,-19.5));
#422=CARTESIAN_POINT('',(-39.9999999999999,373.01270189222,-19.5));
#423=CARTESIAN_POINT('',(40.0000000000001,373.01270189222,-19.5));
#424=CARTESIAN_POINT('',(22.7500000000002,306.012701892219,-19.5));
#425=CARTESIAN_POINT('Origin',(27.0000000000002,306.012701892219,-19.5));
#426=CARTESIAN_POINT('',(22.7500000000002,360.01270189222,-19.5));
#427=CARTESIAN_POINT('Origin',(27.0000000000002,360.01270189222,-19.5));
#428=CARTESIAN_POINT('',(-31.25,306.012701892219,-19.5));
#429=CARTESIAN_POINT('Origin',(-27.,306.012701892219,-19.5));
#430=CARTESIAN_POINT('',(-31.25,360.01270189222,-19.5));
#431=CARTESIAN_POINT('Origin',(-27.,360.01270189222,-19.5));
#432=CARTESIAN_POINT('',(10.5000000000001,333.01270189222,-19.5));
#433=CARTESIAN_POINT('Origin',(1.06581410364015E-13,333.01270189222,-19.5));
#434=CARTESIAN_POINT('Origin',(27.0000000000002,306.012701892219,20.));
#435=CARTESIAN_POINT('',(22.7500000000002,306.012701892219,20.));
#436=CARTESIAN_POINT('Origin',(27.0000000000002,306.012701892219,20.));
#437=CARTESIAN_POINT('',(22.7500000000002,306.012701892219,20.));
#438=CARTESIAN_POINT('Origin',(27.0000000000002,360.01270189222,20.));
#439=CARTESIAN_POINT('',(22.7500000000002,360.01270189222,20.));
#440=CARTESIAN_POINT('Origin',(27.0000000000002,360.01270189222,20.));
#441=CARTESIAN_POINT('',(22.7500000000002,360.01270189222,20.));
#442=CARTESIAN_POINT('Origin',(-27.,306.012701892219,20.));
#443=CARTESIAN_POINT('',(-31.25,306.012701892219,20.));
#444=CARTESIAN_POINT('Origin',(-27.,306.012701892219,20.));
#445=CARTESIAN_POINT('',(-31.25,306.012701892219,20.));
#446=CARTESIAN_POINT('Origin',(-27.,360.01270189222,20.));
#447=CARTESIAN_POINT('',(-31.25,360.01270189222,20.));
#448=CARTESIAN_POINT('Origin',(-27.,360.01270189222,20.));
#449=CARTESIAN_POINT('',(-31.25,360.01270189222,20.));
#450=CARTESIAN_POINT('Origin',(27.0000000000002,306.012701892219,20.));
#451=CARTESIAN_POINT('Origin',(-27.,306.012701892219,20.));
#452=CARTESIAN_POINT('Origin',(27.0000000000002,360.01270189222,20.));
#453=CARTESIAN_POINT('Origin',(-27.,360.01270189222,20.));
#454=CARTESIAN_POINT('Origin',(1.06581410364015E-13,333.01270189222,27.));
#455=CARTESIAN_POINT('',(5.25000000000011,333.01270189222,27.));
#456=CARTESIAN_POINT('Origin',(1.06581410364015E-13,333.01270189222,27.));
#457=CARTESIAN_POINT('',(5.25000000000011,333.01270189222,17.));
#458=CARTESIAN_POINT('',(5.25000000000011,333.01270189222,27.));
#459=CARTESIAN_POINT('Origin',(1.06581410364015E-13,333.01270189222,17.));
#460=CARTESIAN_POINT('Origin',(1.06581410364015E-13,333.01270189222,17.));
#461=CARTESIAN_POINT('',(10.5000000000001,333.01270189222,17.));
#462=CARTESIAN_POINT('Origin',(1.06581410364015E-13,333.01270189222,17.));
#463=CARTESIAN_POINT('',(10.5000000000001,333.01270189222,17.));
#464=CARTESIAN_POINT('Origin',(1.06581410364015E-13,333.01270189222,17.));
#465=CARTESIAN_POINT('Origin',(1.06581410364015E-13,333.01270189222,27.));
#466=CARTESIAN_POINT('',(8.50000000000011,333.01270189222,27.));
#467=CARTESIAN_POINT('Origin',(1.06581410364015E-13,333.01270189222,27.));
#468=CARTESIAN_POINT('Origin',(1.06581410364015E-13,333.01270189222,50.));
#469=CARTESIAN_POINT('',(8.50000000000011,333.01270189222,50.));
#470=CARTESIAN_POINT('Origin',(1.06581410364015E-13,333.01270189222,50.));
#471=CARTESIAN_POINT('',(8.50000000000011,333.01270189222,50.));
#472=CARTESIAN_POINT('Origin',(-39.9999999999999,373.01270189222,0.));
#473=CARTESIAN_POINT('',(-39.9999999999999,293.01270189222,50.));
#474=CARTESIAN_POINT('',(-39.9999999999999,293.01270189222,0.));
#475=CARTESIAN_POINT('',(-39.9999999999999,373.01270189222,50.));
#476=CARTESIAN_POINT('',(-39.9999999999999,293.01270189222,50.));
#477=CARTESIAN_POINT('',(-39.9999999999999,373.01270189222,0.));
#478=CARTESIAN_POINT('Origin',(40.0000000000001,373.01270189222,0.));
#479=CARTESIAN_POINT('',(40.0000000000001,373.01270189222,50.));
#480=CARTESIAN_POINT('',(-39.9999999999999,373.01270189222,50.));
#481=CARTESIAN_POINT('',(40.0000000000001,373.01270189222,0.));
#482=CARTESIAN_POINT('Origin',(40.0000000000001,293.01270189222,0.));
#483=CARTESIAN_POINT('',(40.0000000000001,293.01270189222,50.));
#484=CARTESIAN_POINT('',(40.0000000000001,373.01270189222,50.));
#485=CARTESIAN_POINT('',(40.0000000000001,293.01270189222,0.));
#486=CARTESIAN_POINT('Origin',(-39.9999999999999,293.01270189222,0.));
#487=CARTESIAN_POINT('',(40.0000000000001,293.01270189222,50.));
#488=CARTESIAN_POINT('Origin',(1.06581410364015E-13,333.01270189222,50.));
#489=UNCERTAINTY_MEASURE_WITH_UNIT(LENGTH_MEASURE(0.01),#493,
'DISTANCE_ACCURACY_VALUE',
'Maximum model space distance between geometric entities at asserted c
onnectivities');
#490=UNCERTAINTY_MEASURE_WITH_UNIT(LENGTH_MEASURE(0.01),#493,
'DISTANCE_ACCURACY_VALUE',
'Maximum model space distance between geometric entities at asserted c
onnectivities');
#491=(
GEOMETRIC_REPRESENTATION_CONTEXT(3)
GLOBAL_UNCERTAINTY_ASSIGNED_CONTEXT((#489))
GLOBAL_UNIT_ASSIGNED_CONTEXT((#493,#495,#496))
REPRESENTATION_CONTEXT('','3D')
);
#492=(
GEOMETRIC_REPRESENTATION_CONTEXT(3)
GLOBAL_UNCERTAINTY_ASSIGNED_CONTEXT((#490))
GLOBAL_UNIT_ASSIGNED_CONTEXT((#493,#495,#496))
REPRESENTATION_CONTEXT('','3D')
);
#493=(
LENGTH_UNIT()
NAMED_UNIT(*)
SI_UNIT(.MILLI.,.METRE.)
);
#494=(
LENGTH_UNIT()
NAMED_UNIT(*)
SI_UNIT($,.METRE.)
);
#495=(
NAMED_UNIT(*)
PLANE_ANGLE_UNIT()
SI_UNIT($,.RADIAN.)
);
#496=(
NAMED_UNIT(*)
SI_UNIT($,.STERADIAN.)
SOLID_ANGLE_UNIT()
);
#497=SHAPE_DEFINITION_REPRESENTATION(#498,#499);
#498=PRODUCT_DEFINITION_SHAPE('',$,#501);
#499=SHAPE_REPRESENTATION('',(#293),#491);
#500=PRODUCT_DEFINITION_CONTEXT('part definition',#505,'design');
#501=PRODUCT_DEFINITION('Kugelgelenkhalter','Kugelgelenkhalter v5',#502,
#500);
#502=PRODUCT_DEFINITION_FORMATION('',$,#507);
#503=PRODUCT_RELATED_PRODUCT_CATEGORY('Kugelgelenkhalter v5',
'Kugelgelenkhalter v5',(#507));
#504=APPLICATION_PROTOCOL_DEFINITION('international standard',
'automotive_design',2009,#505);
#505=APPLICATION_CONTEXT(
'Core Data for Automotive Mechanical Design Process');
#506=PRODUCT_CONTEXT('part definition',#505,'mechanical');
#507=PRODUCT('Kugelgelenkhalter','Kugelgelenkhalter v5',$,(#506));
#508=PRESENTATION_STYLE_ASSIGNMENT((#509));
#509=SURFACE_STYLE_USAGE(.BOTH.,#510);
#510=SURFACE_SIDE_STYLE('',(#511));
#511=SURFACE_STYLE_FILL_AREA(#512);
#512=FILL_AREA_STYLE('Cherry',(#513));
#513=FILL_AREA_STYLE_COLOUR('Cherry',#514);
#514=COLOUR_RGB('Cherry',0.,0.,0.);
ENDSEC;
END-ISO-10303-21;
