ISO-10303-21;
HEADER;
/* Generated by software containing ST-Developer
 * from STEP Tools, Inc. (www.steptools.com) 
 */

FILE_DESCRIPTION(
/* description */ (''),
/* implementation_level */ '2;1');

FILE_NAME(
/* name */ 'Kugelgelenkhalter.step',
/* time_stamp */ '2025-10-05T14:44:11+02:00',
/* author */ (''),
/* organization */ (''),
/* preprocessor_version */ 'ST-DEVELOPER v20.1',
/* originating_system */ 'Autodesk Translation Framework v14.17.0.0',
/* authorisation */ '');

FILE_SCHEMA (('AUTOMOTIVE_DESIGN { 1 0 10303 214 3 1 1 }'));
ENDSEC;

DATA;
#10=MECHANICAL_DESIGN_GEOMETRIC_PRESENTATION_REPRESENTATION('',(#13),#492);
#11=SHAPE_REPRESENTATION_RELATIONSHIP('SRR','None',#499,#12);
#12=ADVANCED_BREP_SHAPE_REPRESENTATION('',(#14),#491);
#13=STYLED_ITEM('',(#508),#14);
#14=MANIFOLD_SOLID_BREP('Kugelgelenkhalter',#280);
#15=FACE_BOUND('',#65,.T.);
#16=FACE_BOUND('',#67,.T.);
#17=FACE_BOUND('',#74,.T.);
#18=FACE_BOUND('',#76,.T.);
#19=FACE_BOUND('',#77,.T.);
#20=FACE_BOUND('',#78,.T.);
#21=FACE_BOUND('',#79,.T.);
#22=FACE_BOUND('',#80,.T.);
#23=PLANE('',#306);
#24=PLANE('',#307);
#25=PLANE('',#308);
#26=PLANE('',#309);
#27=PLANE('',#316);
#28=PLANE('',#317);
#29=PLANE('',#321);
#30=PLANE('',#322);
#31=PLANE('',#323);
#32=PLANE('',#324);
#33=PLANE('',#325);
#34=PLANE('',#326);
#35=FACE_OUTER_BOUND('',#54,.T.);
#36=FACE_OUTER_BOUND('',#55,.T.);
#37=FACE_OUTER_BOUND('',#56,.T.);
#38=FACE_OUTER_BOUND('',#57,.T.);
#39=FACE_OUTER_BOUND('',#58,.T.);
#40=FACE_OUTER_BOUND('',#59,.T.);
#41=FACE_OUTER_BOUND('',#60,.T.);
#42=FACE_OUTER_BOUND('',#61,.T.);
#43=FACE_OUTER_BOUND('',#62,.T.);
#44=FACE_OUTER_BOUND('',#63,.T.);
#45=FACE_OUTER_BOUND('',#64,.T.);
#46=FACE_OUTER_BOUND('',#66,.T.);
#47=FACE_OUTER_BOUND('',#68,.T.);
#48=FACE_OUTER_BOUND('',#69,.T.);
#49=FACE_OUTER_BOUND('',#70,.T.);
#50=FACE_OUTER_BOUND('',#71,.T.);
#51=FACE_OUTER_BOUND('',#72,.T.);
#52=FACE_OUTER_BOUND('',#73,.T.);
#53=FACE_OUTER_BOUND('',#75,.T.);
#54=EDGE_LOOP('',(#188,#189,#190,#191));
#55=EDGE_LOOP('',(#192,#193,#194,#195));
#56=EDGE_LOOP('',(#196,#197,#198,#199));
#57=EDGE_LOOP('',(#200,#201,#202,#203));
#58=EDGE_LOOP('',(#204));
#59=EDGE_LOOP('',(#205));
#60=EDGE_LOOP('',(#206));
#61=EDGE_LOOP('',(#207));
#62=EDGE_LOOP('',(#208,#209,#210,#211));
#63=EDGE_LOOP('',(#212,#213,#214,#215));
#64=EDGE_LOOP('',(#216));
#65=EDGE_LOOP('',(#217));
#66=EDGE_LOOP('',(#218));
#67=EDGE_LOOP('',(#219));
#68=EDGE_LOOP('',(#220,#221,#222,#223));
#69=EDGE_LOOP('',(#224,#225,#226,#227));
#70=EDGE_LOOP('',(#228,#229,#230,#231));
#71=EDGE_LOOP('',(#232,#233,#234,#235));
#72=EDGE_LOOP('',(#236,#237,#238,#239));
#73=EDGE_LOOP('',(#240,#241,#242,#243));
#74=EDGE_LOOP('',(#244));
#75=EDGE_LOOP('',(#245,#246,#247,#248));
#76=EDGE_LOOP('',(#249));
#77=EDGE_LOOP('',(#250));
#78=EDGE_LOOP('',(#251));
#79=EDGE_LOOP('',(#252));
#80=EDGE_LOOP('',(#253));
#81=LINE('',#419,#100);
#82=LINE('',#425,#101);
#83=LINE('',#431,#102);
#84=LINE('',#437,#103);
#85=LINE('',#447,#104);
#86=LINE('',#453,#105);
#87=LINE('',#462,#106);
#88=LINE('',#466,#107);
#89=LINE('',#468,#108);
#90=LINE('',#470,#109);
#91=LINE('',#471,#110);
#92=LINE('',#474,#111);
#93=LINE('',#476,#112);
#94=LINE('',#477,#113);
#95=LINE('',#480,#114);
#96=LINE('',#482,#115);
#97=LINE('',#483,#116);
#98=LINE('',#485,#117);
#99=LINE('',#486,#118);
#100=VECTOR('',#333,4.25);
#101=VECTOR('',#340,4.25);
#102=VECTOR('',#347,4.25);
#103=VECTOR('',#354,4.25);
#104=VECTOR('',#369,5.25);
#105=VECTOR('',#376,8.5);
#106=VECTOR('',#389,8.5);
#107=VECTOR('',#392,10.);
#108=VECTOR('',#393,10.);
#109=VECTOR('',#394,10.);
#110=VECTOR('',#395,10.);
#111=VECTOR('',#398,10.);
#112=VECTOR('',#399,10.);
#113=VECTOR('',#400,10.);
#114=VECTOR('',#403,10.);
#115=VECTOR('',#404,10.);
#116=VECTOR('',#405,10.);
#117=VECTOR('',#408,10.);
#118=VECTOR('',#409,10.);
#119=CIRCLE('',#295,4.25);
#120=CIRCLE('',#296,4.25);
#121=CIRCLE('',#298,4.25);
#122=CIRCLE('',#299,4.25);
#123=CIRCLE('',#301,4.25);
#124=CIRCLE('',#302,4.25);
#125=CIRCLE('',#304,4.25);
#126=CIRCLE('',#305,4.25);
#127=CIRCLE('',#311,5.25);
#128=CIRCLE('',#312,5.25);
#129=CIRCLE('',#314,10.5);
#130=CIRCLE('',#315,10.5);
#131=CIRCLE('',#318,8.5);
#132=CIRCLE('',#320,8.5);
#133=VERTEX_POINT('',#416);
#134=VERTEX_POINT('',#418);
#135=VERTEX_POINT('',#422);
#136=VERTEX_POINT('',#424);
#137=VERTEX_POINT('',#428);
#138=VERTEX_POINT('',#430);
#139=VERTEX_POINT('',#434);
#140=VERTEX_POINT('',#436);
#141=VERTEX_POINT('',#444);
#142=VERTEX_POINT('',#446);
#143=VERTEX_POINT('',#450);
#144=VERTEX_POINT('',#452);
#145=VERTEX_POINT('',#457);
#146=VERTEX_POINT('',#460);
#147=VERTEX_POINT('',#464);
#148=VERTEX_POINT('',#465);
#149=VERTEX_POINT('',#467);
#150=VERTEX_POINT('',#469);
#151=VERTEX_POINT('',#473);
#152=VERTEX_POINT('',#475);
#153=VERTEX_POINT('',#479);
#154=VERTEX_POINT('',#481);
#155=EDGE_CURVE('',#133,#133,#119,.T.);
#156=EDGE_CURVE('',#133,#134,#81,.T.);
#157=EDGE_CURVE('',#134,#134,#120,.T.);
#158=EDGE_CURVE('',#135,#135,#121,.T.);
#159=EDGE_CURVE('',#135,#136,#82,.T.);
#160=EDGE_CURVE('',#136,#136,#122,.T.);
#161=EDGE_CURVE('',#137,#137,#123,.T.);
#162=EDGE_CURVE('',#137,#138,#83,.T.);
#163=EDGE_CURVE('',#138,#138,#124,.T.);
#164=EDGE_CURVE('',#139,#139,#125,.T.);
#165=EDGE_CURVE('',#139,#140,#84,.T.);
#166=EDGE_CURVE('',#140,#140,#126,.T.);
#167=EDGE_CURVE('',#141,#141,#127,.T.);
#168=EDGE_CURVE('',#141,#142,#85,.T.);
#169=EDGE_CURVE('',#142,#142,#128,.T.);
#170=EDGE_CURVE('',#143,#143,#129,.T.);
#171=EDGE_CURVE('',#143,#144,#86,.T.);
#172=EDGE_CURVE('',#144,#144,#130,.F.);
#173=EDGE_CURVE('',#145,#145,#131,.T.);
#174=EDGE_CURVE('',#146,#146,#132,.T.);
#175=EDGE_CURVE('',#146,#145,#87,.T.);
#176=EDGE_CURVE('',#147,#148,#88,.T.);
#177=EDGE_CURVE('',#147,#149,#89,.T.);
#178=EDGE_CURVE('',#150,#149,#90,.T.);
#179=EDGE_CURVE('',#148,#150,#91,.T.);
#180=EDGE_CURVE('',#148,#151,#92,.T.);
#181=EDGE_CURVE('',#152,#150,#93,.T.);
#182=EDGE_CURVE('',#151,#152,#94,.T.);
#183=EDGE_CURVE('',#151,#153,#95,.T.);
#184=EDGE_CURVE('',#154,#152,#96,.T.);
#185=EDGE_CURVE('',#153,#154,#97,.T.);
#186=EDGE_CURVE('',#153,#147,#98,.T.);
#187=EDGE_CURVE('',#149,#154,#99,.T.);
#188=ORIENTED_EDGE('',*,*,#155,.F.);
#189=ORIENTED_EDGE('',*,*,#156,.T.);
#190=ORIENTED_EDGE('',*,*,#157,.F.);
#191=ORIENTED_EDGE('',*,*,#156,.F.);
#192=ORIENTED_EDGE('',*,*,#158,.F.);
#193=ORIENTED_EDGE('',*,*,#159,.T.);
#194=ORIENTED_EDGE('',*,*,#160,.F.);
#195=ORIENTED_EDGE('',*,*,#159,.F.);
#196=ORIENTED_EDGE('',*,*,#161,.F.);
#197=ORIENTED_EDGE('',*,*,#162,.T.);
#198=ORIENTED_EDGE('',*,*,#163,.F.);
#199=ORIENTED_EDGE('',*,*,#162,.F.);
#200=ORIENTED_EDGE('',*,*,#164,.F.);
#201=ORIENTED_EDGE('',*,*,#165,.T.);
#202=ORIENTED_EDGE('',*,*,#166,.F.);
#203=ORIENTED_EDGE('',*,*,#165,.F.);
#204=ORIENTED_EDGE('',*,*,#157,.T.);
#205=ORIENTED_EDGE('',*,*,#163,.T.);
#206=ORIENTED_EDGE('',*,*,#160,.T.);
#207=ORIENTED_EDGE('',*,*,#166,.T.);
#208=ORIENTED_EDGE('',*,*,#167,.F.);
#209=ORIENTED_EDGE('',*,*,#168,.T.);
#210=ORIENTED_EDGE('',*,*,#169,.F.);
#211=ORIENTED_EDGE('',*,*,#168,.F.);
#212=ORIENTED_EDGE('',*,*,#170,.F.);
#213=ORIENTED_EDGE('',*,*,#171,.T.);
#214=ORIENTED_EDGE('',*,*,#172,.F.);
#215=ORIENTED_EDGE('',*,*,#171,.F.);
#216=ORIENTED_EDGE('',*,*,#170,.T.);
#217=ORIENTED_EDGE('',*,*,#169,.T.);
#218=ORIENTED_EDGE('',*,*,#173,.F.);
#219=ORIENTED_EDGE('',*,*,#167,.T.);
#220=ORIENTED_EDGE('',*,*,#174,.F.);
#221=ORIENTED_EDGE('',*,*,#175,.T.);
#222=ORIENTED_EDGE('',*,*,#173,.T.);
#223=ORIENTED_EDGE('',*,*,#175,.F.);
#224=ORIENTED_EDGE('',*,*,#176,.F.);
#225=ORIENTED_EDGE('',*,*,#177,.T.);
#226=ORIENTED_EDGE('',*,*,#178,.F.);
#227=ORIENTED_EDGE('',*,*,#179,.F.);
#228=ORIENTED_EDGE('',*,*,#180,.F.);
#229=ORIENTED_EDGE('',*,*,#179,.T.);
#230=ORIENTED_EDGE('',*,*,#181,.F.);
#231=ORIENTED_EDGE('',*,*,#182,.F.);
#232=ORIENTED_EDGE('',*,*,#183,.F.);
#233=ORIENTED_EDGE('',*,*,#182,.T.);
#234=ORIENTED_EDGE('',*,*,#184,.F.);
#235=ORIENTED_EDGE('',*,*,#185,.F.);
#236=ORIENTED_EDGE('',*,*,#186,.F.);
#237=ORIENTED_EDGE('',*,*,#185,.T.);
#238=ORIENTED_EDGE('',*,*,#187,.F.);
#239=ORIENTED_EDGE('',*,*,#177,.F.);
#240=ORIENTED_EDGE('',*,*,#187,.T.);
#241=ORIENTED_EDGE('',*,*,#184,.T.);
#242=ORIENTED_EDGE('',*,*,#181,.T.);
#243=ORIENTED_EDGE('',*,*,#178,.T.);
#244=ORIENTED_EDGE('',*,*,#174,.T.);
#245=ORIENTED_EDGE('',*,*,#186,.T.);
#246=ORIENTED_EDGE('',*,*,#176,.T.);
#247=ORIENTED_EDGE('',*,*,#180,.T.);
#248=ORIENTED_EDGE('',*,*,#183,.T.);
#249=ORIENTED_EDGE('',*,*,#155,.T.);
#250=ORIENTED_EDGE('',*,*,#158,.T.);
#251=ORIENTED_EDGE('',*,*,#161,.T.);
#252=ORIENTED_EDGE('',*,*,#164,.T.);
#253=ORIENTED_EDGE('',*,*,#172,.T.);
#254=CYLINDRICAL_SURFACE('',#294,4.25);
#255=CYLINDRICAL_SURFACE('',#297,4.25);
#256=CYLINDRICAL_SURFACE('',#300,4.25);
#257=CYLINDRICAL_SURFACE('',#303,4.25);
#258=CYLINDRICAL_SURFACE('',#310,5.25);
#259=CYLINDRICAL_SURFACE('',#313,10.5);
#260=CYLINDRICAL_SURFACE('',#319,8.5);
#261=ADVANCED_FACE('',(#35),#254,.F.);
#262=ADVANCED_FACE('',(#36),#255,.F.);
#263=ADVANCED_FACE('',(#37),#256,.F.);
#264=ADVANCED_FACE('',(#38),#257,.F.);
#265=ADVANCED_FACE('',(#39),#23,.F.);
#266=ADVANCED_FACE('',(#40),#24,.F.);
#267=ADVANCED_FACE('',(#41),#25,.F.);
#268=ADVANCED_FACE('',(#42),#26,.F.);
#269=ADVANCED_FACE('',(#43),#258,.F.);
#270=ADVANCED_FACE('',(#44),#259,.F.);
#271=ADVANCED_FACE('',(#45,#15),#27,.F.);
#272=ADVANCED_FACE('',(#46,#16),#28,.T.);
#273=ADVANCED_FACE('',(#47),#260,.F.);
#274=ADVANCED_FACE('',(#48),#29,.T.);
#275=ADVANCED_FACE('',(#49),#30,.T.);
#276=ADVANCED_FACE('',(#50),#31,.T.);
#277=ADVANCED_FACE('',(#51),#32,.T.);
#278=ADVANCED_FACE('',(#52,#17),#33,.T.);
#279=ADVANCED_FACE('',(#53,#18,#19,#20,#21,#22),#34,.F.);
#280=CLOSED_SHELL('',(#261,#262,#263,#264,#265,#266,#267,#268,#269,#270,
#271,#272,#273,#274,#275,#276,#277,#278,#279));
#281=DERIVED_UNIT_ELEMENT(#283,1.);
#282=DERIVED_UNIT_ELEMENT(#494,-3.);
#283=(
MASS_UNIT()
NAMED_UNIT(*)
SI_UNIT(.KILO.,.GRAM.)
);
#284=DERIVED_UNIT((#281,#282));
#285=MEASURE_REPRESENTATION_ITEM('density measure',
POSITIVE_RATIO_MEASURE(544.),#284);
#286=PROPERTY_DEFINITION_REPRESENTATION(#291,#288);
#287=PROPERTY_DEFINITION_REPRESENTATION(#292,#289);
#288=REPRESENTATION('material name',(#290),#491);
#289=REPRESENTATION('density',(#285),#491);
#290=DESCRIPTIVE_REPRESENTATION_ITEM('Kirsche','Kirsche');
#291=PROPERTY_DEFINITION('material property','material name',#501);
#292=PROPERTY_DEFINITION('material property','density of part',#501);
#293=AXIS2_PLACEMENT_3D('',#414,#327,#328);
#294=AXIS2_PLACEMENT_3D('',#415,#329,#330);
#295=AXIS2_PLACEMENT_3D('',#417,#331,#332);
#296=AXIS2_PLACEMENT_3D('',#420,#334,#335);
#297=AXIS2_PLACEMENT_3D('',#421,#336,#337);
#298=AXIS2_PLACEMENT_3D('',#423,#338,#339);
#299=AXIS2_PLACEMENT_3D('',#426,#341,#342);
#300=AXIS2_PLACEMENT_3D('',#427,#343,#344);
#301=AXIS2_PLACEMENT_3D('',#429,#345,#346);
#302=AXIS2_PLACEMENT_3D('',#432,#348,#349);
#303=AXIS2_PLACEMENT_3D('',#433,#350,#351);
#304=AXIS2_PLACEMENT_3D('',#435,#352,#353);
#305=AXIS2_PLACEMENT_3D('',#438,#355,#356);
#306=AXIS2_PLACEMENT_3D('',#439,#357,#358);
#307=AXIS2_PLACEMENT_3D('',#440,#359,#360);
#308=AXIS2_PLACEMENT_3D('',#441,#361,#362);
#309=AXIS2_PLACEMENT_3D('',#442,#363,#364);
#310=AXIS2_PLACEMENT_3D('',#443,#365,#366);
#311=AXIS2_PLACEMENT_3D('',#445,#367,#368);
#312=AXIS2_PLACEMENT_3D('',#448,#370,#371);
#313=AXIS2_PLACEMENT_3D('',#449,#372,#373);
#314=AXIS2_PLACEMENT_3D('',#451,#374,#375);
#315=AXIS2_PLACEMENT_3D('',#454,#377,#378);
#316=AXIS2_PLACEMENT_3D('',#455,#379,#380);
#317=AXIS2_PLACEMENT_3D('',#456,#381,#382);
#318=AXIS2_PLACEMENT_3D('',#458,#383,#384);
#319=AXIS2_PLACEMENT_3D('',#459,#385,#386);
#320=AXIS2_PLACEMENT_3D('',#461,#387,#388);
#321=AXIS2_PLACEMENT_3D('',#463,#390,#391);
#322=AXIS2_PLACEMENT_3D('',#472,#396,#397);
#323=AXIS2_PLACEMENT_3D('',#478,#401,#402);
#324=AXIS2_PLACEMENT_3D('',#484,#406,#407);
#325=AXIS2_PLACEMENT_3D('',#487,#410,#411);
#326=AXIS2_PLACEMENT_3D('',#488,#412,#413);
#327=DIRECTION('axis',(0.,0.,1.));
#328=DIRECTION('refdir',(1.,0.,0.));
#329=DIRECTION('center_axis',(0.,0.,-1.));
#330=DIRECTION('ref_axis',(1.,0.,0.));
#331=DIRECTION('center_axis',(0.,0.,1.));
#332=DIRECTION('ref_axis',(1.,0.,0.));
#333=DIRECTION('',(0.,0.,1.));
#334=DIRECTION('center_axis',(0.,0.,-1.));
#335=DIRECTION('ref_axis',(1.,0.,0.));
#336=DIRECTION('center_axis',(0.,0.,-1.));
#337=DIRECTION('ref_axis',(1.,0.,0.));
#338=DIRECTION('center_axis',(0.,0.,1.));
#339=DIRECTION('ref_axis',(1.,0.,0.));
#340=DIRECTION('',(0.,0.,1.));
#341=DIRECTION('center_axis',(0.,0.,-1.));
#342=DIRECTION('ref_axis',(1.,0.,0.));
#343=DIRECTION('center_axis',(0.,0.,-1.));
#344=DIRECTION('ref_axis',(1.,0.,0.));
#345=DIRECTION('center_axis',(0.,0.,1.));
#346=DIRECTION('ref_axis',(1.,0.,0.));
#347=DIRECTION('',(0.,0.,1.));
#348=DIRECTION('center_axis',(0.,0.,-1.));
#349=DIRECTION('ref_axis',(1.,0.,0.));
#350=DIRECTION('center_axis',(0.,0.,-1.));
#351=DIRECTION('ref_axis',(1.,0.,0.));
#352=DIRECTION('center_axis',(0.,0.,1.));
#353=DIRECTION('ref_axis',(1.,0.,0.));
#354=DIRECTION('',(0.,0.,1.));
#355=DIRECTION('center_axis',(0.,0.,-1.));
#356=DIRECTION('ref_axis',(1.,0.,0.));
#357=DIRECTION('center_axis',(0.,0.,1.));
#358=DIRECTION('ref_axis',(-1.,0.,0.));
#359=DIRECTION('center_axis',(0.,0.,1.));
#360=DIRECTION('ref_axis',(-1.,0.,0.));
#361=DIRECTION('center_axis',(0.,0.,1.));
#362=DIRECTION('ref_axis',(-1.,0.,0.));
#363=DIRECTION('center_axis',(0.,0.,1.));
#364=DIRECTION('ref_axis',(-1.,0.,0.));
#365=DIRECTION('center_axis',(0.,0.,-1.));
#366=DIRECTION('ref_axis',(-1.,0.,0.));
#367=DIRECTION('center_axis',(0.,0.,-1.));
#368=DIRECTION('ref_axis',(-1.,0.,0.));
#369=DIRECTION('',(0.,0.,-1.));
#370=DIRECTION('center_axis',(0.,0.,1.));
#371=DIRECTION('ref_axis',(-1.,0.,0.));
#372=DIRECTION('center_axis',(0.,0.,-1.));
#373=DIRECTION('ref_axis',(-1.,0.,0.));
#374=DIRECTION('center_axis',(0.,0.,-1.));
#375=DIRECTION('ref_axis',(-1.,0.,0.));
#376=DIRECTION('',(0.,0.,-1.));
#377=DIRECTION('center_axis',(0.,0.,-1.));
#378=DIRECTION('ref_axis',(-1.,0.,0.));
#379=DIRECTION('center_axis',(0.,0.,1.));
#380=DIRECTION('ref_axis',(-1.,0.,0.));
#381=DIRECTION('center_axis',(0.,0.,1.));
#382=DIRECTION('ref_axis',(-1.,0.,0.));
#383=DIRECTION('center_axis',(0.,0.,-1.));
#384=DIRECTION('ref_axis',(-1.,0.,0.));
#385=DIRECTION('center_axis',(0.,0.,-1.));
#386=DIRECTION('ref_axis',(-1.,0.,0.));
#387=DIRECTION('center_axis',(0.,0.,-1.));
#388=DIRECTION('ref_axis',(-1.,0.,0.));
#389=DIRECTION('',(0.,0.,-1.));
#390=DIRECTION('center_axis',(-1.,0.,0.));
#391=DIRECTION('ref_axis',(0.,-1.,0.));
#392=DIRECTION('',(0.,1.,0.));
#393=DIRECTION('',(0.,0.,1.));
#394=DIRECTION('',(0.,-1.,0.));
#395=DIRECTION('',(0.,0.,1.));
#396=DIRECTION('center_axis',(0.,1.,0.));
#397=DIRECTION('ref_axis',(-1.,0.,0.));
#398=DIRECTION('',(1.,0.,0.));
#399=DIRECTION('',(-1.,0.,0.));
#400=DIRECTION('',(0.,0.,1.));
#401=DIRECTION('center_axis',(1.,0.,0.));
#402=DIRECTION('ref_axis',(0.,1.,0.));
#403=DIRECTION('',(0.,-1.,0.));
#404=DIRECTION('',(0.,1.,0.));
#405=DIRECTION('',(0.,0.,1.));
#406=DIRECTION('center_axis',(0.,-1.,0.));
#407=DIRECTION('ref_axis',(1.,0.,0.));
#408=DIRECTION('',(-1.,0.,0.));
#409=DIRECTION('',(1.,0.,0.));
#410=DIRECTION('center_axis',(0.,0.,1.));
#411=DIRECTION('ref_axis',(1.,0.,0.));
#412=DIRECTION('center_axis',(0.,0.,1.));
#413=DIRECTION('ref_axis',(1.,0.,0.));
#414=CARTESIAN_POINT('',(0.,0.,0.));
#415=CARTESIAN_POINT('Origin',(27.0000000000002,306.012701892219,20.));
#416=CARTESIAN_POINT('',(22.7500000000002,306.012701892219,0.));
#417=CARTESIAN_POINT('Origin',(27.0000000000002,306.012701892219,0.));
#418=CARTESIAN_POINT('',(22.7500000000002,306.012701892219,20.));
#419=CARTESIAN_POINT('',(22.7500000000002,306.012701892219,20.));
#420=CARTESIAN_POINT('Origin',(27.0000000000002,306.012701892219,20.));
#421=CARTESIAN_POINT('Origin',(27.0000000000002,360.01270189222,20.));
#422=CARTESIAN_POINT('',(22.7500000000002,360.01270189222,0.));
#423=CARTESIAN_POINT('Origin',(27.0000000000002,360.01270189222,0.));
#424=CARTESIAN_POINT('',(22.7500000000002,360.01270189222,20.));
#425=CARTESIAN_POINT('',(22.7500000000002,360.01270189222,20.));
#426=CARTESIAN_POINT('Origin',(27.0000000000002,360.01270189222,20.));
#427=CARTESIAN_POINT('Origin',(-27.,306.012701892219,20.));
#428=CARTESIAN_POINT('',(-31.25,306.012701892219,0.));
#429=CARTESIAN_POINT('Origin',(-27.,306.012701892219,0.));
#430=CARTESIAN_POINT('',(-31.25,306.012701892219,20.));
#431=CARTESIAN_POINT('',(-31.25,306.012701892219,20.));
#432=CARTESIAN_POINT('Origin',(-27.,306.012701892219,20.));
#433=CARTESIAN_POINT('Origin',(-27.,360.01270189222,20.));
#434=CARTESIAN_POINT('',(-31.25,360.01270189222,0.));
#435=CARTESIAN_POINT('Origin',(-27.,360.01270189222,0.));
#436=CARTESIAN_POINT('',(-31.25,360.01270189222,20.));
#437=CARTESIAN_POINT('',(-31.25,360.01270189222,20.));
#438=CARTESIAN_POINT('Origin',(-27.,360.01270189222,20.));
#439=CARTESIAN_POINT('Origin',(27.0000000000002,306.012701892219,20.));
#440=CARTESIAN_POINT('Origin',(-27.,306.012701892219,20.));
#441=CARTESIAN_POINT('Origin',(27.0000000000002,360.01270189222,20.));
#442=CARTESIAN_POINT('Origin',(-27.,360.01270189222,20.));
#443=CARTESIAN_POINT('Origin',(1.06581410364015E-13,333.01270189222,27.));
#444=CARTESIAN_POINT('',(5.25000000000011,333.01270189222,27.));
#445=CARTESIAN_POINT('Origin',(1.06581410364015E-13,333.01270189222,27.));
#446=CARTESIAN_POINT('',(5.25000000000011,333.01270189222,17.));
#447=CARTESIAN_POINT('',(5.25000000000011,333.01270189222,27.));
#448=CARTESIAN_POINT('Origin',(1.06581410364015E-13,333.01270189222,17.));
#449=CARTESIAN_POINT('Origin',(1.06581410364015E-13,333.01270189222,17.));
#450=CARTESIAN_POINT('',(10.5000000000001,333.01270189222,17.));
#451=CARTESIAN_POINT('Origin',(1.06581410364015E-13,333.01270189222,17.));
#452=CARTESIAN_POINT('',(10.5000000000001,333.01270189222,0.));
#453=CARTESIAN_POINT('',(10.5000000000001,333.01270189222,17.));
#454=CARTESIAN_POINT('Origin',(1.06581410364015E-13,333.01270189222,0.));
#455=CARTESIAN_POINT('Origin',(1.06581410364015E-13,333.01270189222,17.));
#456=CARTESIAN_POINT('Origin',(1.06581410364015E-13,333.01270189222,27.));
#457=CARTESIAN_POINT('',(8.50000000000011,333.01270189222,27.));
#458=CARTESIAN_POINT('Origin',(1.06581410364015E-13,333.01270189222,27.));
#459=CARTESIAN_POINT('Origin',(1.06581410364015E-13,333.01270189222,50.));
#460=CARTESIAN_POINT('',(8.50000000000011,333.01270189222,50.));
#461=CARTESIAN_POINT('Origin',(1.06581410364015E-13,333.01270189222,50.));
#462=CARTESIAN_POINT('',(8.50000000000011,333.01270189222,50.));
#463=CARTESIAN_POINT('Origin',(-39.9999999999999,373.01270189222,0.));
#464=CARTESIAN_POINT('',(-39.9999999999999,293.01270189222,0.));
#465=CARTESIAN_POINT('',(-39.9999999999999,373.01270189222,0.));
#466=CARTESIAN_POINT('',(-39.9999999999999,293.01270189222,0.));
#467=CARTESIAN_POINT('',(-39.9999999999999,293.01270189222,50.));
#468=CARTESIAN_POINT('',(-39.9999999999999,293.01270189222,0.));
#469=CARTESIAN_POINT('',(-39.9999999999999,373.01270189222,50.));
#470=CARTESIAN_POINT('',(-39.9999999999999,293.01270189222,50.));
#471=CARTESIAN_POINT('',(-39.9999999999999,373.01270189222,0.));
#472=CARTESIAN_POINT('Origin',(40.0000000000001,373.01270189222,0.));
#473=CARTESIAN_POINT('',(40.0000000000001,373.01270189222,0.));
#474=CARTESIAN_POINT('',(-39.9999999999999,373.01270189222,0.));
#475=CARTESIAN_POINT('',(40.0000000000001,373.01270189222,50.));
#476=CARTESIAN_POINT('',(-39.9999999999999,373.01270189222,50.));
#477=CARTESIAN_POINT('',(40.0000000000001,373.01270189222,0.));
#478=CARTESIAN_POINT('Origin',(40.0000000000001,293.01270189222,0.));
#479=CARTESIAN_POINT('',(40.0000000000001,293.01270189222,0.));
#480=CARTESIAN_POINT('',(40.0000000000001,373.01270189222,0.));
#481=CARTESIAN_POINT('',(40.0000000000001,293.01270189222,50.));
#482=CARTESIAN_POINT('',(40.0000000000001,373.01270189222,50.));
#483=CARTESIAN_POINT('',(40.0000000000001,293.01270189222,0.));
#484=CARTESIAN_POINT('Origin',(-39.9999999999999,293.01270189222,0.));
#485=CARTESIAN_POINT('',(40.0000000000001,293.01270189222,0.));
#486=CARTESIAN_POINT('',(40.0000000000001,293.01270189222,50.));
#487=CARTESIAN_POINT('Origin',(1.06581410364015E-13,333.01270189222,50.));
#488=CARTESIAN_POINT('Origin',(1.06581410364015E-13,333.01270189222,0.));
#489=UNCERTAINTY_MEASURE_WITH_UNIT(LENGTH_MEASURE(0.01),#493,
'DISTANCE_ACCURACY_VALUE',
'Maximum model space distance between geometric entities at asserted c
onnectivities');
#490=UNCERTAINTY_MEASURE_WITH_UNIT(LENGTH_MEASURE(0.01),#493,
'DISTANCE_ACCURACY_VALUE',
'Maximum model space distance between geometric entities at asserted c
onnectivities');
#491=(
GEOMETRIC_REPRESENTATION_CONTEXT(3)
GLOBAL_UNCERTAINTY_ASSIGNED_CONTEXT((#489))
GLOBAL_UNIT_ASSIGNED_CONTEXT((#493,#495,#496))
REPRESENTATION_CONTEXT('','3D')
);
#492=(
GEOMETRIC_REPRESENTATION_CONTEXT(3)
GLOBAL_UNCERTAINTY_ASSIGNED_CONTEXT((#490))
GLOBAL_UNIT_ASSIGNED_CONTEXT((#493,#495,#496))
REPRESENTATION_CONTEXT('','3D')
);
#493=(
LENGTH_UNIT()
NAMED_UNIT(*)
SI_UNIT(.MILLI.,.METRE.)
);
#494=(
LENGTH_UNIT()
NAMED_UNIT(*)
SI_UNIT($,.METRE.)
);
#495=(
NAMED_UNIT(*)
PLANE_ANGLE_UNIT()
SI_UNIT($,.RADIAN.)
);
#496=(
NAMED_UNIT(*)
SI_UNIT($,.STERADIAN.)
SOLID_ANGLE_UNIT()
);
#497=SHAPE_DEFINITION_REPRESENTATION(#498,#499);
#498=PRODUCT_DEFINITION_SHAPE('',$,#501);
#499=SHAPE_REPRESENTATION('',(#293),#491);
#500=PRODUCT_DEFINITION_CONTEXT('part definition',#505,'design');
#501=PRODUCT_DEFINITION('Kugelgelenkhalter','Kugelgelenkhalter',#502,#500);
#502=PRODUCT_DEFINITION_FORMATION('',$,#507);
#503=PRODUCT_RELATED_PRODUCT_CATEGORY('Kugelgelenkhalter',
'Kugelgelenkhalter',(#507));
#504=APPLICATION_PROTOCOL_DEFINITION('international standard',
'automotive_design',2009,#505);
#505=APPLICATION_CONTEXT(
'Core Data for Automotive Mechanical Design Process');
#506=PRODUCT_CONTEXT('part definition',#505,'mechanical');
#507=PRODUCT('Kugelgelenkhalter','Kugelgelenkhalter',$,(#506));
#508=PRESENTATION_STYLE_ASSIGNMENT((#509));
#509=SURFACE_STYLE_USAGE(.BOTH.,#510);
#510=SURFACE_SIDE_STYLE('',(#511));
#511=SURFACE_STYLE_FILL_AREA(#512);
#512=FILL_AREA_STYLE('Kirsche',(#513));
#513=FILL_AREA_STYLE_COLOUR('Kirsche',#514);
#514=COLOUR_RGB('Kirsche',0.,0.,0.);
ENDSEC;
END-ISO-10303-21;
